<?xml version="1.0" encoding="UTF-8"?> <svg xmlns="http://www.w3.org/2000/svg" width="64" height="64" viewBox="0 0 64 64" fill="none"><path d="M9.90198 30.198C9.33758 30.8045 9.37165 31.7536 9.97807 32.318C10.5845 32.8824 11.5336 32.8483 12.098 32.2419L9.90198 30.198ZM47.201 51.6647C47.9634 51.3407 48.3189 50.46 47.9949 49.6976C47.6709 48.9351 46.7901 48.5797 46.0277 48.9037L47.201 51.6647ZM25.8255 51.974L24.3288 51.8741L25.8255 51.974ZM26.1936 52.1234L25.0507 51.1519L26.1936 52.1234ZM24.2607 36.4095L22.8998 35.7786L24.2607 36.4095ZM14.3148 54.4735L12.8241 54.3069L14.3148 54.4735ZM12.098 32.2419L13.2108 31.0463L11.0147 29.0025L9.90198 30.198L12.098 32.2419ZM15.3151 32.0124L12.8241 54.3069L15.8055 54.6401L18.2965 32.3456L15.3151 32.0124ZM17.0675 55.4935L25.6215 37.0403L22.8998 35.7786L14.3457 54.2319L17.0675 55.4935ZM25.3242 36.9643L24.3288 51.8741L27.3222 52.0739L28.3176 37.1641L25.3242 36.9643ZM27.3365 53.0949L34.3097 44.8915L32.0239 42.9485L25.0507 51.1519L27.3365 53.0949ZM43.5686 53.2083L47.201 51.6647L46.0277 48.9037L42.3953 50.4473L43.5686 53.2083ZM33.5148 44.4746C31.9188 50.4375 37.8875 55.6225 43.5686 53.2083L42.3953 50.4473C39.0148 51.8839 35.4631 48.7985 36.4128 45.2503L33.5148 44.4746ZM34.3097 44.8915C34.2576 44.9529 34.1545 45.0216 34.0217 45.0422C33.9054 45.0604 33.811 45.0353 33.7456 45.001C33.6801 44.9666 33.6058 44.9033 33.5546 44.7972C33.4961 44.6762 33.494 44.5524 33.5148 44.4746L36.4128 45.2503C37.1133 42.6336 33.7783 40.8846 32.0239 42.9485L34.3097 44.8915ZM24.3288 51.8741C24.2191 53.5178 26.2695 54.3501 27.3365 53.0949L25.0507 51.1519C25.8565 50.2039 27.4051 50.8325 27.3222 52.0739L24.3288 51.8741ZM25.6215 37.0403C25.626 37.0306 25.6217 37.0432 25.6006 37.0638C25.5798 37.084 25.5539 37.1011 25.5269 37.1126C25.4766 37.134 25.4468 37.1273 25.4413 37.1259C25.4357 37.1245 25.4064 37.116 25.3726 37.0731C25.3544 37.0501 25.3399 37.0226 25.3314 36.9949C25.3227 36.9667 25.325 36.9536 25.3242 36.9643L28.3176 37.1641C28.5276 34.0189 24.2255 32.9187 22.8998 35.7786L25.6215 37.0403ZM12.8241 54.3069C12.5431 56.8221 16.0032 57.7896 17.0675 55.4935L14.3457 54.2319C14.4151 54.0822 14.5585 53.9304 14.7591 53.8481C14.9404 53.7736 15.1136 53.7774 15.2492 53.8153C15.3848 53.8532 15.5348 53.9398 15.6512 54.0975C15.78 54.272 15.8239 54.4762 15.8055 54.6401L12.8241 54.3069ZM13.2108 31.0463C14.0113 30.1862 15.4456 30.8447 15.3151 32.0124L18.2965 32.3456C18.748 28.3046 13.7849 26.0261 11.0147 29.0025L13.2108 31.0463Z" fill="#A1D0EA"></path><path fill-rule="evenodd" clip-rule="evenodd" d="M4.67197 0.83354C5.69924 0.0777878 6.9917 0 7.99983 0H30.4998H38.1646H44.9998C45.6331 0 46.2405 0.258702 46.7422 0.546088C47.2622 0.843943 47.7801 1.23842 48.2577 1.64194C48.8567 2.14804 49.496 2.76404 50.0069 3.25635L50.007 3.25646C50.2704 3.51024 50.4996 3.73115 50.6716 3.88719C50.6834 3.89784 50.6949 3.90878 50.7061 3.91998L55.6903 8.89256C56.3482 9.4958 56.6938 10.1641 56.856 10.9876C57.0001 11.7194 57 12.5976 56.9998 13.6099L56.9998 13.6977V16.5C56.9998 17.0523 56.5521 17.5 55.9998 17.5C55.4475 17.5 54.9998 17.0523 54.9998 16.5V13.6977C54.9998 13.4434 54.9996 13.212 54.9981 13H46.9998C45.8652 13 44.8983 12.7128 44.3816 11.8086C44.1575 11.4166 44.074 10.993 44.0363 10.6255C43.9998 10.2693 43.9998 9.88191 43.9998 9.52857V9.52853V9.5V2H38.1646H30.4998H7.99983C7.00796 2 6.31516 2.10759 5.85716 2.44454C5.47022 2.7292 5.0293 3.35536 5.0293 5.00003V20.875V58.9675C5.02929 59.7185 5.09922 60.493 5.42399 61.0641C5.57416 61.3282 5.77824 61.5465 6.073 61.7063C6.37358 61.8692 6.82227 62 7.49985 62H51.9998C53.0885 62 53.7286 61.9662 54.162 61.6702C54.4908 61.4456 54.9521 60.8628 54.9521 58.9675V39C54.9521 38.4477 55.3998 38 55.9521 38C56.5044 38 56.9521 38.4477 56.9521 39V58.9675C56.9521 61.1048 56.4372 62.5382 55.2899 63.3218C54.2917 64.0035 53.0245 64.0016 52.1186 64.0002L51.9998 64H7.49985C6.56429 64 5.77258 63.8183 5.11997 63.4646C4.46154 63.1077 3.99963 62.6053 3.68544 62.0528C3.0815 60.9908 3.02929 59.749 3.0293 58.9675V20.875V5.00003C3.0293 3.01543 3.57364 1.64157 4.67197 0.83354ZM45.9998 2.43596V9.5C45.9998 9.88905 46.0009 10.1778 46.0259 10.4214C46.0507 10.6632 46.0921 10.7709 46.1181 10.8164L46.1191 10.8181C46.1293 10.8362 46.1441 10.8622 46.2282 10.8972C46.3419 10.9446 46.5712 11 46.9998 11H54.7891C54.6948 10.7568 54.5536 10.5616 54.328 10.357C54.3163 10.3463 54.3048 10.3354 54.2935 10.3242L49.3101 5.35235C49.0523 5.11781 48.7867 4.86081 48.5077 4.59078L48.5074 4.59049L48.5074 4.59046C48.0405 4.13868 47.536 3.6504 46.967 3.16969C46.6282 2.88347 46.3025 2.63304 45.9998 2.43596Z" fill="#15548F"></path><path d="M48.6502 43.4053C46.4517 46.5329 43.2678 48.8818 39.6813 50.0551C39.5749 46.2538 40.7072 42.4779 42.8979 39.3613L51.7297 26.7971L57.483 30.8402L48.6502 43.4053Z" fill="#15548F"></path><path d="M61.9039 24.5502L58.5875 29.2681L52.8347 25.2243L56.1511 20.5064C56.7618 19.6376 57.9595 19.428 58.829 20.0392L61.4361 21.8718C62.3054 22.4824 62.515 23.6801 61.9039 24.5502Z" fill="#15548F"></path></svg> 