<?xml version="1.0" encoding="UTF-8"?> <svg xmlns="http://www.w3.org/2000/svg" width="957" height="265" viewBox="0 0 957 265" fill="none"><path d="M26.4545 209.884H5.24093C1.74694 209.884 -6.10352e-05 208.217 -6.10352e-05 204.881V53.5343C-6.10352e-05 50.032 1.74694 48.2809 5.24093 48.2809H26.4545C29.9485 48.2809 31.6955 50.032 31.6955 53.5343V61.7896H32.6938C34.524 57.2867 37.7684 53.9512 42.427 51.7832C47.0857 49.4483 51.9939 48.2809 57.1517 48.2809H67.3842C80.1955 48.2809 89.8456 51.7832 96.3344 58.7876C102.99 65.7921 106.317 75.8819 106.317 89.057V135.087C106.317 148.262 102.99 158.351 96.3344 165.356C89.8456 172.36 80.1955 175.863 67.3842 175.863H57.1517C51.9939 175.863 47.0857 174.779 42.427 172.611C37.7684 170.276 34.524 166.857 32.6938 162.354H31.6955V204.881C31.6955 208.217 29.9485 209.884 26.4545 209.884ZM52.4254 148.345H63.4066C68.7308 148.345 72.4743 147.261 74.6373 145.093C76.9666 142.758 78.1313 138.922 78.1313 133.586V90.558C78.1313 85.2212 76.9666 81.4688 74.6373 79.3008C72.4743 76.966 68.7308 75.7985 63.4066 75.7985H52.4254C40.9452 75.7985 35.205 82.1359 35.205 94.8107V125.815C35.205 138.49 40.9452 148.345 52.4254 148.345Z" fill="white"></path><path d="M159.068 175.863H137.855C134.361 175.863 132.614 174.112 132.614 170.609V5.25336C132.614 1.75112 134.361 0 137.855 0H159.068C162.562 0 164.309 1.75112 164.309 5.25336V170.609C164.309 174.112 162.562 175.863 159.068 175.863Z" fill="white"></path><path d="M347.144 175.863H325.931C322.437 175.863 320.69 174.112 320.69 170.609V53.5343C320.69 50.032 322.437 48.2809 325.931 48.2809H347.144C350.638 48.2809 352.385 50.032 352.385 53.5343V61.7896H353.384C357.044 52.7838 365.197 48.2809 377.841 48.2809H385.828C411.95 48.2809 425.01 61.873 425.01 89.057V170.609C425.01 174.112 423.18 175.863 419.52 175.863H398.556C395.062 175.863 393.315 174.112 393.315 170.609V90.558C393.315 85.2212 392.15 81.4688 389.821 79.3008C387.658 76.966 383.914 75.7985 378.59 75.7985H369.606C358.125 75.7985 352.385 82.1359 352.385 94.8107V170.609C352.385 174.112 350.638 175.863 347.144 175.863Z" fill="white"></path><path d="M477.779 175.863H456.566C453.072 175.863 451.325 174.112 451.325 170.609V53.5343C451.325 50.032 453.072 48.2809 456.566 48.2809H477.779C481.273 48.2809 483.02 50.032 483.02 53.5343V61.7896H484.018C487.679 52.7838 495.831 48.2809 508.476 48.2809H516.463C542.584 48.2809 555.645 61.873 555.645 89.057V170.609C555.645 174.112 553.815 175.863 550.155 175.863H529.191C525.697 175.863 523.95 174.112 523.95 170.609V90.558C523.95 85.2212 522.785 81.4688 520.456 79.3008C518.293 76.966 514.549 75.7985 509.225 75.7985H500.241C488.76 75.7985 483.02 82.1359 483.02 94.8107V170.609C483.02 174.112 481.273 175.863 477.779 175.863Z" fill="white"></path><path d="M675.798 175.863H620.643C607.499 175.863 597.35 172.36 590.195 165.356C583.041 158.351 579.464 148.262 579.464 135.087V89.057C579.464 75.8819 583.041 65.7921 590.195 58.7876C597.35 51.7832 607.499 48.2809 620.643 48.2809H640.359C653.503 48.2809 663.653 51.7832 670.807 58.7876C677.961 65.7921 681.538 75.8819 681.538 89.057V120.827C681.538 124.33 679.791 126.081 676.297 126.081H613.655C611.659 126.081 610.66 126.998 610.66 128.833V134.336C610.66 139.506 611.742 143.258 613.905 145.593C616.234 147.761 620.061 148.845 625.385 148.845H675.798C679.292 148.845 681.039 150.68 681.039 154.349V170.859C681.039 172.694 680.623 174.028 679.791 174.862C679.126 175.529 677.795 175.863 675.798 175.863ZM613.655 104.817H647.597C649.427 104.817 650.342 103.9 650.342 102.065V90.0577C650.342 84.7209 649.261 80.9685 647.098 78.8005C644.935 76.6324 641.191 75.5484 635.867 75.5484H625.385C620.061 75.5484 616.317 76.6324 614.154 78.8005C611.991 80.9685 610.91 84.7209 610.91 90.0577V102.065C610.91 103.9 611.825 104.817 613.655 104.817Z" fill="white"></path><path d="M731.737 175.863H710.524C707.03 175.863 705.283 174.112 705.283 170.609V53.5343C705.283 50.032 707.03 48.2809 710.524 48.2809H731.737C735.231 48.2809 736.978 50.032 736.978 53.5343V62.0397H737.977C739.807 57.5368 743.051 54.118 747.71 51.7832C752.369 49.4483 757.277 48.2809 762.435 48.2809H771.419C774.747 48.2809 776.411 50.032 776.411 53.5343V70.7953C776.411 72.7966 775.995 74.2142 775.163 75.0481C774.497 75.7152 773.249 75.9653 771.419 75.7985H754.199C742.719 75.7985 736.978 82.3027 736.978 95.311V170.609C736.978 174.112 735.231 175.863 731.737 175.863Z" fill="white"></path><path d="M823.503 175.863H802.29C798.796 175.863 797.049 174.112 797.049 170.609V5.25336C797.049 1.75112 798.796 0 802.29 0H823.503C826.997 0 828.744 1.75112 828.744 5.25336V170.609C828.744 174.112 826.997 175.863 823.503 175.863Z" fill="white"></path><path d="M878.177 218.14H862.205C858.877 218.14 857.213 216.305 857.213 212.636V195.875C857.213 192.206 858.877 190.372 862.205 190.372H867.446C877.928 190.372 884.999 188.871 888.659 185.869C892.486 183.034 895.397 177.447 897.394 169.108H884.167C881.006 169.108 878.926 167.357 877.928 163.855L848.728 53.5343C847.729 50.032 848.977 48.2809 852.471 48.2809H874.683C878.011 48.2809 880.09 50.032 880.922 53.5343L902.386 145.843H903.384L924.597 53.5343C925.263 50.032 927.343 48.2809 930.837 48.2809H951.801C955.96 48.2809 957.624 50.1154 956.792 53.7844L926.344 175.863C922.684 189.705 917.027 200.212 909.373 207.383C901.72 214.554 891.321 218.14 878.177 218.14Z" fill="white"></path><path fill-rule="evenodd" clip-rule="evenodd" d="M229.003 175.863H222.757C193.814 175.863 186.404 148.879 186.318 135.387V89.6965C186.318 76.6184 190.048 66.603 197.51 59.6501C204.971 52.6972 215.556 49.2207 229.263 49.2207H281.076C284.893 49.2207 295.114 49.2207 295.114 65.051V170.648C295.114 174.124 293.205 175.863 289.388 175.863H270.5C266.84 175.863 263.18 174.116 263.18 170.625V153.165C263.18 158.403 254.754 170.648 241.3 174.116C238.361 174.874 235.81 175.863 229.003 175.863ZM262.058 79.0707V103.747C262.058 116.329 258.263 149.479 230.959 147.72C225.407 147.72 221.503 146.644 219.247 144.492C216.991 142.174 215.863 138.367 215.863 133.069V94.7042C215.863 89.4068 216.991 83.0749 219.247 80.9228C221.503 78.6052 225.407 76.3392 230.959 76.3392H258.935C261.017 76.3392 262.058 77.2497 262.058 79.0707Z" fill="white"></path><path d="M89.1222 249.677H81.0714V213.344H72.7533V206.244H97.4403V213.344H89.1222V249.677Z" fill="white"></path><path d="M118.117 249.677V229.951C118.117 225.099 116.899 222.672 114.463 222.672C112.641 222.672 111.363 223.633 110.63 225.554C109.898 227.455 109.531 230.198 109.531 233.783V249.677H101.629V203.452H109.531V213.73C109.531 215.057 109.412 217.424 109.175 220.831H109.591C111.175 217.583 113.611 215.959 116.899 215.959C119.929 215.959 122.216 216.988 123.761 219.048C125.306 221.088 126.078 224.098 126.078 228.079V249.677H118.117Z" fill="white"></path><path d="M144.675 250.271C140.536 250.271 137.268 248.805 134.872 245.874C132.495 242.923 131.307 238.754 131.307 233.367C131.307 227.901 132.386 223.633 134.545 220.563C136.704 217.493 139.714 215.959 143.576 215.959C147.181 215.959 150.023 217.276 152.102 219.91C154.182 222.524 155.222 226.198 155.222 230.931V235.15H139.328C139.387 238.101 139.991 240.299 141.14 241.745C142.289 243.171 143.873 243.884 145.893 243.884C148.468 243.884 151.102 243.082 153.796 241.477V247.983C151.261 249.508 148.22 250.271 144.675 250.271ZM143.517 222.049C142.388 222.049 141.457 222.653 140.724 223.861C139.991 225.049 139.566 226.901 139.447 229.416H147.468C147.428 227 147.062 225.168 146.369 223.92C145.675 222.672 144.725 222.049 143.517 222.049Z" fill="white"></path><path d="M175.957 206.244H187.038C191.554 206.244 194.842 207.125 196.901 208.888C198.961 210.631 199.991 213.414 199.991 217.236C199.991 219.751 199.446 221.86 198.357 223.564C197.268 225.247 195.782 226.267 193.901 226.624V226.921C196.357 227.535 198.129 228.683 199.218 230.367C200.308 232.05 200.852 234.288 200.852 237.081C200.852 241.022 199.793 244.111 197.674 246.349C195.574 248.568 192.693 249.677 189.029 249.677H175.957V206.244ZM183.563 223.712H187.276C188.979 223.712 190.177 223.257 190.871 222.346C191.564 221.435 191.91 220.078 191.91 218.276C191.91 216.473 191.514 215.186 190.722 214.414C189.93 213.622 188.682 213.225 186.979 213.225H183.563V223.712ZM183.563 230.456V242.606H187.632C189.316 242.606 190.564 242.091 191.376 241.061C192.207 240.032 192.623 238.437 192.623 236.279C192.623 232.397 190.92 230.456 187.514 230.456H183.563Z" fill="white"></path><path d="M208.25 249.677V206.244H215.855V249.677H208.25Z" fill="white"></path><path d="M240.542 249.677L232.283 212.691H231.956C232.333 215.543 232.521 218.157 232.521 220.534V249.677H225.034V206.244H237.452L244.879 240.378H245.117L252.484 206.244H265.08V249.677H257.416V220.236C257.416 217.8 257.554 215.305 257.832 212.75H257.594L249.365 249.677H240.542Z" fill="white"></path><path d="M303.284 249.677L295.025 212.691H294.699C295.075 215.543 295.263 218.157 295.263 220.534V249.677H287.777V206.244H300.195L307.621 240.378H307.859L315.227 206.244H327.823V249.677H320.158V220.236C320.158 217.8 320.297 215.305 320.574 212.75H320.336L312.107 249.677H303.284Z" fill="white"></path><path d="M351.232 249.677L349.658 245.161H349.479C348.311 247.102 347.103 248.439 345.855 249.172C344.607 249.904 343.033 250.271 341.132 250.271C338.696 250.271 336.774 249.36 335.368 247.538C333.982 245.716 333.289 243.181 333.289 239.933C333.289 236.447 334.239 233.862 336.141 232.179C338.062 230.476 340.924 229.535 344.726 229.357L349.123 229.178V226.802C349.123 223.712 347.786 222.167 345.112 222.167C343.132 222.167 340.854 222.94 338.28 224.485L335.547 219.018C338.834 216.939 342.409 215.899 346.271 215.899C349.776 215.899 352.44 216.909 354.262 218.929C356.104 220.93 357.025 223.772 357.025 227.455V249.677H351.232ZM344.37 244.092C345.815 244.092 346.964 243.448 347.816 242.161C348.687 240.853 349.123 239.121 349.123 236.962V234.169L346.687 234.288C344.885 234.387 343.558 234.902 342.706 235.833C341.874 236.764 341.458 238.15 341.458 239.992C341.458 242.725 342.429 244.092 344.37 244.092Z" fill="white"></path><path d="M379.9 249.677V229.951C379.9 227.554 379.613 225.742 379.038 224.514C378.464 223.286 377.533 222.672 376.246 222.672C374.543 222.672 373.295 223.524 372.503 225.227C371.711 226.911 371.314 229.763 371.314 233.783V249.677H363.412V216.582H369.681L370.631 220.831H371.136C371.849 219.306 372.869 218.117 374.196 217.266C375.523 216.394 377.078 215.959 378.86 215.959C381.871 215.959 384.118 216.988 385.604 219.048C387.109 221.108 387.862 224.118 387.862 228.079V249.677H379.9Z" fill="white"></path><path d="M410.469 249.677L408.895 245.161H408.716C407.548 247.102 406.34 248.439 405.092 249.172C403.844 249.904 402.27 250.271 400.369 250.271C397.932 250.271 396.011 249.36 394.605 247.538C393.219 245.716 392.526 243.181 392.526 239.933C392.526 236.447 393.476 233.862 395.378 232.179C397.299 230.476 400.161 229.535 403.963 229.357L408.36 229.178V226.802C408.36 223.712 407.023 222.167 404.349 222.167C402.369 222.167 400.091 222.94 397.517 224.485L394.783 219.018C398.071 216.939 401.646 215.899 405.508 215.899C409.013 215.899 411.677 216.909 413.499 218.929C415.341 220.93 416.262 223.772 416.262 227.455V249.677H410.469ZM403.607 244.092C405.052 244.092 406.201 243.448 407.053 242.161C407.924 240.853 408.36 239.121 408.36 236.962V234.169L405.924 234.288C404.122 234.387 402.795 234.902 401.943 235.833C401.111 236.764 400.695 238.15 400.695 239.992C400.695 242.725 401.666 244.092 403.607 244.092Z" fill="white"></path><path d="M446.475 216.642V221.276L442.524 222.167C443.296 223.554 443.682 225.297 443.682 227.396C443.682 230.901 442.732 233.644 440.83 235.625C438.929 237.605 436.275 238.596 432.869 238.596C431.878 238.596 431.146 238.517 430.67 238.358C430.294 238.695 429.937 239.071 429.601 239.487C429.264 239.903 429.096 240.418 429.096 241.032C429.096 242.418 430.294 243.111 432.69 243.111H437.473C440.286 243.111 442.444 243.874 443.95 245.399C445.475 246.904 446.237 249.182 446.237 252.232C446.237 256.074 444.95 259.044 442.375 261.144C439.8 263.243 436.097 264.293 431.264 264.293C427.6 264.293 424.778 263.491 422.798 261.886C420.817 260.302 419.827 258.034 419.827 255.083C419.827 253.242 420.391 251.618 421.52 250.211C422.649 248.825 424.214 247.815 426.214 247.181C425.204 246.785 424.372 246.171 423.719 245.339C423.085 244.508 422.768 243.537 422.768 242.428C422.768 241.755 422.867 241.151 423.065 240.616C423.263 240.061 423.54 239.546 423.897 239.071C424.273 238.576 425.026 237.853 426.155 236.902C424.788 236.071 423.709 234.793 422.917 233.07C422.124 231.347 421.728 229.436 421.728 227.337C421.728 223.712 422.679 220.91 424.58 218.929C426.481 216.949 429.205 215.959 432.75 215.959C433.423 215.959 434.196 216.038 435.067 216.196C435.938 216.335 436.602 216.483 437.057 216.642H446.475ZM427.016 254.489C427.016 255.796 427.422 256.797 428.234 257.49C429.066 258.203 430.244 258.559 431.769 258.559C434.166 258.559 435.958 258.104 437.146 257.193C438.355 256.282 438.959 255.034 438.959 253.45C438.959 252.202 438.632 251.32 437.978 250.806C437.345 250.291 436.146 250.033 434.384 250.033H430.551C429.482 250.033 428.62 250.429 427.967 251.221C427.333 252.033 427.016 253.123 427.016 254.489ZM429.452 227.396C429.452 231.298 430.551 233.248 432.75 233.248C434.889 233.248 435.958 231.278 435.958 227.337C435.958 223.296 434.889 221.276 432.75 221.276C430.551 221.276 429.452 223.316 429.452 227.396Z" fill="white"></path><path d="M462.665 250.271C458.526 250.271 455.258 248.805 452.862 245.874C450.485 242.923 449.297 238.754 449.297 233.367C449.297 227.901 450.376 223.633 452.535 220.563C454.694 217.493 457.704 215.959 461.566 215.959C465.171 215.959 468.013 217.276 470.092 219.91C472.172 222.524 473.211 226.198 473.211 230.931V235.15H457.318C457.377 238.101 457.981 240.299 459.13 241.745C460.279 243.171 461.863 243.884 463.883 243.884C466.458 243.884 469.092 243.082 471.786 241.477V247.983C469.25 249.508 466.21 250.271 462.665 250.271ZM461.507 222.049C460.378 222.049 459.447 222.653 458.714 223.861C457.981 225.049 457.556 226.901 457.437 229.416H465.458C465.418 227 465.052 225.168 464.359 223.92C463.665 222.672 462.715 222.049 461.507 222.049Z" fill="white"></path><path d="M511.297 249.677V229.951C511.297 225.099 510.098 222.672 507.702 222.672C505.959 222.672 504.711 223.544 503.959 225.287C503.206 227.01 502.83 229.782 502.83 233.605V249.677H494.868V229.951C494.868 225.099 493.65 222.672 491.214 222.672C489.511 222.672 488.273 223.534 487.501 225.257C486.728 226.98 486.342 229.822 486.342 233.783V249.677H478.44V216.582H484.708L485.659 220.831H486.164C486.956 219.147 488.036 217.919 489.402 217.147C490.788 216.355 492.264 215.959 493.829 215.959C497.869 215.959 500.562 217.87 501.909 221.692H502.206C503.889 217.87 506.593 215.959 510.316 215.959C513.247 215.959 515.466 216.988 516.971 219.048C518.496 221.108 519.258 224.118 519.258 228.079V249.677H511.297Z" fill="white"></path><path d="M537.885 250.271C533.746 250.271 530.478 248.805 528.081 245.874C525.705 242.923 524.516 238.754 524.516 233.367C524.516 227.901 525.596 223.633 527.755 220.563C529.913 217.493 532.924 215.959 536.786 215.959C540.39 215.959 543.232 217.276 545.312 219.91C547.391 222.524 548.431 226.198 548.431 230.931V235.15H532.538C532.597 238.101 533.201 240.299 534.35 241.745C535.498 243.171 537.083 243.884 539.103 243.884C541.678 243.884 544.312 243.082 547.005 241.477V247.983C544.47 249.508 541.43 250.271 537.885 250.271ZM536.726 222.049C535.597 222.049 534.667 222.653 533.934 223.861C533.201 225.049 532.775 226.901 532.656 229.416H540.677C540.638 227 540.271 225.168 539.578 223.92C538.885 222.672 537.934 222.049 536.726 222.049Z" fill="white"></path><path d="M570.147 249.677V229.951C570.147 227.554 569.86 225.742 569.286 224.514C568.711 223.286 567.781 222.672 566.493 222.672C564.79 222.672 563.542 223.524 562.75 225.227C561.958 226.911 561.562 229.763 561.562 233.783V249.677H553.66V216.582H559.928L560.879 220.831H561.384C562.097 219.306 563.117 218.117 564.443 217.266C565.77 216.394 567.325 215.959 569.108 215.959C572.118 215.959 574.366 216.988 575.851 219.048C577.356 221.108 578.109 224.118 578.109 228.079V249.677H570.147Z" fill="white"></path><path d="M595.993 243.587C597.102 243.587 598.3 243.309 599.588 242.755V248.934C598.3 249.825 596.369 250.271 593.795 250.271C590.923 250.271 588.794 249.419 587.407 247.716C586.021 245.993 585.328 243.418 585.328 239.992V222.851H582.119V219.316L586.249 216.464L588.269 209.453H593.319V216.582H599.32V222.851H593.319V240.259C593.319 242.478 594.21 243.587 595.993 243.587Z" fill="white"></path><path d="M643.406 219.613C643.406 224.227 642.238 227.772 639.901 230.248C637.584 232.704 634.227 233.932 629.83 233.932H627.81V249.677H619.729V206.244H630.751C639.188 206.244 643.406 210.7 643.406 219.613ZM627.81 226.921H629.355C631.335 226.921 632.81 226.376 633.781 225.287C634.751 224.197 635.237 222.415 635.237 219.939C635.237 217.662 634.791 215.978 633.9 214.889C633.009 213.78 631.632 213.225 629.77 213.225H627.81V226.921Z" fill="white"></path><path d="M656.329 249.677H648.427V203.452H656.329V249.677Z" fill="white"></path><path d="M679.204 249.677L677.629 245.161H677.451C676.283 247.102 675.074 248.439 673.827 249.172C672.579 249.904 671.004 250.271 669.103 250.271C666.667 250.271 664.746 249.36 663.34 247.538C661.954 245.716 661.26 243.181 661.26 239.933C661.26 236.447 662.211 233.862 664.112 232.179C666.033 230.476 668.895 229.535 672.698 229.357L677.095 229.178V226.802C677.095 223.712 675.758 222.167 673.084 222.167C671.104 222.167 668.826 222.94 666.251 224.485L663.518 219.018C666.806 216.939 670.381 215.899 674.243 215.899C677.748 215.899 680.412 216.909 682.234 218.929C684.076 220.93 684.997 223.772 684.997 227.455V249.677H679.204ZM672.341 244.092C673.787 244.092 674.936 243.448 675.787 242.161C676.659 240.853 677.095 239.121 677.095 236.962V234.169L674.659 234.288C672.856 234.387 671.529 234.902 670.678 235.833C669.846 236.764 669.43 238.15 669.43 239.992C669.43 242.725 670.4 244.092 672.341 244.092Z" fill="white"></path><path d="M702.881 243.587C703.99 243.587 705.188 243.309 706.475 242.755V248.934C705.188 249.825 703.257 250.271 700.682 250.271C697.811 250.271 695.682 249.419 694.295 247.716C692.909 245.993 692.216 243.418 692.216 239.992V222.851H689.007V219.316L693.137 216.464L695.157 209.453H700.207V216.582H706.208V222.851H700.207V240.259C700.207 242.478 701.098 243.587 702.881 243.587Z" fill="white"></path><path d="M725.815 222.851H720.349V249.677H712.447V222.851H708.614V218.9L712.447 216.523V214.028C712.447 210.344 713.209 207.611 714.734 205.828C716.259 204.026 718.715 203.125 722.102 203.125C724.24 203.125 726.231 203.57 728.073 204.462L725.993 210.492C725.003 210.017 723.993 209.779 722.963 209.779C722.052 209.779 721.389 210.136 720.973 210.849C720.557 211.562 720.349 212.661 720.349 214.146V216.582H725.815V222.851Z" fill="white"></path><path d="M753.8 233.07C753.8 238.497 752.651 242.725 750.353 245.755C748.056 248.766 744.907 250.271 740.906 250.271C738.371 250.271 736.133 249.578 734.192 248.191C732.252 246.805 730.756 244.815 729.707 242.22C728.657 239.606 728.132 236.556 728.132 233.07C728.132 227.703 729.271 223.514 731.549 220.504C733.826 217.474 736.985 215.959 741.025 215.959C744.927 215.959 748.026 217.503 750.324 220.593C752.641 223.663 753.8 227.822 753.8 233.07ZM736.213 233.07C736.213 236.516 736.589 239.121 737.342 240.883C738.094 242.646 739.302 243.527 740.966 243.527C744.135 243.527 745.719 240.041 745.719 233.07C745.719 229.604 745.333 227.02 744.56 225.316C743.808 223.593 742.61 222.732 740.966 222.732C739.302 222.732 738.094 223.593 737.342 225.316C736.589 227.02 736.213 229.604 736.213 233.07Z" fill="white"></path><path d="M773.466 215.959C774.436 215.959 775.387 216.107 776.318 216.404L775.397 224.069C774.842 223.871 774.12 223.772 773.228 223.772C771.307 223.772 769.832 224.534 768.802 226.059C767.772 227.564 767.257 229.763 767.257 232.654V249.677H759.355V216.582H765.861L766.752 221.752H767.019C767.891 219.672 768.842 218.187 769.871 217.295C770.901 216.404 772.099 215.959 773.466 215.959Z" fill="white"></path><path d="M812.71 249.677V229.951C812.71 225.099 811.511 222.672 809.115 222.672C807.372 222.672 806.125 223.544 805.372 225.287C804.619 227.01 804.243 229.782 804.243 233.605V249.677H796.281V229.951C796.281 225.099 795.063 222.672 792.627 222.672C790.924 222.672 789.686 223.534 788.914 225.257C788.142 226.98 787.755 229.822 787.755 233.783V249.677H779.853V216.582H786.121L787.072 220.831H787.577C788.369 219.147 789.449 217.919 790.815 217.147C792.202 216.355 793.677 215.959 795.242 215.959C799.282 215.959 801.975 217.87 803.322 221.692H803.619C805.303 217.87 808.006 215.959 811.729 215.959C814.661 215.959 816.879 216.988 818.384 219.048C819.909 221.108 820.671 224.118 820.671 228.079V249.677H812.71Z" fill="white"></path></svg> 