<?xml version="1.0" encoding="UTF-8"?>
<!DOCTYPE svg PUBLIC "-//W3C//DTD SVG 1.1//EN" "http://www.w3.org/Graphics/SVG/1.1/DTD/svg11.dtd">
<!-- Creator: CorelDRAW 2020 (64-Bit) -->
<svg xmlns="http://www.w3.org/2000/svg" xml:space="preserve" width="0.845354in" height="0.561205in" version="1.1" style="shape-rendering:geometricPrecision; text-rendering:geometricPrecision; image-rendering:optimizeQuality; fill-rule:evenodd; clip-rule:evenodd"
viewBox="0 0 6.28 4.17"
 xmlns:xlink="http://www.w3.org/1999/xlink"
 xmlns:xodm="http://www.corel.com/coreldraw/odm/2003">
 <defs>
  <style type="text/css">
   <![CDATA[
    .fil1 {fill:#B3B3B3}
    .fil2 {fill:#9F2B68;fill-rule:nonzero}
    .fil0 {fill:#B3B3B3;fill-rule:nonzero}
   ]]>
  </style>
 </defs>
 <g id="Layer_x0020_1">
  <metadata id="CorelCorpID_0Corel-Layer"/>
  <g id="_2492037052752">
   <path class="fil0" d="M3.38 0.2c-0,-0 -0,-0.01 -0,-0.01 -0,-0 -0,-0.01 -0,-0.01 -0,-0.01 -0,-0.01 -0.01,-0.02 -0,-0.01 -0,-0.02 -0,-0.03 0,-0.01 0,-0.01 0,-0.01 0,-0 0,-0 0,-0.01l0 -0.01 0.01 0c0,0 0.01,0 0.01,0 0,0 0.01,0 0.01,0 0.02,0 0.04,-0 0.06,-0 0.02,-0 0.04,-0 0.06,-0.01 0.02,-0 0.05,-0.01 0.08,-0.01 0,-0.01 0,-0.01 0.01,-0.01 0,-0 0,-0 0,-0.01l0.01 -0c0.01,-0 0.02,0 0.03,0 0,0 0.01,0.01 0.01,0.01 0.01,-0 0.03,-0 0.04,-0 0.01,-0 0.03,-0 0.04,-0.01 0.02,-0 0.04,-0.01 0.06,-0.01 0.02,-0 0.04,-0 0.06,-0 0.01,0 0.02,0 0.03,0 0.01,0 0.02,0 0.02,0l0.01 0.01c0,0 0,0.01 0.01,0.01 0,0 0.01,0.01 0.01,0.01 0.01,0.01 0.02,0.01 0.02,0.02 0.01,0.01 0.01,0.02 0.01,0.04l-0 0.01c-0,0 -0,0 -0.01,0.01l-0.01 0.01 -0.01 0c-0.01,0 -0.01,0 -0.01,0 -0,0 -0.01,0 -0.01,0 -0,0 -0,0 -0.01,0 -0,0 -0.01,0 -0.01,0 -0.01,-0 -0.01,-0 -0.01,-0 -0,0 -0.01,0 -0.01,0 -0.02,0 -0.03,0 -0.05,0 -0.02,0 -0.04,0 -0.05,0.01 -0.01,0 -0.02,0 -0.04,0 -0.01,0 -0.02,0 -0.03,0 -0.01,0.01 -0.01,0.03 -0.01,0.04 -0,0.01 -0.01,0.02 -0.01,0.03 -0,0.01 -0.01,0.02 -0.01,0.03 -0,0.01 -0.01,0.02 -0.01,0.04 -0.01,0.01 -0.01,0.02 -0.02,0.03 -0,0.01 -0.01,0.02 -0.01,0.03 -0.01,0.01 -0.01,0.02 -0.02,0.03 -0,0.01 -0.01,0.02 -0.01,0.03l-0 0.01c-0,0 -0.01,0.01 -0.01,0.01 -0,0 -0,0 -0,0.01 -0,0.01 -0,0.01 -0.01,0.02 -0,0 -0,0.01 -0,0.01 -0,0 -0,0.01 -0,0.01 -0,0.01 -0,0.01 -0,0.01 0,0 -0,0.01 -0,0.01 -0,0 -0,0.01 -0,0.01 -0,0 -0,0.01 -0,0.01 -0,0 -0,0.01 0,0.01 0,0 0,0 0,0.01 0,0 0,0 0,0.01 0,0 0,0 0,0 0,0 0,0 0,0 0,0 0.01,0.01 0.01,0.01l0.01 0.01c0,0.02 0,0.03 -0.01,0.04 -0.01,0.01 -0.03,0.02 -0.05,0.02l-0.01 -0c-0,-0 -0.01,-0.01 -0.01,-0.01 -0,-0 -0.01,-0 -0.01,-0.01 -0,-0 -0.01,-0 -0.01,-0.01 -0,-0 -0,-0 -0,-0 -0,-0 -0,-0 -0,-0 -0.01,-0 -0.01,-0 -0.01,-0.01l-0.01 -0c0,-0.01 0,-0.01 0,-0.01 -0,-0.01 -0.01,-0.01 -0.01,-0.02 -0,-0.01 -0,-0.01 -0.01,-0.02 -0,-0.01 -0,-0.01 -0,-0.02 -0,-0 -0,-0.01 -0.01,-0.01 -0,-0.04 0,-0.07 0.01,-0.09 0.01,-0.03 0.02,-0.05 0.03,-0.07 0.01,-0.01 0.01,-0.03 0.01,-0.04 0,-0.01 0.01,-0.03 0.01,-0.04l0.01 -0.01c0,-0 0.01,-0.01 0.01,-0.01 0,-0.01 0,-0.01 0,-0.02 0,-0.01 0.01,-0.01 0.01,-0.02 0,-0 0,-0.01 0.01,-0.01 0,-0 0,-0.01 0,-0.01 -0,0 -0.01,0 -0.01,0 -0,0 -0.01,0 -0.01,0 -0.01,0 -0.01,0 -0.02,0 -0,0 -0.01,-0 -0.01,-0 -0,0 -0.01,0 -0.01,0 -0,0 -0.01,0 -0.01,0l-0.01 0 -0.01 0c-0.01,0 -0.01,0 -0.02,0 -0.01,0 -0.01,0 -0.01,0 -0,0 -0,0 -0.01,0l-0.01 0 -0.01 0c-0,0 -0.01,-0 -0.01,-0 -0.01,-0 -0.01,-0 -0.02,-0.01l-0.01 -0.01c-0,-0.01 -0.01,-0.01 -0.01,-0.01l-0.01 -0 0 -0.01zm-0.73 0.42c-0,-0 -0.01,-0.01 -0.01,-0.02 -0,-0.01 -0.01,-0.01 -0.01,-0.01 -0,-0.01 -0,-0.02 -0,-0.03 -0,-0.01 -0,-0.02 -0.01,-0.03 -0,-0.01 -0,-0.02 -0,-0.03 -0,-0.01 -0,-0.02 0,-0.03 0,-0 0,-0.01 0.01,-0.01 0,-0 0,-0.01 0.01,-0.01 0,-0 0,-0.01 0.01,-0.01 0,-0 0,-0.01 0,-0.01 0,-0 0.01,-0 0.01,-0.01 0,-0 0,-0 0.01,-0 0,-0.01 0.01,-0.02 0.01,-0.03 0,-0.01 0.01,-0.02 0.01,-0.03 0,-0.01 0.01,-0.02 0.01,-0.03 0,-0.01 0.01,-0.02 0.01,-0.03 -0.01,-0.01 -0.02,-0.02 -0.02,-0.03 -0,-0.01 -0.01,-0.02 -0.01,-0.03 -0,-0.01 -0,-0.02 -0,-0.03 -0,-0.01 -0,-0.02 -0.01,-0.03 0.01,-0.01 0.01,-0.02 0.02,-0.02 0.01,-0.01 0.02,-0.01 0.03,-0.01 0.01,-0 0.02,-0.01 0.04,-0.01 0.01,-0 0.03,-0.01 0.04,-0.01 0.03,-0.01 0.05,-0.01 0.07,-0.02 0.02,-0 0.04,-0.01 0.06,-0.01 0.02,-0 0.04,-0.01 0.06,-0.01 0.02,-0 0.04,-0.01 0.07,-0.01 0,0 0,0 0,0 0,0 0,0 0.01,0 0,0 0,0.01 0.01,0.01 0,-0 -0,-0 -0,-0 -0,-0 -0,-0 -0,-0 0,0 0,0 0,0 0,0 0,0 0,0 0,0 0,0 0,-0 0,-0 0,-0 0,-0.01 0.01,0.01 0.01,0.02 0.02,0.03 0.01,0.01 0.02,0.01 0.03,0.02 0,0 0,0.01 0,0.01 -0,0 -0,0 -0,0.01 -0,0 -0,0 -0,0.01 0,0 0,0.01 0,0.01 -0.01,0.01 -0.02,0.03 -0.03,0.03 -0.01,0.01 -0.02,0.01 -0.03,0.02 -0.01,0 -0.02,0.01 -0.04,0.01 -0.01,0 -0.03,0 -0.04,0.01 -0.01,0 -0.03,0.01 -0.04,0.01 -0.01,0 -0.03,0.01 -0.04,0.02 -0,-0 -0.01,-0 -0.01,-0 -0,0 -0.01,0 -0.01,0 -0,0 -0.01,0 -0.01,0 -0,0 -0.01,0 -0.02,0 -0,0 -0.01,0.01 -0.01,0.01 -0.01,0 -0.01,0 -0.02,0 0,0.01 0,0.01 0,0.02 -0,0.01 0,0.01 0,0.01 0.02,0 0.05,0 0.07,-0 0.03,-0 0.05,-0 0.08,-0.01 0,0 0,0 -0,0.01 -0,0 -0,0 -0,0.01 0,0 0.01,0.01 0.01,0.01 0,0 0.01,0.01 0.01,0.01 0,0 0.01,0.01 0.01,0.01 0,0 0.01,0 0.02,0 0,0.01 0,0.01 0.01,0.02 0,0.01 0,0.01 -0,0.02 -0.01,0.01 -0.02,0.01 -0.03,0.02 -0.01,0.01 -0.02,0.01 -0.03,0.02 -0.01,0.01 -0.02,0.01 -0.04,0.01 -0.01,0 -0.03,0.01 -0.04,0 -0,0 -0,0 -0.01,0 -0,0 -0,-0 -0.01,-0 -0.01,0 -0.01,0 -0.02,0 -0.01,-0 -0.02,0 -0.02,0 -0.01,-0 -0.02,-0 -0.03,-0 -0.01,0 -0.02,-0 -0.03,-0 -0.01,0.01 -0.02,0.03 -0.03,0.04 -0.01,0.01 -0.02,0.03 -0.02,0.05 0.02,0 0.04,0 0.05,0 0.01,-0 0.03,-0 0.04,-0 0.01,-0 0.03,-0 0.04,-0 0.01,-0 0.03,-0 0.05,-0 0.01,-0.01 0.03,-0.01 0.05,-0.01 0.02,-0 0.03,-0.01 0.05,-0.01 0.01,0 0.01,0 0.01,0.01 0,0 0.01,0.01 0.01,0.01 0,0 0.01,0.01 0.01,0.01 0,0 0.01,0 0.01,0 0,0 0,0.01 0.01,0.01 0,0 0,0.01 0,0.01 0,0 0,0.01 0,0.01 0,0 0,0 0.01,0 -0.01,0.02 -0.02,0.04 -0.03,0.05 -0.01,0.01 -0.03,0.02 -0.04,0.03 -0.02,0.01 -0.03,0.01 -0.05,0.01 -0.02,0 -0.04,0.01 -0.06,0.01 -0.01,0 -0.01,0 -0.01,-0 -0,-0 -0.01,-0 -0.01,-0 -0.01,0 -0.03,0.01 -0.05,0.01 -0.02,0 -0.04,0 -0.06,0 -0.02,-0 -0.04,-0 -0.06,-0.01 -0.02,-0 -0.03,-0.01 -0.05,-0.03zm-0.94 -0.16c0,-0.01 0,-0.01 0,-0.02 0,-0 0,-0.01 0,-0.02 0.02,-0.03 0.03,-0.07 0.06,-0.1 0.02,-0.03 0.05,-0.06 0.07,-0.08 0,-0 0.01,-0.01 0.01,-0.01 0,-0 0.01,-0.01 0.01,-0.01 0,-0 0.01,-0.01 0.01,-0.01 0,-0 0.01,-0 0.01,-0.01 0.01,-0.02 0.03,-0.03 0.05,-0.04 0.02,-0.01 0.04,-0.02 0.06,-0.04 0.02,-0.01 0.04,-0.02 0.06,-0.04 0.02,-0.01 0.04,-0.03 0.05,-0.04 0.01,0 0.01,0 0.01,0 0,-0 0.01,-0 0.01,-0 0,0.01 0.01,0.02 0.02,0.02 0.01,0 0.02,0.01 0.02,0.01 0.01,0 0.02,0.01 0.02,0.01 0.01,0.01 0.01,0.01 0.02,0.02 -0,0 -0.01,0 -0.01,0 0,0 0,0.01 0,0.01 0,0 0,0.01 0,0.01 0,0 -0,0 -0.01,0 0,0 0,0.01 0.01,0.01 0,0 0.01,0 0.01,0.01 0,0 -0,0.01 -0,0.01 -0,0 -0,0 -0,0.01 -0.01,0.01 -0.03,0.02 -0.04,0.02 -0.02,0.01 -0.03,0.02 -0.05,0.02 -0.02,0.01 -0.03,0.02 -0.05,0.03 -0.02,0.01 -0.04,0.02 -0.05,0.03 -0.02,0.01 -0.03,0.03 -0.05,0.04 -0.02,0.02 -0.03,0.03 -0.05,0.05 -0.02,0.02 -0.03,0.03 -0.05,0.05 -0.01,0.02 -0.03,0.04 -0.04,0.05 0,0 0,0 0,0.01 0,0 0,0 0,0.01 0.02,0 0.04,0 0.06,-0 0.02,-0 0.03,0 0.05,0 0,-0 0,-0 0,-0.01 0,-0 0,-0 0,-0.01 0.04,-0 0.07,-0.01 0.1,-0.02 0.03,-0.01 0.06,-0.02 0.09,-0.02 -0.01,-0 -0.02,-0.01 -0.03,-0.01 -0,-0 -0,-0.01 0,-0.01 0,-0 0.01,-0 0.01,-0.01 -0.01,-0 -0.02,-0.01 -0.02,-0.02 -0.01,-0.01 -0.01,-0.02 -0.01,-0.03 0,-0 0.01,-0.01 0.01,-0.01 0,-0 -0,-0.01 -0.01,-0.01 -0,-0 -0,-0 -0,0 -0,0 -0,0 -0,0 -0,0 -0,0 -0,0 -0,0 -0,0 -0,0 0,-0.01 0,-0.01 0,-0.01 0,-0 0,-0.01 0,-0.01l0.07 -0.04c0.01,0.01 0.02,0.01 0.03,0.02 0.01,0.01 0.02,0.01 0.03,0.02 0.01,0.01 0.02,0.01 0.03,0.02 0.01,0.01 0.02,0.01 0.03,0.02 0.01,0 0.02,0.01 0.02,0.02 0.01,0.01 0.01,0.01 0.02,0.02 0.01,0.01 0.01,0.01 0.02,0.02 0.01,0.01 0.01,0.01 0.02,0.02 -0,0.01 -0,0.02 0,0.02 0,0.01 0,0.01 0,0.02 -0.01,0.02 -0.02,0.03 -0.04,0.05 -0.01,0.01 -0.03,0.02 -0.05,0.03 -0.02,0.01 -0.04,0.02 -0.06,0.02 -0.02,0.01 -0.04,0.01 -0.06,0.02 -0.02,0.01 -0.04,0.01 -0.06,0.02 -0.02,0.01 -0.04,0.01 -0.06,0.02 -0.01,0 -0.02,0 -0.02,0 -0.01,0 -0.01,0 -0.02,0 -0.01,0 -0.01,0 -0.02,0 -0.01,0 -0.01,0 -0.02,0 -0,-0 -0,0 -0.01,0 -0,0 -0,0 -0,0 -0.01,0 -0.02,0 -0.03,0 -0.01,0 -0.02,0 -0.02,0 -0.01,0 -0.01,0 -0.02,0 -0.01,0 -0.02,0 -0.02,0 -0.05,-0 -0.08,-0.02 -0.11,-0.05 -0.03,-0.03 -0.04,-0.07 -0.04,-0.13 0,-0 0,-0 -0,-0.01 -0,-0 -0,-0 -0,-0zm-0.65 -0.1c-0.01,0.01 -0.01,0.02 -0.02,0.03 -0.01,0.01 -0.01,0.02 -0.02,0.03 -0.01,0.01 -0.01,0.02 -0.02,0.03 -0.01,0.01 -0.01,0.02 -0.01,0.04 0.01,0.01 0.02,0.01 0.04,0.02 0.01,0 0.03,0 0.04,0 0.02,-0 0.03,-0 0.05,-0.01 0.02,-0 0.03,-0 0.04,-0 0,-0 0,-0.01 0.01,-0.01 0.02,-0 0.04,-0.01 0.06,-0.02 0.02,-0.01 0.04,-0.02 0.06,-0.03 0,-0.01 0.01,-0.01 0.01,-0.02 0,-0 0.01,-0.01 0.01,-0.02 -0,-0 -0,-0.01 -0.01,-0.01 -0,-0 -0,-0.01 -0,-0.01 -0.01,-0.02 -0.03,-0.04 -0.04,-0.06 -0.01,-0.02 -0.02,-0.04 -0.03,-0.06 -0,0 -0,0.01 -0.01,0.01 -0,0 -0.01,0 -0.01,-0 -0,0.01 -0,0.01 -0.01,0.01 -0,0 -0.01,0 -0.01,0 -0,0 -0.01,-0 -0.01,-0 -0,-0 -0.01,-0 -0.01,-0.01 -0.02,0.01 -0.04,0.03 -0.05,0.04 -0.02,0.01 -0.03,0.03 -0.05,0.05 -0,0 -0,0 -0,0 -0,-0 -0,-0 -0.01,0zm-0.01 0.29c-0.02,0 -0.04,0 -0.06,-0 -0.02,-0.01 -0.04,-0.01 -0.05,-0.02 -0.01,-0.01 -0.03,-0.02 -0.04,-0.04 -0.01,-0.02 -0.02,-0.03 -0.03,-0.05 -0,-0.04 -0,-0.07 0,-0.1 0.01,-0.03 0.02,-0.06 0.03,-0.08 0.01,-0.02 0.03,-0.05 0.05,-0.07 0.02,-0.02 0.04,-0.04 0.05,-0.06 0,0 0.01,0 0.01,0 0,-0 0,-0 0.01,-0.01 0,-0 0,-0.01 0.01,-0.01 0,-0 0.01,-0 0.01,-0.01 0,-0 0,-0.01 0.01,-0.01 0,-0 0.01,-0.01 0.01,-0.01 0,-0 0.01,-0.01 0.01,-0.01 0,-0 0.01,-0.01 0.01,-0.01 0.01,-0 0.01,-0 0.01,-0.01 0,-0 0.01,-0.01 0.01,-0.01 0,-0 0.01,-0.01 0.01,-0.01 0,-0 0.01,-0 0.01,-0.01l0 -0.01c0.01,-0.01 0.02,-0.01 0.03,-0.02 0.01,-0.01 0.01,-0.01 0.02,-0.02 0.01,-0 0.01,-0 0.01,-0 0,0 0.01,-0 0.02,-0 0,-0.01 0.01,-0.02 0.01,-0.02 0,-0 0.01,-0.01 0.02,-0.01 0.01,0 0.02,0.01 0.03,0.01 0.01,0 0.02,0 0.02,0.01 0,0.01 0,0.01 0.01,0.01 0,0 0.01,0.01 0.01,0.01 0,0 0.01,0.01 0.01,0.01 0,0 0.01,0.01 0.01,0.01 0,0 0,-0 0.01,-0 0,-0 0,-0 0.01,-0 0,0 0,0.01 0,0.01 0,0 0,0 0,0.01 0,0 0,0 0,0.01 0,0 0,0.01 0,0.01 -0,0.01 -0,0.01 -0.01,0.02 -0,0.01 -0.01,0.01 -0.01,0.01 0,0 0,0.01 0,0.01 0,0 0,0 0.01,0.01 0,0 -0,0.01 -0,0.01 0.01,0.02 0.03,0.05 0.04,0.08 0.01,0.03 0.03,0.05 0.04,0.08 -0,0.01 -0,0.01 0,0.02 0,0.01 0,0.01 0.01,0.02 0,0.01 0.01,0.01 0.01,0.02 0,0.01 0,0.01 0.01,0.02 0,0.01 0,0.02 0,0.03 -0,0.01 -0,0.02 -0.01,0.03 -0,0.01 -0.01,0.02 -0.01,0.03 -0.01,0.01 -0.01,0.01 -0.02,0.02 -0.01,0.01 -0.02,0.02 -0.03,0.03 -0.01,0.01 -0.02,0.01 -0.03,0.02 -0.01,0 -0.02,0.01 -0.02,0.01 -0.01,0 -0.02,0 -0.03,0.01 -0.01,0 -0.01,0.01 -0.02,0.01 -0.01,0 -0.02,0.01 -0.03,0.01 -0.01,0 -0.02,0.01 -0.03,0.01 -0.01,0 -0.02,0 -0.03,0 -0.02,0.01 -0.04,0.01 -0.06,0.01 -0.02,0 -0.04,0 -0.06,-0zm-0.05 0.85c-0,-0.01 -0,-0.03 -0,-0.05 0,-0.02 0,-0.03 0,-0.05 0,-0.01 -0,-0.03 -0,-0.05 -0,-0.02 -0,-0.03 -0,-0.05 -0,-0.01 -0,-0.03 -0,-0.04 0,-0.01 0,-0.02 0.01,-0.03 0,-0.01 0.01,-0.01 0.02,-0.02 0.01,-0 0.01,-0.01 0.02,-0.02 0.01,0 0.01,0 0.02,0.01 0.01,0 0.01,0.01 0.01,0.01 0,0 0.01,0.01 0.01,0.01 0,0 0,0.01 0,0.01 0.01,0.01 0.02,0.02 0.03,0.03 0.01,0.01 0.01,0.03 0.02,0.04 0,0.02 0.01,0.03 0.01,0.05 0,0.02 0,0.04 0,0.05 0,0.02 0,0.03 0,0.05 0,0.02 0,0.03 0.01,0.04 0.02,-0.03 0.04,-0.06 0.06,-0.09 0.02,-0.03 0.03,-0.05 0.05,-0.07 0.02,-0.02 0.03,-0.05 0.05,-0.07 0.02,-0.02 0.05,-0.05 0.08,-0.08 0.01,0 0.01,0 0.02,0 0,0 0.01,0 0.01,0 0,0 0.01,0 0.01,0 0,0 0.01,0 0.02,-0 0,0.01 0,0.01 0.01,0.01 0,0 0,0.01 0,0.01 0,0 0,0.01 0,0.01 0,0 0,0.01 0.01,0.02 0,0 0,0 0,0.01 -0,0 -0,0.01 -0,0.01 -0,0 -0,0 -0,0.01 0,0 0,0 0.01,0 -0,0.01 -0.01,0.02 -0.01,0.02 -0,0.01 -0.01,0.02 -0.01,0.03 -0.01,0.02 -0.03,0.04 -0.05,0.06 -0.02,0.02 -0.03,0.04 -0.05,0.06 -0.02,0.02 -0.03,0.04 -0.05,0.07 -0.02,0.02 -0.03,0.05 -0.04,0.07 -0,0 -0.01,0 -0.01,0 -0,0 -0,0 -0,0.01 -0,0 -0,0 -0,0.01 -0,0 -0,0 -0.01,0 -0,0.02 -0.01,0.03 -0.02,0.05 -0.01,0.01 -0.02,0.03 -0.03,0.04 0,0 0,0.01 0,0.01 0,0 -0,0.01 -0,0.01 -0,0 -0,0.01 -0,0.01 -0,0 -0,0.01 0,0.01 -0,0.01 -0.01,0.02 -0.02,0.03 -0.01,0.01 -0.02,0.01 -0.02,0.02 -0.01,0 -0.02,0.01 -0.03,0.01 -0.01,-0 -0.02,-0 -0.03,-0.01 -0,-0 -0.01,-0.01 -0.01,-0.01 -0,-0 -0.01,-0.01 -0.01,-0.01 -0,-0 -0.01,-0.01 -0.01,-0.01 -0,-0 -0.01,-0 -0.01,-0.01 0,-0.01 0,-0.01 0,-0.02 -0,-0.01 -0,-0.01 -0,-0.02 -0,-0 -0,-0.01 -0.01,-0.01 -0,-0 -0,-0 -0.01,-0 -0,-0.01 -0,-0.03 -0.01,-0.04 -0,-0.02 -0.01,-0.03 -0.01,-0.05 -0,-0.02 -0.01,-0.03 -0.01,-0.04 -0,-0.01 -0,-0.03 -0,-0.04 0,-0.01 -0,-0.01 -0,-0.02 -0,-0 -0,-0.01 -0.01,-0.02zm4.96 -1.28c-0.01,0.01 -0.01,0.02 -0.02,0.03 -0.01,0.01 -0.02,0.02 -0.02,0.03 -0.01,0.01 -0.02,0.02 -0.02,0.03 -0.01,0.01 -0.01,0.02 -0.01,0.04 0.02,-0 0.05,-0.01 0.07,-0.02 0.02,-0.01 0.05,-0.02 0.07,-0.03 -0,-0.02 -0.01,-0.04 -0.02,-0.05 -0.01,-0.01 -0.02,-0.02 -0.03,-0.02zm-0.26 0.36c-0,0 -0,-0 -0.01,-0.01 -0,-0 -0,-0.01 -0.01,-0.01l0.01 0c-0,-0.01 -0,-0.02 -0,-0.03 0,-0.01 0,-0.02 0.01,-0.03 0,-0.01 0,-0.02 0.01,-0.03 0,-0.01 0,-0.02 -0,-0.03 0,0 0,0 0.01,-0 0,-0 0,-0.01 0,-0.01 0,-0 0,-0.01 0,-0.01 -0,-0 -0,-0.01 -0,-0.01 0.01,-0.02 0.01,-0.03 0.02,-0.05 0,-0.02 0.01,-0.03 0.01,-0.05 0,-0.02 0.01,-0.03 0.01,-0.05 0,-0.02 0.01,-0.03 0.02,-0.05 0.01,-0 0.02,-0 0.02,0 0.01,0 0.01,0.01 0.02,0.01 0.02,-0.01 0.03,-0.03 0.04,-0.05 0.01,-0.02 0.03,-0.04 0.04,-0.05 0.01,-0.02 0.03,-0.03 0.04,-0.05 0.02,-0.01 0.04,-0.02 0.06,-0.02 0.01,0.01 0.03,0.02 0.04,0.03 0.02,0.01 0.03,0.02 0.04,0.04 0,0 0.01,0.01 0.01,0.01 0,0 0.01,0.01 0.01,0.01l0 0.01c0.01,0.01 0.01,0.01 0.02,0.02 0,0.01 0.01,0.02 0.01,0.03 0,0.01 0.01,0.02 0.01,0.03 0,0.01 0.01,0.02 0.01,0.03 -0,0 -0,0.01 -0,0.01 0,0 0,0 0,0.01 0,0 0,0.01 0,0.01 0,0 0,0.01 0,0.01 -0,0.03 -0.01,0.05 -0.03,0.07 -0.02,0.02 -0.04,0.03 -0.06,0.04 -0.02,0.01 -0.05,0.02 -0.07,0.03 -0.03,0.01 -0.05,0.02 -0.07,0.02 0,0 0,0 0,0 0,0 0,0 0,0 0.02,0.01 0.03,0.02 0.04,0.02 0.01,0.01 0.02,0.01 0.02,0.01 0.01,0 0.02,0.01 0.03,0.01 0.01,0 0.02,0.01 0.04,0.01 0.02,0 0.03,0.01 0.04,0.01 0.01,0 0.02,0 0.02,0.01 0.01,0 0.02,0 0.02,0 0.01,0 0.02,0 0.03,0 0.01,0.01 0.01,0.01 0.01,0.02 0,0.01 0.01,0.02 0.01,0.02 0,0.01 0,0.02 0,0.02 -0,0.01 -0,0.01 -0.01,0.02 0,0 0,0 0,0 0,-0 0,-0 0.01,0 -0,0 -0.01,0.01 -0.01,0.01 -0,0 -0.01,0.01 -0.01,0.01 -0,0 -0.01,0.01 -0.01,0.01 -0,0 -0.01,0.01 -0.01,0.01 -0.02,0.01 -0.04,0.01 -0.07,0 -0.03,-0.01 -0.07,-0.02 -0.11,-0.04 -0.02,-0.01 -0.04,-0.02 -0.06,-0.02 -0.01,-0.01 -0.03,-0.01 -0.04,-0.02 -0.01,-0.01 -0.02,-0.01 -0.03,-0.02 -0.01,-0.01 -0.02,-0.02 -0.03,-0.03 -0,0 -0,0 -0,0 -0,0 -0,0 -0,0 -0,0.02 -0.01,0.04 -0.01,0.05 -0.01,0.01 -0.01,0.03 -0.02,0.04 -0.01,-0 -0.01,-0 -0.02,0 -0,0 -0.01,0.01 -0.01,0.01 -0.01,0 -0.01,0 -0.01,-0 -0,-0 -0,-0 -0.01,-0 -0,-0 -0,-0 -0.01,-0 -0,-0 -0.01,-0 -0.01,-0 -0,-0 -0,-0.01 -0,-0.01 -0,-0 -0.01,-0.01 -0.01,-0.01 0,-0 0,-0.01 0,-0.01 -0,-0 -0,-0.01 -0,-0.01 -0,-0 -0,-0.01 -0,-0.01 -0,-0 -0,-0.01 0,-0.01zm-0.73 0.04c-0,-0 -0.01,-0.01 -0.01,-0.02 -0,-0.01 -0.01,-0.01 -0.01,-0.01 -0,-0.01 -0,-0.02 -0,-0.03 -0,-0.01 -0,-0.02 -0.01,-0.03 -0,-0.01 -0,-0.02 -0,-0.03 -0,-0.01 -0,-0.02 0,-0.03 0,-0 0,-0.01 0.01,-0.01 0,-0 0,-0.01 0.01,-0.01 0,-0 0,-0.01 0.01,-0.01 0,-0 0,-0.01 0,-0.01 0,-0 0.01,-0 0.01,-0.01 0,-0 0,-0 0.01,-0 0,-0.01 0.01,-0.02 0.01,-0.03 0,-0.01 0.01,-0.02 0.01,-0.03 0,-0.01 0.01,-0.02 0.01,-0.03 0,-0.01 0.01,-0.02 0.01,-0.03 -0.01,-0.01 -0.02,-0.02 -0.02,-0.03 -0,-0.01 -0.01,-0.02 -0.01,-0.03 -0,-0.01 -0,-0.02 -0,-0.03 -0,-0.01 -0,-0.02 -0.01,-0.03 0.01,-0.01 0.01,-0.02 0.02,-0.02 0.01,-0.01 0.02,-0.01 0.03,-0.01 0.01,-0 0.02,-0.01 0.04,-0.01 0.01,-0 0.03,-0.01 0.04,-0.01 0.03,-0.01 0.05,-0.01 0.07,-0.02 0.02,-0 0.04,-0.01 0.06,-0.01 0.02,-0 0.04,-0.01 0.06,-0.01 0.02,-0 0.04,-0.01 0.07,-0.01 0,0 0,0 0,0 0,0 0,0 0.01,0 0,0 0,0.01 0.01,0.01 0,-0 -0,-0 -0,-0 -0,-0 -0,-0 -0,-0 0,0 0,0 0,0 0,0 0,0 0,0 0,0 0,0 0,-0 0,-0 0,-0 0,-0.01 0.01,0.01 0.01,0.02 0.02,0.03 0.01,0.01 0.02,0.01 0.03,0.02 0,0 0,0.01 0,0.01 -0,0 -0,0 -0,0.01 -0,0 -0,0 -0,0.01 0,0 0,0.01 0,0.01 -0.01,0.01 -0.02,0.03 -0.03,0.03 -0.01,0.01 -0.02,0.01 -0.03,0.02 -0.01,0 -0.02,0.01 -0.04,0.01 -0.01,0 -0.03,0 -0.04,0.01 -0.01,0 -0.03,0.01 -0.04,0.01 -0.01,0 -0.03,0.01 -0.04,0.02 -0,-0 -0.01,-0 -0.01,-0 -0,0 -0.01,0 -0.01,0 -0,0 -0.01,0 -0.01,0 -0,0 -0.01,0 -0.02,0 -0,0 -0.01,0.01 -0.01,0.01 -0.01,0 -0.01,0 -0.02,0 0,0.01 0,0.01 0,0.02 -0,0.01 0,0.01 0,0.01 0.02,0 0.05,0 0.07,-0 0.03,-0 0.05,-0 0.08,-0.01 0,0 0,0 -0,0.01 -0,0 -0,0 -0,0.01 0,0 0.01,0.01 0.01,0.01 0,0 0.01,0.01 0.01,0.01 0,0 0.01,0.01 0.01,0.01 0,0 0.01,0 0.02,0 0,0.01 0,0.01 0.01,0.02 0,0.01 0,0.01 -0,0.02 -0.01,0.01 -0.02,0.01 -0.03,0.02 -0.01,0.01 -0.02,0.01 -0.03,0.02 -0.01,0.01 -0.02,0.01 -0.04,0.01 -0.01,0 -0.03,0.01 -0.04,0 -0,0 -0,0 -0.01,0 -0,0 -0,-0 -0.01,-0 -0.01,0 -0.01,0 -0.02,0 -0.01,-0 -0.02,0 -0.02,0 -0.01,-0 -0.02,-0 -0.03,-0 -0.01,0 -0.02,-0 -0.03,-0 -0.01,0.01 -0.02,0.03 -0.03,0.04 -0.01,0.01 -0.02,0.03 -0.02,0.05 0.02,0 0.04,0 0.05,0 0.01,-0 0.03,-0 0.04,-0 0.01,-0 0.03,-0 0.04,-0 0.01,-0 0.03,-0 0.05,-0 0.01,-0.01 0.03,-0.01 0.05,-0.01 0.02,-0 0.03,-0.01 0.05,-0.01 0.01,0 0.01,0 0.01,0.01 0,0 0.01,0.01 0.01,0.01 0,0 0.01,0.01 0.01,0.01 0,0 0.01,0 0.01,0 0,0 0,0.01 0.01,0.01 0,0 0,0.01 0,0.01 0,0 0,0.01 0,0.01 0,0 0,0 0.01,0 -0.01,0.02 -0.02,0.04 -0.03,0.05 -0.01,0.01 -0.03,0.02 -0.04,0.03 -0.02,0.01 -0.03,0.01 -0.05,0.01 -0.02,0 -0.04,0.01 -0.06,0.01 -0.01,0 -0.01,0 -0.01,-0 -0,-0 -0.01,-0 -0.01,-0 -0.01,0 -0.03,0.01 -0.05,0.01 -0.02,0 -0.04,0 -0.06,0 -0.02,-0 -0.04,-0 -0.06,-0.01 -0.02,-0 -0.03,-0.01 -0.05,-0.03zm-0.85 0c-0,0 -0,0 -0,-0 -0,-0 -0,-0 -0,-0 0,-0 0,-0 0,-0 0,-0 0,-0 0.01,0 -0.01,-0.01 -0.01,-0.02 -0.01,-0.02 -0,-0.01 -0.01,-0.02 -0.01,-0.03 0,-0 0,-0 0,-0.01 0,-0 0,-0.01 0,-0.01 0,-0 0,-0 0,-0.01 0,-0 0,-0 0.01,0 -0,-0.01 -0,-0.01 0,-0.01 0,-0 0,-0.01 0,-0.01 0,-0 0,-0.01 0,-0.01 0,-0 -0,-0.01 -0,-0.01 0.01,-0.01 0.02,-0.03 0.02,-0.04 0,-0.02 0,-0.03 0.01,-0.04 0,-0 0.01,-0.01 0.01,-0.02 0,-0.01 0.01,-0.02 0.01,-0.02 0,-0.01 0,-0.02 0,-0.02 0,-0.01 -0,-0.01 -0,-0.02 0,-0 0,-0 0,-0 0,-0 0,-0 0.01,0 0,-0.02 0.01,-0.04 0.01,-0.07 0,-0.03 0,-0.05 0.01,-0.07 0,-0.02 0.01,-0.04 0.02,-0.06 0.01,-0.02 0.02,-0.03 0.04,-0.04 0,0.01 0.01,0.02 0.01,0.03 0.01,0.01 0.01,0.02 0.02,0.03 0.01,0.01 0.01,0.02 0.02,0.03 0.01,0.01 0.01,0.02 0.02,0.03 -0,0.01 -0,0.03 -0,0.04 -0,0.02 -0,0.03 -0.01,0.05 -0,0.02 -0.01,0.03 -0.01,0.05 -0,0.02 -0.01,0.03 -0.01,0.04 0,0 0,0 0.01,0.01 0,0 0,0 0,0.01 0.02,-0 0.03,-0.01 0.05,-0.01 0.02,-0 0.03,-0.01 0.05,-0.01 0.02,-0 0.03,-0.01 0.05,-0.01 0.02,-0 0.03,-0.01 0.04,-0.02 0,-0.03 0.01,-0.05 0.01,-0.07 0,-0.02 0.01,-0.05 0,-0.07 0,-0 0.01,-0.01 0.01,-0.01 0,-0 0.01,-0.01 0.01,-0.01 -0,-0.01 -0,-0.02 -0,-0.04 0,-0.01 0,-0.03 0.01,-0.04 0,-0.01 0.01,-0.02 0.02,-0.03 0.01,-0.01 0.02,-0.01 0.03,-0.02 0.01,0.01 0.01,0.02 0.02,0.03 0.01,0.01 0.01,0.02 0.02,0.04 0.01,0.01 0.01,0.02 0.02,0.03 0.01,0.01 0.01,0.02 0.02,0.03 0,0.02 0,0.04 0,0.06 0,0.02 0,0.04 0,0.06 -0,0.02 -0.01,0.05 -0.02,0.07 -0.01,0.02 -0.01,0.05 -0.01,0.07 -0,0 -0.01,0.01 -0.01,0.02 -0,0.01 -0.01,0.01 -0.01,0.02 -0,0.01 -0.01,0.01 -0.01,0.02 -0,0.01 -0.01,0.01 -0.01,0.02 0,0.01 0,0.01 0,0.02 -0,0.01 0,0.01 0.01,0.02 0,0.02 -0,0.03 -0.01,0.04 -0.01,0.01 -0.01,0.02 -0.02,0.03 -0.01,0.01 -0.02,0.01 -0.03,0.02 -0.01,0 -0.02,0.01 -0.03,0.01 -0.01,-0 -0.01,-0.01 -0.01,-0.01 -0,-0 -0.01,-0.01 -0.02,-0.01l0 -0.01c-0.01,-0.01 -0.02,-0.02 -0.03,-0.03 -0.01,-0.01 -0.01,-0.03 -0.01,-0.04 0,-0 0,-0 0,-0.01 0,-0.01 0,-0.01 0,-0.02 0,-0.01 0,-0.01 0,-0.02 0,-0.01 0,-0.01 0,-0.01 -0.01,0 -0.03,0 -0.05,0.01 -0.02,0.01 -0.03,0.01 -0.05,0.02 -0.02,0.01 -0.03,0.01 -0.04,0.02 -0.01,0.01 -0.02,0.01 -0.03,0.02 0,0 -0,0.01 -0,0.01 -0,0.01 -0.01,0.02 -0.01,0.02 -0,0.01 -0.01,0.02 -0.01,0.02 -0,0.01 -0.01,0.01 -0.01,0.01 0,0 0,0 0,0.01 0,0 0,0 0,0.01 -0.01,0 -0.02,0.01 -0.02,0.01 -0.01,0 -0.01,0.01 -0.02,0.01 -0.01,0 -0.02,0 -0.02,0 -0.01,-0 -0.02,-0 -0.03,-0.01 0,-0 -0,-0.01 -0,-0.01 -0,-0 -0.01,-0.01 -0.01,-0.01 -0,-0 -0.01,-0 -0.01,-0.01 -0,-0 -0,-0 -0,-0zm0.87 1.1c-0.01,0 -0.01,0.01 -0.01,0.02 -0,0.01 -0,0.01 -0,0.02 -0,0.01 -0,0.01 -0.01,0.02 -0,0 -0.01,0.01 -0.02,0.01 -0,0 -0,0 -0,0 0,0 0,0 0,0.01 -0.01,-0 -0.01,-0 -0.02,0 -0,0 -0.01,0 -0.01,0 -0.01,-0 -0.02,-0.01 -0.03,-0.02 -0.01,-0.01 -0.02,-0.02 -0.02,-0.03 -0.01,-0.01 -0.01,-0.02 -0.02,-0.04 -0,-0.01 -0.01,-0.02 -0.01,-0.03 0,-0 0,-0 0,-0 0,0 0,0 0.01,0 -0,-0.01 -0,-0.01 -0.01,-0.02 -0,-0.01 -0,-0.01 -0.01,-0.02 0.02,-0.03 0.03,-0.07 0.05,-0.1 0.02,-0.04 0.03,-0.07 0.05,-0.11 0.02,-0.04 0.04,-0.07 0.05,-0.11 0.02,-0.04 0.03,-0.07 0.05,-0.11 0.01,0.01 0.03,0.01 0.04,0.02 0.01,0.01 0.03,0.02 0.04,0.02 0.01,0.01 0.02,0.02 0.03,0.03 0.01,0.01 0.01,0.03 0.02,0.04 -0,0 -0,0 -0,0 -0,-0 -0,-0 -0,0 0,0 0,0.01 0,0.01 0,0 0,0 -0,0 -0,0 -0,0 -0,0.01 0,0 0,0 0,0.01 -0,-0 -0,-0 -0.01,0 -0,0 -0,0 -0.01,0 0,0.01 0,0.01 0,0.02 -0,0 -0,0.01 -0,0.01 -0,0 -0,0.01 -0.01,0.01 -0,0 -0,0.01 0,0.02 -0,0 -0,0 -0,0 -0,0 -0,0 -0,0 -0,0 -0,0 -0,0 -0,0 -0,0 -0,0 0,0.01 0,0.03 0,0.04 -0,0.01 -0,0.03 -0,0.04 -0,0.01 -0,0.03 0,0.04 0,0.02 0,0.03 0.01,0.05 0.02,-0.01 0.04,-0.03 0.05,-0.05 0.01,-0.02 0.02,-0.04 0.03,-0.07 0.01,-0.03 0.01,-0.05 0.02,-0.08 0,-0.03 0.01,-0.06 0.01,-0.09 0.01,-0.01 0.01,-0.01 0.01,-0.02 0,-0.01 0.01,-0.02 0.01,-0.03 0,-0.01 0,-0.02 0.01,-0.03 0,-0.01 0.01,-0.02 0.01,-0.02 0.01,0 0.02,0 0.02,0.01 0.01,0 0.01,0.01 0.02,0.01 0.01,0.01 0.01,0.01 0.02,0.02 0.01,0 0.01,0.01 0.02,0.01 0.01,0.01 0.01,0.02 0.02,0.03 0.01,0.01 0.01,0.02 0.01,0.03 -0,0.01 -0.01,0.01 -0.01,0.02 -0,0.01 -0,0.01 -0.01,0.02 -0,0.01 -0,0.01 -0.01,0.02 -0,0.01 -0.01,0.01 -0.01,0.01 -0,0.02 -0,0.03 -0.01,0.04 -0,0.01 -0.01,0.03 -0.01,0.04 -0,0.01 -0,0.03 -0.01,0.04 -0,0.01 -0,0.03 -0,0.05 -0,0.02 -0.01,0.03 -0.02,0.05 -0.01,0.02 -0.01,0.03 -0.01,0.04 -0.01,0.01 -0.02,0.02 -0.02,0.03 -0.01,0.01 -0.01,0.02 -0.02,0.03 -0,0 -0,0 -0,0 -0,-0 -0,-0 -0.01,-0 0,0 -0,0.01 -0,0.01 -0,0 -0,0.01 0,0.01 -0.01,0 -0.02,0.01 -0.02,0.02 -0.01,0.01 -0.01,0.01 -0.02,0.02 -0.01,0.01 -0.02,0.01 -0.03,0.01 -0.01,0 -0.02,-0 -0.04,-0.01 -0.03,-0.02 -0.05,-0.04 -0.07,-0.07 -0.02,-0.02 -0.04,-0.05 -0.05,-0.09 -0.01,0 -0.01,0.01 -0.01,0.01 -0,0.01 -0,0.01 -0.01,0.02 -0,0.01 -0,0.01 -0.01,0.02 -0,0 -0.01,0.01 -0.01,0.01 -0,0 -0,0.01 -0.01,0.01 -0,0 -0.01,0.01 -0.01,0.01 -0,0 -0,0.01 -0.01,0.01 -0,0 -0,0.01 0,0.02zm-0.84 -0.21c-0.01,0.01 -0.01,0.02 -0.02,0.03 -0.01,0.01 -0.01,0.02 -0.02,0.03 -0.01,0.01 -0.01,0.02 -0.02,0.03 -0.01,0.01 -0.01,0.02 -0.01,0.04 0.01,0.01 0.02,0.01 0.04,0.02 0.01,0 0.03,0 0.04,0 0.02,-0 0.03,-0 0.05,-0.01 0.02,-0 0.03,-0 0.04,-0 0,-0 0,-0.01 0.01,-0.01 0.02,-0 0.04,-0.01 0.06,-0.02 0.02,-0.01 0.04,-0.02 0.06,-0.03 0,-0.01 0.01,-0.01 0.01,-0.02 0,-0 0.01,-0.01 0.01,-0.02 -0,-0 -0,-0.01 -0.01,-0.01 -0,-0 -0,-0.01 -0,-0.01 -0.01,-0.02 -0.03,-0.04 -0.04,-0.06 -0.01,-0.02 -0.02,-0.04 -0.03,-0.06 -0,0 -0,0.01 -0.01,0.01 -0,0 -0.01,0 -0.01,-0 -0,0.01 -0,0.01 -0.01,0.01 -0,0 -0.01,0 -0.01,0 -0,0 -0.01,-0 -0.01,-0 -0,-0 -0.01,-0 -0.01,-0.01 -0.02,0.01 -0.04,0.03 -0.05,0.04 -0.02,0.01 -0.03,0.03 -0.05,0.05 -0,0 -0,0 -0,0 -0,-0 -0,-0 -0.01,0zm-0.01 0.29c-0.02,0 -0.04,0 -0.06,-0 -0.02,-0.01 -0.04,-0.01 -0.05,-0.02 -0.01,-0.01 -0.03,-0.02 -0.04,-0.04 -0.01,-0.02 -0.02,-0.03 -0.03,-0.05 -0,-0.04 -0,-0.07 0,-0.1 0.01,-0.03 0.02,-0.06 0.03,-0.08 0.01,-0.02 0.03,-0.05 0.05,-0.07 0.02,-0.02 0.04,-0.04 0.05,-0.06 0,0 0.01,0 0.01,0 0,-0 0,-0 0.01,-0.01 0,-0 0,-0.01 0.01,-0.01 0,-0 0.01,-0 0.01,-0.01 0,-0 0,-0.01 0.01,-0.01 0,-0 0.01,-0.01 0.01,-0.01 0,-0 0.01,-0.01 0.01,-0.01 0,-0 0.01,-0.01 0.01,-0.01 0.01,-0 0.01,-0 0.01,-0.01 0,-0 0.01,-0.01 0.01,-0.01 0,-0 0.01,-0.01 0.01,-0.01 0,-0 0.01,-0 0.01,-0.01l0 -0.01c0.01,-0.01 0.02,-0.01 0.03,-0.02 0.01,-0.01 0.01,-0.01 0.02,-0.02 0.01,-0 0.01,-0 0.01,-0 0,0 0.01,-0 0.02,-0 0,-0.01 0.01,-0.02 0.01,-0.02 0,-0 0.01,-0.01 0.02,-0.01 0.01,0 0.02,0.01 0.03,0.01 0.01,0 0.02,0 0.02,0.01 0,0.01 0,0.01 0.01,0.01 0,0 0.01,0.01 0.01,0.01 0,0 0.01,0.01 0.01,0.01 0,0 0.01,0.01 0.01,0.01 0,0 0,-0 0.01,-0 0,-0 0,-0 0.01,-0 0,0 0,0.01 0,0.01 0,0 0,0.01 0,0.01 0,0 0,0 0,0.01 0,0 0,0.01 0,0.01 -0,0.01 -0,0.01 -0.01,0.02 -0,0.01 -0.01,0.01 -0.01,0.01 0,0 0,0.01 0,0.01 0,0 0,0 0.01,0.01 0,0 -0,0.01 -0,0.01 0.01,0.02 0.03,0.05 0.04,0.08 0.01,0.03 0.03,0.05 0.04,0.08 -0,0.01 -0,0.01 0,0.02 0,0.01 0,0.01 0.01,0.02 0,0.01 0.01,0.01 0.01,0.02 0,0.01 0,0.01 0.01,0.02 0,0.01 0,0.02 0,0.03 -0,0.01 -0,0.02 -0.01,0.03 -0,0.01 -0.01,0.02 -0.01,0.03 -0.01,0.01 -0.01,0.01 -0.02,0.02 -0.01,0.01 -0.02,0.02 -0.03,0.03 -0.01,0.01 -0.02,0.01 -0.03,0.02 -0.01,0 -0.02,0.01 -0.02,0.01 -0.01,0 -0.02,0 -0.03,0.01 -0.01,0 -0.01,0.01 -0.02,0.01 -0.01,0 -0.02,0.01 -0.03,0.01 -0.01,0 -0.02,0.01 -0.03,0.01 -0.01,0 -0.02,0 -0.03,0 -0.02,0.01 -0.04,0.01 -0.06,0.01 -0.02,0 -0.04,0 -0.06,-0zm-0.74 0.02c-0.05,-0.01 -0.07,-0.03 -0.08,-0.07l0 -0.01c0,-0.01 0,-0.01 0.01,-0.02 0,-0.01 0.01,-0.02 0.01,-0.03 0,-0.01 0.01,-0.02 0.02,-0.02 0,-0 0,-0.01 0.01,-0.02 0,-0.01 0.01,-0.02 0.02,-0.04 0.01,-0.02 0.02,-0.03 0.02,-0.04 0,-0.01 0.01,-0.02 0.01,-0.02 -0.01,-0.01 -0.01,-0.02 -0.02,-0.03 -0.01,-0.02 -0.02,-0.03 -0.02,-0.05 -0.01,-0.01 -0.01,-0.03 -0.01,-0.04 -0,-0.01 -0,-0.03 -0.01,-0.04 -0,-0.01 -0,-0.01 -0,-0.02 -0,-0.01 -0,-0.01 -0,-0.02 -0,-0 -0,-0.01 -0.01,-0.01l0 -0.01c0,-0 0,-0.01 0,-0.02 -0,-0.01 -0,-0.01 -0.01,-0.02 -0,-0.01 -0,-0.01 -0,-0.02 -0,-0.01 -0,-0.02 -0,-0.02 0,-0.01 0,-0.01 0.01,-0.02 0,-0.01 0.01,-0.01 0.02,-0.02l0.01 -0.01 0.01 0c0.01,0 0.01,0.01 0.02,0.01 0.01,0 0.01,0.01 0.02,0.01 0.01,0 0.01,0.01 0.02,0.01 0.01,0 0.01,0.01 0.02,0.01l0.01 0.01 -0 0.01c0,0 0,0 0,0 0,0 0,0 0,0l0.01 0 0 0.01 0 0.01c0,0 0,0.01 0,0.01 0,0 0,0 0,0.01l0 0.01c0,0.01 0,0.02 0,0.03 0,0.01 0,0.01 0.01,0.02 0,0.01 0,0.01 0.01,0.02 0,0.01 0,0.02 0,0.02 0,-0 0.01,-0 0.01,-0.01 0,-0 0,-0 0,-0 0,-0 0,-0 0,-0l0.06 -0.07 -0 -0.01 0.02 -0.02c0.01,-0 0.01,-0.01 0.02,-0.01 0,-0 0.01,-0.01 0.01,-0.02l0 -0.01c0.02,-0.03 0.05,-0.05 0.09,-0.06l0.01 -0 0 0.01c0,0.01 0.01,0.01 0.02,0.02 0.01,0.01 0.02,0.01 0.02,0.02l0.01 0.01c0,0.01 0,0.01 0,0.01 0,0 -0,0.01 -0,0.01l0 0.01c-0.01,0.02 -0.01,0.03 -0.02,0.03 -0.01,0.01 -0.01,0.01 -0.02,0.02 -0.01,0 -0.01,0.01 -0.02,0.01 -0,0 -0.01,0.01 -0.01,0.02l-0.01 0.01c-0.01,0.01 -0.02,0.02 -0.03,0.03l-0 0.01 -0.01 0c-0,0 -0,0 -0,0 -0,0 -0.01,0.01 -0.01,0.02 -0,0.01 -0.01,0.01 -0.01,0.01 -0,0 -0,0 -0,0 -0,0 -0,0 -0,0.01 -0,0 -0,0 -0,0.01l-0 0.01c-0,0 -0.01,0.01 -0.01,0.01 -0,0 -0,0.01 -0.01,0.01 -0,0 -0,0.01 -0.01,0.01 -0,0 -0.01,0.01 -0.01,0.01l0 0.01 -0.01 0.01c-0,0 -0.01,0.01 -0.01,0.01 -0,0.01 -0.01,0.01 -0.01,0.02 -0,0.01 -0.01,0.01 -0.01,0.02 -0,0.01 -0.01,0.01 -0.01,0.02 -0,0.01 -0.01,0.02 -0.01,0.02 -0,0.01 -0.01,0.01 -0.01,0.02 -0.01,0.03 -0.02,0.05 -0.04,0.08 -0,0.01 -0,0.01 -0.01,0.02 -0,0.01 -0.01,0.01 -0.01,0.02 -0,0 -0,0 -0,0.01 -0,0 -0,0 -0,0.01l-0 0.01c-0,0.01 -0.01,0.01 -0.01,0.01 -0,0 -0.01,0.01 -0.01,0.01 -0,0 -0,0 -0,0 -0,0 -0,0 -0,0l-0.01 0zm-0.63 -0.45c-0.01,0.01 -0.01,0.02 -0.02,0.03 -0.01,0.01 -0.02,0.02 -0.02,0.03 -0.01,0.01 -0.02,0.02 -0.02,0.03 -0.01,0.01 -0.01,0.02 -0.01,0.04 0.02,-0 0.05,-0.01 0.07,-0.02 0.02,-0.01 0.05,-0.02 0.07,-0.03 -0,-0.02 -0.01,-0.04 -0.02,-0.05 -0.01,-0.01 -0.02,-0.02 -0.03,-0.02zm-0.26 0.36c-0,0 -0,-0 -0.01,-0.01 -0,-0 -0,-0.01 -0.01,-0.01l0.01 0c-0,-0.01 -0,-0.02 -0,-0.03 0,-0.01 0,-0.02 0.01,-0.03 0,-0.01 0,-0.02 0.01,-0.03 0,-0.01 0,-0.02 -0,-0.03 0,0 0,0 0.01,-0 0,-0 0,-0.01 0,-0.01 0,-0 0,-0.01 0,-0.01 -0,-0 -0,-0.01 -0,-0.01 0.01,-0.02 0.01,-0.03 0.02,-0.05 0,-0.02 0.01,-0.03 0.01,-0.05 0,-0.02 0.01,-0.03 0.01,-0.05 0,-0.02 0.01,-0.03 0.02,-0.05 0.01,-0 0.02,-0 0.02,0 0.01,0 0.01,0.01 0.02,0.01 0.02,-0.01 0.03,-0.03 0.04,-0.05 0.01,-0.02 0.03,-0.04 0.04,-0.05 0.01,-0.02 0.03,-0.03 0.04,-0.05 0.02,-0.01 0.04,-0.02 0.06,-0.02 0.01,0.01 0.03,0.02 0.04,0.03 0.02,0.01 0.03,0.02 0.04,0.04 0,0 0.01,0.01 0.01,0.01 0,0 0.01,0.01 0.01,0.01l0 0.01c0.01,0.01 0.01,0.01 0.02,0.02 0,0.01 0.01,0.02 0.01,0.03 0,0.01 0.01,0.02 0.01,0.03 0,0.01 0.01,0.02 0.01,0.03 -0,0 -0,0.01 -0,0.01 0,0 0,0 0,0.01 0,0 0,0.01 0,0.01 0,0 0,0.01 0,0.01 -0,0.03 -0.01,0.05 -0.03,0.07 -0.02,0.02 -0.04,0.03 -0.06,0.04 -0.02,0.01 -0.05,0.02 -0.07,0.03 -0.03,0.01 -0.05,0.02 -0.07,0.02 0,0 0,0 0,0 0,0 0,0 0,0 0.02,0.01 0.03,0.02 0.04,0.02 0.01,0.01 0.02,0.01 0.02,0.01 0.01,0 0.02,0.01 0.03,0.01 0.01,0 0.02,0.01 0.04,0.01 0.02,0 0.03,0.01 0.04,0.01 0.01,0 0.02,0 0.02,0.01 0.01,0 0.02,0 0.02,0 0.01,0 0.02,0 0.03,0 0.01,0.01 0.01,0.01 0.01,0.02 0,0.01 0.01,0.02 0.01,0.02 0,0.01 0,0.02 0,0.02 -0,0.01 -0,0.01 -0.01,0.02 0,0 0,0 0,0 0,-0 0,-0 0.01,0 -0,0 -0.01,0.01 -0.01,0.01 -0,0 -0.01,0.01 -0.01,0.01 -0,0 -0.01,0.01 -0.01,0.01 -0,0 -0.01,0 -0.01,0.01 -0.02,0.01 -0.04,0.01 -0.07,0 -0.03,-0.01 -0.07,-0.02 -0.11,-0.04 -0.02,-0.01 -0.04,-0.02 -0.06,-0.02 -0.01,-0.01 -0.03,-0.01 -0.04,-0.02 -0.01,-0.01 -0.02,-0.01 -0.03,-0.02 -0.01,-0.01 -0.02,-0.02 -0.03,-0.03 -0,0 -0,0 -0,0 -0,0 -0,0 -0,0 -0,0.02 -0.01,0.04 -0.01,0.05 -0.01,0.01 -0.01,0.03 -0.02,0.04 -0.01,-0 -0.01,-0 -0.02,0 -0,0 -0.01,0.01 -0.01,0.01 -0.01,0 -0.01,0 -0.01,-0 -0,-0 -0,-0 -0.01,-0 -0,-0 -0,-0 -0.01,-0 -0,-0 -0.01,-0 -0.01,-0 -0,-0 -0,-0.01 -0,-0.01 -0,-0 -0.01,-0.01 -0.01,-0.01 0,-0 0,-0.01 0,-0.01 -0,-0 -0,-0.01 -0,-0.01 -0,-0 -0,-0.01 -0,-0.01 -0,-0 -0,-0.01 0,-0.01zm-0.77 0.04c-0,-0 -0.01,-0.01 -0.01,-0.02 -0,-0.01 -0.01,-0.01 -0.01,-0.01 -0,-0.01 -0,-0.02 -0,-0.03 -0,-0.01 -0,-0.02 -0.01,-0.03 -0,-0.01 -0,-0.02 -0,-0.03 -0,-0.01 -0,-0.02 0,-0.03 0,-0 0,-0.01 0.01,-0.01 0,-0 0,-0.01 0.01,-0.01 0,-0 0,-0.01 0.01,-0.01 0,-0 0,-0.01 0,-0.01 0,-0 0.01,-0 0.01,-0.01 0,-0 0,-0 0.01,-0 0,-0.01 0.01,-0.02 0.01,-0.03 0,-0.01 0.01,-0.02 0.01,-0.03 0,-0.01 0.01,-0.02 0.01,-0.03 0,-0.01 0.01,-0.02 0.01,-0.03 -0.01,-0.01 -0.02,-0.02 -0.02,-0.03 -0,-0.01 -0.01,-0.02 -0.01,-0.03 -0,-0.01 -0,-0.02 -0,-0.03 -0,-0.01 -0,-0.02 -0.01,-0.03 0.01,-0.01 0.01,-0.02 0.02,-0.02 0.01,-0.01 0.02,-0.01 0.03,-0.01 0.01,-0 0.02,-0.01 0.04,-0.01 0.01,-0 0.03,-0.01 0.04,-0.01 0.03,-0.01 0.05,-0.01 0.07,-0.02 0.02,-0 0.04,-0.01 0.06,-0.01 0.02,-0 0.04,-0.01 0.06,-0.01 0.02,-0 0.04,-0.01 0.07,-0.01 0,0 0,0 0,0 0,0 0,0 0.01,0 0,0 0,0.01 0.01,0.01 0,-0 -0,-0 -0,-0 -0,-0 -0,-0 -0,-0 0,0 0,0 0,0 0,0 0,0 0,0 0,0 0,0 0,-0 0,-0 0,-0 0,-0.01 0.01,0.01 0.01,0.02 0.02,0.03 0.01,0.01 0.02,0.01 0.03,0.02 0,0 0,0.01 0,0.01 -0,0 -0,0 -0,0.01 -0,0 -0,0 -0,0.01 0,0 0,0.01 0,0.01 -0.01,0.01 -0.02,0.03 -0.03,0.03 -0.01,0.01 -0.02,0.01 -0.03,0.02 -0.01,0 -0.02,0.01 -0.04,0.01 -0.01,0 -0.03,0 -0.04,0.01 -0.01,0 -0.03,0.01 -0.04,0.01 -0.01,0 -0.03,0.01 -0.04,0.02 -0,-0 -0.01,-0 -0.01,-0 -0,0 -0.01,0 -0.01,0 -0,0 -0.01,0 -0.01,0 -0,0 -0.01,0 -0.02,0 -0,0 -0.01,0.01 -0.01,0.01 -0.01,0 -0.01,0 -0.02,0 0,0.01 0,0.01 0,0.02 -0,0.01 0,0.01 0,0.01 0.02,0 0.05,0 0.07,-0 0.03,-0 0.05,-0 0.08,-0.01 0,0 0,0 -0,0.01 -0,0 -0,0 -0,0.01 0,0 0.01,0.01 0.01,0.01 0,0 0.01,0.01 0.01,0.01 0,0 0.01,0.01 0.01,0.01 0,0 0.01,0 0.02,0 0,0.01 0,0.01 0.01,0.02 0,0.01 0,0.01 -0,0.02 -0.01,0.01 -0.02,0.01 -0.03,0.02 -0.01,0.01 -0.02,0.01 -0.03,0.02 -0.01,0.01 -0.02,0.01 -0.04,0.01 -0.01,0 -0.03,0.01 -0.04,0 -0,0 -0,0 -0.01,0 -0,0 -0,-0 -0.01,-0 -0.01,0 -0.01,0 -0.02,0 -0.01,-0 -0.02,0 -0.02,0 -0.01,-0 -0.02,-0 -0.03,-0 -0.01,0 -0.02,-0 -0.03,-0 -0.01,0.01 -0.02,0.03 -0.03,0.04 -0.01,0.01 -0.02,0.03 -0.02,0.05 0.02,0 0.04,0 0.05,0 0.01,-0 0.03,-0 0.04,-0 0.01,-0 0.03,-0 0.04,-0 0.01,-0 0.03,-0 0.05,-0 0.01,-0.01 0.03,-0.01 0.05,-0.01 0.02,-0 0.03,-0.01 0.05,-0.01 0.01,0 0.01,0 0.01,0.01 0,0 0.01,0.01 0.01,0.01 0,0 0.01,0.01 0.01,0.01 0,0 0.01,0 0.01,0 0,0 0,0.01 0.01,0.01 0,0 0,0.01 0,0.01 0,0 0,0.01 0,0.01 0,0 0,0 0.01,0 -0.01,0.02 -0.02,0.04 -0.03,0.05 -0.01,0.01 -0.03,0.02 -0.04,0.03 -0.02,0.01 -0.03,0.01 -0.05,0.01 -0.02,0 -0.04,0.01 -0.06,0.01 -0.01,0 -0.01,0 -0.01,-0 -0,-0 -0.01,-0 -0.01,-0 -0.01,0 -0.03,0.01 -0.05,0.01 -0.02,0 -0.04,0 -0.06,0 -0.02,-0 -0.04,-0 -0.06,-0.01 -0.02,-0 -0.03,-0.01 -0.05,-0.03zm0.92 1.19c-0.01,-0 -0.01,-0.01 -0.02,-0.02 -0,-0.01 -0.01,-0.02 -0.01,-0.02 -0,-0.01 -0.01,-0.02 -0.01,-0.03 -0,-0.01 -0,-0.02 -0.01,-0.03 0,-0.01 0,-0.01 0,-0.02 0,-0 0.01,-0.01 0.01,-0.01 0.01,-0 0.02,-0 0.03,-0 0.01,-0 0.02,-0 0.03,-0 0.01,-0 0.02,-0 0.03,-0 0.01,-0 0.02,-0 0.03,-0 0.01,-0.02 0.02,-0.03 0.02,-0.05 0.01,-0.02 0.01,-0.03 0.02,-0.04 0,-0.01 0.01,-0.03 0.01,-0.04 0,-0.01 0.01,-0.02 0.01,-0.03 0,-0.01 0.01,-0.02 0.01,-0.03 0,-0.01 0.01,-0.02 0.01,-0.03 0.01,-0.02 0.01,-0.04 0.02,-0.05 0.01,-0.02 0.01,-0.03 0.01,-0.06 -0.02,0 -0.04,0.01 -0.05,0.01 -0.01,0 -0.02,0.01 -0.03,0.01 -0.01,-0 -0.02,-0 -0.02,-0.01 -0.01,-0 -0.01,-0.01 -0.01,-0.01 -0,-0.01 -0.01,-0.01 -0.01,-0.02 -0,-0.01 -0.01,-0.01 -0.01,-0.02 0,-0 0,-0.01 0,-0.02 -0,-0.01 -0,-0.02 -0.01,-0.02 0,-0 0.01,-0 0.01,-0.01 0,-0.01 0,-0.01 0,-0.01 0.01,-0 0.02,-0 0.03,-0.01 0.01,-0 0.02,-0 0.03,-0 0.01,-0 0.02,-0 0.03,-0 0.01,-0 0.02,-0 0.02,-0.01 0.03,-0 0.06,-0 0.09,-0 0.03,-0 0.06,-0 0.08,-0 0.01,0 0.02,0 0.03,0 0.01,0 0.02,0 0.04,0 0.01,0 0.02,0.01 0.03,0.01 0.01,0.01 0.02,0.01 0.02,0.03 0.01,0 0.01,0 0.02,0.01 0,0 0.01,0.01 0.01,0.01 0,0 0,0.01 0,0.01 -0,0.01 -0,0.01 -0,0.02 -0.01,0.01 -0.02,0.01 -0.03,0.02 -0.01,0 -0.03,0.01 -0.04,0.01 -0.02,0 -0.03,0 -0.05,0 -0.02,0 -0.03,0 -0.05,0 -0,0.02 -0.01,0.04 -0.01,0.06 -0.01,0.02 -0.01,0.05 -0.02,0.07 -0.01,0.02 -0.01,0.04 -0.02,0.06 -0,0.02 -0.01,0.03 -0.01,0.03 -0.01,0.01 -0.01,0.02 -0.01,0.03 -0,0.01 -0.01,0.02 -0.01,0.02 -0,0.01 -0.01,0.01 -0.01,0.02 -0,0.01 -0.01,0.02 -0.01,0.02l0.05 0c0,0.01 0,0.01 0.01,0.01 0,0 0.01,0 0.01,0.01 0,0 0.01,0 0.01,0.01 0,0 0.01,0.01 0.01,0.01 0.01,0 0.02,0.01 0.02,0.01 0,0.01 0,0.01 0,0.02 -0,0.01 -0,0.01 -0.01,0.02 -0,0.01 -0.01,0.01 -0.01,0.02 -0,-0 -0.01,0 -0.01,0 -0,0 -0.01,0.01 -0.01,0.01 -0.02,-0 -0.03,-0 -0.04,-0 -0.01,0 -0.03,0 -0.04,0 -0,0 -0,0 -0,0 0,0 0,0 -0,0.01 -0.02,-0.01 -0.03,-0.01 -0.05,-0.01 -0.02,0 -0.03,0 -0.05,0.01 -0.02,0 -0.04,0.01 -0.05,0.01 -0.02,0 -0.04,0.01 -0.06,0.01zm-0.86 -0.04c-0,0 -0,0 -0,-0 -0,-0 -0,-0 -0,-0 0,-0 0,-0 0,-0 0,-0 0,-0 0.01,0 -0.01,-0.01 -0.01,-0.02 -0.01,-0.02 -0,-0.01 -0.01,-0.02 -0.01,-0.03 0,-0 0,-0 0,-0.01 0,-0 0,-0.01 0,-0.01 0,-0 0,-0 0,-0.01 0,-0 0,-0 0.01,0 -0,-0.01 -0,-0.01 0,-0.01 0,-0 0,-0.01 0,-0.01 0,-0 0,-0.01 0,-0.01 0,-0 -0,-0.01 -0,-0.01 0.01,-0.01 0.02,-0.03 0.02,-0.04 0,-0.02 0,-0.03 0.01,-0.04 0,-0 0.01,-0.01 0.01,-0.02 0,-0.01 0.01,-0.02 0.01,-0.02 0,-0.01 0,-0.02 0,-0.02 0,-0.01 -0,-0.01 -0,-0.02 0,-0 0,-0 0,-0 0,-0 0,-0 0.01,0 0,-0.02 0.01,-0.04 0.01,-0.07 0,-0.03 0,-0.05 0.01,-0.07 0,-0.02 0.01,-0.04 0.02,-0.06 0.01,-0.02 0.02,-0.03 0.04,-0.04 0,0.01 0.01,0.02 0.01,0.03 0.01,0.01 0.01,0.02 0.02,0.03 0.01,0.01 0.01,0.02 0.02,0.03 0.01,0.01 0.01,0.02 0.02,0.03 -0,0.01 -0,0.03 -0,0.04 -0,0.02 -0,0.03 -0.01,0.05 -0,0.02 -0.01,0.03 -0.01,0.05 -0,0.02 -0.01,0.03 -0.01,0.04 0,0 0,0 0.01,0.01 0,0 0,0 0,0.01 0.02,-0 0.03,-0.01 0.05,-0.01 0.02,-0 0.03,-0.01 0.05,-0.01 0.02,-0 0.03,-0.01 0.05,-0.01 0.02,-0 0.03,-0.01 0.04,-0.02 0,-0.03 0.01,-0.05 0.01,-0.07 0,-0.02 0.01,-0.05 0,-0.07 0,-0 0.01,-0.01 0.01,-0.01 0,-0 0.01,-0.01 0.01,-0.01 -0,-0.01 -0,-0.02 -0,-0.04 0,-0.01 0,-0.03 0.01,-0.04 0,-0.01 0.01,-0.02 0.02,-0.03 0.01,-0.01 0.02,-0.01 0.03,-0.02 0.01,0.01 0.01,0.02 0.02,0.03 0.01,0.01 0.01,0.02 0.02,0.04 0.01,0.01 0.01,0.02 0.02,0.03 0.01,0.01 0.01,0.02 0.02,0.03 0,0.02 0,0.04 0,0.06 0,0.02 0,0.04 0,0.06 -0,0.02 -0.01,0.05 -0.02,0.07 -0.01,0.02 -0.01,0.05 -0.01,0.07 -0,0 -0.01,0.01 -0.01,0.02 -0,0.01 -0.01,0.01 -0.01,0.02 -0,0.01 -0.01,0.01 -0.01,0.02 -0,0.01 -0.01,0.01 -0.01,0.02 0,0.01 0,0.01 0,0.02 -0,0.01 0,0.01 0.01,0.02 0,0.02 -0,0.03 -0.01,0.04 -0.01,0.01 -0.01,0.02 -0.02,0.03 -0.01,0.01 -0.02,0.01 -0.03,0.02 -0.01,0 -0.02,0.01 -0.03,0.01 -0.01,-0 -0.01,-0.01 -0.01,-0.01 -0,-0 -0.01,-0.01 -0.02,-0.01l0 -0.01c-0.01,-0.01 -0.02,-0.02 -0.03,-0.03 -0.01,-0.01 -0.01,-0.03 -0.01,-0.04 0,-0 0,-0 0,-0.01 0,-0.01 0,-0.01 0,-0.02 0,-0.01 0,-0.01 0,-0.02 0,-0.01 0,-0.01 0,-0.01 -0.01,0 -0.03,0 -0.05,0.01 -0.02,0.01 -0.03,0.01 -0.05,0.02 -0.02,0.01 -0.03,0.01 -0.04,0.02 -0.01,0.01 -0.02,0.01 -0.03,0.02 0,0 -0,0.01 -0,0.01 -0,0.01 -0.01,0.02 -0.01,0.02 -0,0.01 -0.01,0.02 -0.01,0.02 -0,0.01 -0.01,0.01 -0.01,0.01 0,0 0,0 0,0.01 0,0 0,0 0,0.01 -0.01,0 -0.02,0.01 -0.02,0.01 -0.01,0 -0.01,0.01 -0.02,0.01 -0.01,0 -0.02,0 -0.02,0 -0.01,-0 -0.02,-0 -0.03,-0.01 0,-0 -0,-0.01 -0,-0.01 -0,-0 -0.01,-0.01 -0.01,-0.01 -0,-0 -0.01,-0 -0.01,-0.01 -0,-0 -0,-0 -0,-0zm-0.73 -0.04c-0.02,-0.01 -0.03,-0.03 -0.04,-0.04 -0.01,-0.02 -0.02,-0.04 -0.02,-0.06 -0.01,-0.02 -0.01,-0.04 -0.01,-0.06 -0,-0.02 -0,-0.04 -0,-0.06 0,-0.01 0.01,-0.03 0.02,-0.04 0.01,-0.01 0.01,-0.02 0.02,-0.03 0.01,-0.01 0.02,-0.02 0.03,-0.03 0.01,-0.01 0.02,-0.02 0.03,-0.03 0,0 0.01,0 0.01,0 0,-0.01 0.01,-0.01 0.01,-0.02 0,-0 0.01,-0.01 0.01,-0.01 0,-0 0.01,-0.01 0.01,-0.01 0,-0 0.01,-0.01 0.01,-0.01 0.01,-0 0.02,-0.01 0.04,-0.01 0.01,-0.01 0.02,-0.01 0.03,-0.02 0.01,-0.01 0.02,-0.01 0.03,-0.02 0.01,-0.01 0.02,-0.01 0.03,-0.01 0,-0.01 0.01,-0.01 0.02,-0.01 0.01,-0 0.01,-0.01 0.02,-0.01 0.01,-0 0.01,-0.01 0.02,-0.01 0.01,-0 0.01,-0.01 0.02,-0.02 0,0 0.01,0.01 0.01,0 0.01,-0 0.01,-0 0.02,-0 0,-0 0.01,0 0.01,0 0,0 0,0 0.01,0.01 0,0 0,0 0,0 0,0 0,-0 0,-0 0,0 0.01,0 0,0.01 -0,0 -0,0.01 -0,0.01 0.01,-0 0.01,-0 0.01,0 0,0 0.01,0 0.02,0.01 0,0 0,0 0,0.01 -0,0 -0,0 -0,0.01 0.02,0.01 0.03,0.01 0.04,0.03 0.01,0.01 0.01,0.03 0,0.04 -0,0.01 -0.01,0.03 -0.02,0.04 -0.01,0.01 -0.02,0.02 -0.04,0.02 -0.02,0 -0.03,0.01 -0.05,0.01 -0.01,0 -0.03,0.01 -0.04,0.01 -0.01,0.01 -0.02,0.01 -0.04,0.02 -0.01,0.01 -0.02,0.02 -0.03,0.02 -0.01,0 -0.03,0.01 -0.04,0.02 -0.01,0.01 -0.02,0.02 -0.03,0.02 -0.01,0.01 -0.02,0.02 -0.03,0.03 -0.01,0.01 -0.02,0.02 -0.03,0.03 0,0.01 -0,0.02 -0,0.02 -0,0 -0.01,0.01 -0.01,0.01 0,0.01 0,0.02 0.01,0.03 0,0.01 0.01,0.01 0.01,0.02 0.04,0.01 0.09,0.02 0.13,0.02 0.05,0 0.09,0 0.14,0.01 0,0.01 0.01,0.01 0.02,0.02 0.01,0.01 0.01,0.01 0.02,0.02 0.01,0.01 0.01,0.01 0.01,0.02 0,0.01 0,0.02 0,0.03 -0.01,0.01 -0.02,0.02 -0.03,0.03 -0.01,0.01 -0.02,0.02 -0.03,0.02 -0,0 -0.01,0 -0.02,0 -0.01,-0 -0.01,-0 -0.02,-0 -0.01,0 -0.01,0 -0.02,0 -0.01,0 -0.01,0 -0.02,0.01 -0.03,-0 -0.07,-0.01 -0.1,-0.01 -0.03,-0.01 -0.07,-0.02 -0.1,-0.03 -0.01,-0.01 -0.01,-0.01 -0.02,-0.02 -0.01,-0.01 -0.01,-0.01 -0.03,-0.01zm4.66 -1.11c-0,-0 -0.01,-0.01 -0.01,-0.02 -0,-0.01 -0.01,-0.01 -0.01,-0.01 -0,-0.01 -0,-0.02 -0,-0.03 -0,-0.01 -0,-0.02 -0.01,-0.03 -0,-0.01 -0,-0.02 -0,-0.03 -0,-0.01 -0,-0.02 0,-0.03 0,-0 0,-0.01 0.01,-0.01 0,-0 0,-0.01 0.01,-0.01 0,-0 0,-0.01 0.01,-0.01 0,-0 0,-0.01 0,-0.01 0,-0 0.01,-0 0.01,-0.01 0,-0 0,-0 0.01,-0 0,-0.01 0.01,-0.02 0.01,-0.03 0,-0.01 0.01,-0.02 0.01,-0.03 0,-0.01 0.01,-0.02 0.01,-0.03 0,-0.01 0.01,-0.02 0.01,-0.03 -0.01,-0.01 -0.02,-0.02 -0.02,-0.03 -0,-0.01 -0.01,-0.02 -0.01,-0.03 -0,-0.01 -0,-0.02 -0,-0.03 -0,-0.01 -0,-0.02 -0.01,-0.03 0.01,-0.01 0.01,-0.02 0.02,-0.02 0.01,-0.01 0.02,-0.01 0.03,-0.01 0.01,-0 0.02,-0.01 0.04,-0.01 0.01,-0 0.03,-0.01 0.04,-0.01 0.03,-0.01 0.05,-0.01 0.07,-0.02 0.02,-0 0.04,-0.01 0.06,-0.01 0.02,-0 0.04,-0.01 0.06,-0.01 0.02,-0 0.04,-0.01 0.07,-0.01 0,0 0,0 0,0 0,0 0,0 0.01,0 0,0 0,0.01 0.01,0.01 0,-0 -0,-0 -0,-0 -0,-0 -0,-0 -0,-0 0,0 0,0 0,0 0,0 0,0 0,0 0,0 0,0 0,-0 0,-0 0,-0 0,-0.01 0.01,0.01 0.01,0.02 0.02,0.03 0.01,0.01 0.02,0.01 0.03,0.02 0,0 0,0.01 0,0.01 -0,0 -0,0 -0,0.01 -0,0 -0,0 -0,0.01 0,0 0,0.01 0,0.01 -0.01,0.01 -0.02,0.03 -0.03,0.03 -0.01,0.01 -0.02,0.01 -0.03,0.02 -0.01,0 -0.02,0.01 -0.04,0.01 -0.01,0 -0.03,0 -0.04,0.01 -0.01,0 -0.03,0.01 -0.04,0.01 -0.01,0 -0.03,0.01 -0.04,0.02 -0,-0 -0.01,-0 -0.01,-0 -0,0 -0.01,0 -0.01,0 -0,0 -0.01,0 -0.01,0 -0,0 -0.01,0 -0.02,0 -0,0 -0.01,0.01 -0.01,0.01 -0.01,0 -0.01,0 -0.02,0 0,0.01 0,0.01 0,0.02 -0,0.01 0,0.01 0,0.01 0.02,0 0.05,0 0.07,-0 0.03,-0 0.05,-0 0.08,-0.01 0,0 0,0 -0,0.01 -0,0 -0,0 -0,0.01 0,0 0.01,0.01 0.01,0.01 0,0 0.01,0.01 0.01,0.01 0,0 0.01,0.01 0.01,0.01 0,0 0.01,0 0.02,0 0,0.01 0,0.01 0.01,0.02 0,0.01 0,0.01 -0,0.02 -0.01,0.01 -0.02,0.01 -0.03,0.02 -0.01,0.01 -0.02,0.01 -0.03,0.02 -0.01,0.01 -0.02,0.01 -0.04,0.01 -0.01,0 -0.03,0.01 -0.04,0 -0,0 -0,0 -0.01,0 -0,0 -0,-0 -0.01,-0 -0.01,0 -0.01,0 -0.02,0 -0.01,-0 -0.02,0 -0.02,0 -0.01,-0 -0.02,-0 -0.03,-0 -0.01,0 -0.02,-0 -0.03,-0 -0.01,0.01 -0.02,0.03 -0.03,0.04 -0.01,0.01 -0.02,0.03 -0.02,0.05 0.02,0 0.04,0 0.05,0 0.01,-0 0.03,-0 0.04,-0 0.01,-0 0.03,-0 0.04,-0 0.01,-0 0.03,-0 0.05,-0 0.01,-0.01 0.03,-0.01 0.05,-0.01 0.02,-0 0.03,-0.01 0.05,-0.01 0.01,0 0.01,0 0.01,0.01 0,0 0.01,0.01 0.01,0.01 0,0 0.01,0.01 0.01,0.01 0,0 0.01,0 0.01,0 0,0 0,0.01 0.01,0.01 0,0 0,0.01 0,0.01 0,0 0,0.01 0,0.01 0,0 0,0 0.01,0 -0.01,0.02 -0.02,0.04 -0.03,0.05 -0.01,0.01 -0.03,0.02 -0.04,0.03 -0.02,0.01 -0.03,0.01 -0.05,0.01 -0.02,0 -0.04,0.01 -0.06,0.01 -0.01,0 -0.01,0 -0.01,-0 -0,-0 -0.01,-0 -0.01,-0 -0.01,0 -0.03,0.01 -0.05,0.01 -0.02,0 -0.04,0 -0.06,0 -0.02,-0 -0.04,-0 -0.06,-0.01 -0.02,-0 -0.03,-0.01 -0.05,-0.03zm0.01 0.82c0,-0.01 0,-0.01 0,-0.02 0,-0 -0,-0.01 -0.01,-0.02 0,-0.01 0,-0.02 0.01,-0.02 0,-0 0,-0.01 0,-0.02 0,-0.01 0.01,-0.03 0.02,-0.03 0.01,-0.01 0.02,-0.02 0.03,-0.02 0.01,-0.01 0.02,-0.01 0.04,-0.02 0.01,-0 0.02,-0.01 0.04,-0.01 0,-0 -0,-0 -0,-0 -0,0 -0,-0 -0,-0 0.03,-0.01 0.06,-0.01 0.09,-0.02 0.03,-0.01 0.06,-0.02 0.09,-0.03 0.03,-0.01 0.06,-0.01 0.09,-0.01 0.03,-0 0.06,0 0.1,0.01 0,0.01 0.01,0.01 0.01,0.02 0,0.01 0.01,0.01 0.01,0.02 0,0.01 0.01,0.01 0.01,0.02 0,0.01 0,0.01 0.01,0.02 0.01,0.01 0.01,0.01 0.02,0.02 0,0.01 0,0.02 0,0.03 -0.01,0 -0.01,0.01 -0.02,0.01 -0.01,0 -0.01,0.01 -0.02,0.01 -0.02,-0.01 -0.05,-0.01 -0.07,-0.01 -0.02,0 -0.04,0 -0.06,0.01 -0.01,-0.01 -0.01,-0.01 -0.02,-0.01 -0.01,0 -0.02,0 -0.02,0 -0.01,0 -0.02,0 -0.03,0.01 -0.01,0 -0.02,0 -0.02,0 -0.01,0.01 -0.01,0.01 -0.02,0.01 -0.01,0 -0.02,0 -0.03,0 -0,0 0,0 0,0.01 0,0 0,0 0,0.01 0,0 0.01,0.01 0.01,0.01 0.01,0 0.01,0 0.02,0.01 0.01,0 0.01,0 0.02,0.01 0.01,0 0.01,0.01 0.01,0.01 0.01,0 0.02,0 0.02,0.01 0.01,0 0.01,0.01 0.02,0.02 0,0.01 0.01,0.01 0.01,0.02 0,0.01 0,0.01 0,0.02 0,0.01 0,0.01 0.01,0.01 0,-0 0.01,0 0.01,0 0,0.01 0.01,0.02 0.01,0.02 0.01,0.01 0.01,0.02 0.02,0.03 0,0.02 0,0.03 0,0.04 0,0.01 -0,0.02 -0.01,0.04 -0.01,0.02 -0.02,0.04 -0.04,0.06 -0.02,0.02 -0.04,0.03 -0.06,0.05 -0.02,0.01 -0.04,0.03 -0.07,0.04 -0.02,0.01 -0.05,0.02 -0.07,0.03 -0,-0 -0,-0 -0.01,0 -0,0 -0,-0 -0,-0 -0,0 -0.01,0.01 -0.02,0.01 -0.01,0 -0.01,0 -0.02,0 -0.01,-0 -0.01,-0 -0.02,-0 -0.01,-0 -0.01,-0 -0.02,0 -0,-0 -0.01,-0.01 -0.01,-0.01 -0,-0 -0.01,-0.01 -0.01,-0.02 -0,-0 -0,-0 -0,-0.01 0,-0 -0,-0 -0,-0 0,-0 0,-0 0,-0 0,-0 0,-0 0,-0 0,-0 0,-0 0,-0 -0,-0 -0,-0 -0,-0 -0,-0 -0,-0 -0,-0 -0,-0 -0,-0 -0,-0 0,-0 0,-0.01 0,-0.02 -0,-0.01 -0,-0.01 -0,-0.02 -0,-0.01 0,-0.01 0,-0.02 0,-0.01 0.01,-0.01 0.01,-0.02 0.02,0 0.04,0 0.06,-0 0.02,-0 0.04,-0.01 0.05,-0.02 0.02,-0.01 0.03,-0.02 0.05,-0.02 0.02,-0.01 0.03,-0.02 0.05,-0.02 0,-0.01 0,-0.01 0.01,-0.01 0,-0 0.01,-0.01 0.01,-0.01 0,-0 0.01,-0.01 0.01,-0.01 0,-0 0.01,-0.01 0.01,-0.01 0,-0 0,-0 0,-0 -0,-0 -0,-0 -0,-0 -0,-0 -0,-0 -0,-0 -0,-0 -0,-0 -0,-0 -0,-0 -0,-0 -0,-0 -0,-0 -0,-0 -0,-0 -0.01,-0.01 -0.03,-0.01 -0.04,-0.02 -0.02,-0 -0.03,-0.01 -0.04,-0.02 -0.01,0 -0.01,0.01 -0.02,0 -0.01,-0 -0.01,-0 -0.02,-0.01 -0.02,-0 -0.04,-0 -0.06,-0.01 -0.02,-0 -0.04,-0.01 -0.06,-0.02 -0,-0 -0,-0.01 -0,-0.01 -0,-0 -0.01,-0 -0.01,-0 -0,-0.01 -0.01,-0.01 -0.01,-0.01 -0,-0 -0.01,-0.01 -0.01,-0.02zm-0.77 0.33c-0,-0 -0.01,-0.01 -0.01,-0.02 -0,-0.01 -0.01,-0.01 -0.01,-0.01 -0,-0.01 -0,-0.02 -0,-0.03 -0,-0.01 -0,-0.02 -0.01,-0.03 -0,-0.01 -0,-0.02 -0,-0.03 -0,-0.01 -0,-0.02 0,-0.03 0,-0 0,-0.01 0.01,-0.01 0,-0 0,-0.01 0.01,-0.01 0,-0 0,-0.01 0.01,-0.01 0,-0 0,-0.01 0,-0.01 0,-0 0.01,-0 0.01,-0.01 0,-0 0,-0 0.01,-0 0,-0.01 0.01,-0.02 0.01,-0.03 0,-0.01 0.01,-0.02 0.01,-0.03 0,-0.01 0.01,-0.02 0.01,-0.03 0,-0.01 0.01,-0.02 0.01,-0.03 -0.01,-0.01 -0.02,-0.02 -0.02,-0.03 -0,-0.01 -0.01,-0.02 -0.01,-0.03 -0,-0.01 -0,-0.02 -0,-0.03 -0,-0.01 -0,-0.02 -0.01,-0.03 0.01,-0.01 0.01,-0.02 0.02,-0.02 0.01,-0.01 0.02,-0.01 0.03,-0.01 0.01,-0 0.02,-0.01 0.04,-0.01 0.01,-0 0.03,-0.01 0.04,-0.01 0.03,-0.01 0.05,-0.01 0.07,-0.02 0.02,-0 0.04,-0.01 0.06,-0.01 0.02,-0 0.04,-0.01 0.06,-0.01 0.02,-0 0.04,-0.01 0.07,-0.01 0,0 0,0 0,0 0,0 0,0 0.01,0 0,0 0,0.01 0.01,0.01 0,-0 -0,-0 -0,-0 -0,-0 -0,-0 -0,-0 0,0 0,0 0,0 0,0 0,0 0,0 0,0 0,0 0,-0 0,-0 0,-0 0,-0.01 0.01,0.01 0.01,0.02 0.02,0.03 0.01,0.01 0.02,0.01 0.03,0.02 0,0 0,0.01 0,0.01 -0,0 -0,0 -0,0.01 -0,0 -0,0 -0,0.01 0,0 0,0.01 0,0.01 -0.01,0.01 -0.02,0.03 -0.03,0.03 -0.01,0.01 -0.02,0.01 -0.03,0.02 -0.01,0 -0.02,0.01 -0.04,0.01 -0.01,0 -0.03,0 -0.04,0.01 -0.01,0 -0.03,0.01 -0.04,0.01 -0.01,0 -0.03,0.01 -0.04,0.02 -0,-0 -0.01,-0 -0.01,-0 -0,0 -0.01,0 -0.01,0 -0,0 -0.01,0 -0.01,0 -0,0 -0.01,0 -0.02,0 -0,0 -0.01,0.01 -0.01,0.01 -0.01,0 -0.01,0 -0.02,0 0,0.01 0,0.01 0,0.02 -0,0.01 0,0.01 0,0.01 0.02,0 0.05,0 0.07,-0 0.03,-0 0.05,-0 0.08,-0.01 0,0 0,0 -0,0.01 -0,0 -0,0 -0,0.01 0,0 0.01,0.01 0.01,0.01 0,0 0.01,0.01 0.01,0.01 0,0 0.01,0.01 0.01,0.01 0,0 0.01,0 0.02,0 0,0.01 0,0.01 0.01,0.02 0,0.01 0,0.01 -0,0.02 -0.01,0.01 -0.02,0.01 -0.03,0.02 -0.01,0.01 -0.02,0.01 -0.03,0.02 -0.01,0.01 -0.02,0.01 -0.04,0.01 -0.01,0 -0.03,0.01 -0.04,0 -0,0 -0,0 -0.01,0 -0,0 -0,-0 -0.01,-0 -0.01,0 -0.01,0 -0.02,0 -0.01,-0 -0.02,0 -0.02,0 -0.01,-0 -0.02,-0 -0.03,-0 -0.01,0 -0.02,-0 -0.03,-0 -0.01,0.01 -0.02,0.03 -0.03,0.04 -0.01,0.01 -0.02,0.03 -0.02,0.05 0.02,0 0.04,0 0.05,0 0.01,-0 0.03,-0 0.04,-0 0.01,-0 0.03,-0 0.04,-0 0.01,-0 0.03,-0 0.05,-0 0.01,-0.01 0.03,-0.01 0.05,-0.01 0.02,-0 0.03,-0.01 0.05,-0.01 0.01,0 0.01,0 0.01,0.01 0,0 0.01,0.01 0.01,0.01 0,0 0.01,0.01 0.01,0.01 0,0 0.01,0 0.01,0 0,0 0,0.01 0.01,0.01 0,0 0,0.01 0,0.01 0,0 0,0.01 0,0.01 0,0 0,0 0.01,0 -0.01,0.02 -0.02,0.04 -0.03,0.05 -0.01,0.01 -0.03,0.02 -0.04,0.03 -0.02,0.01 -0.03,0.01 -0.05,0.01 -0.02,0 -0.04,0.01 -0.06,0.01 -0.01,0 -0.01,0 -0.01,-0 -0,-0 -0.01,-0 -0.01,-0 -0.01,0 -0.03,0.01 -0.05,0.01 -0.02,0 -0.04,0 -0.06,0 -0.02,-0 -0.04,-0 -0.06,-0.01 -0.02,-0 -0.03,-0.01 -0.05,-0.03zm-0.75 -0.27c-0,-0.01 -0,-0.03 -0,-0.05 0,-0.02 0,-0.03 0,-0.05 0,-0.01 -0,-0.03 -0,-0.05 -0,-0.02 -0,-0.03 -0,-0.05 -0,-0.01 -0,-0.03 -0,-0.04 0,-0.01 0,-0.02 0.01,-0.03 0,-0.01 0.01,-0.01 0.02,-0.02 0.01,-0 0.01,-0.01 0.02,-0.02 0.01,0 0.01,0 0.02,0.01 0.01,0 0.01,0.01 0.01,0.01 0,0 0.01,0.01 0.01,0.01 0,0 0,0.01 0,0.01 0.01,0.01 0.02,0.02 0.03,0.03 0.01,0.01 0.01,0.03 0.02,0.04 0,0.02 0.01,0.03 0.01,0.05 0,0.02 0,0.04 0,0.05 0,0.02 0,0.03 0,0.05 0,0.02 0,0.03 0.01,0.04 0.02,-0.03 0.04,-0.06 0.06,-0.09 0.02,-0.03 0.03,-0.05 0.05,-0.07 0.02,-0.02 0.03,-0.05 0.05,-0.07 0.02,-0.02 0.05,-0.05 0.08,-0.08 0.01,0 0.01,0 0.02,0 0,0 0.01,0 0.01,0 0,0 0.01,0 0.01,0 0,0 0.01,0 0.02,-0 0,0.01 0,0.01 0.01,0.01 0,0 0,0.01 0,0.01 0,0 0,0.01 0,0.01 0,0 0,0.01 0.01,0.02 0,0 0,0 0,0.01 -0,0 -0,0.01 -0,0.01 -0,0 -0,0 -0,0.01 0,0 0,0 0.01,0 -0,0.01 -0.01,0.02 -0.01,0.02 -0,0.01 -0.01,0.02 -0.01,0.03 -0.01,0.02 -0.03,0.04 -0.05,0.06 -0.02,0.02 -0.03,0.04 -0.05,0.06 -0.02,0.02 -0.03,0.04 -0.05,0.07 -0.02,0.02 -0.03,0.05 -0.04,0.07 -0,0 -0.01,0 -0.01,0 -0,0 -0,0 -0,0.01 -0,0 -0,0 -0,0.01 -0,0 -0,0 -0.01,0 -0,0.02 -0.01,0.03 -0.02,0.05 -0.01,0.01 -0.02,0.03 -0.03,0.04 0,0 0,0.01 0,0.01 0,0 -0,0.01 -0,0.01 -0,0 -0,0.01 -0,0.01 -0,0 -0,0.01 0,0.01 -0,0.01 -0.01,0.02 -0.02,0.03 -0.01,0.01 -0.02,0.01 -0.02,0.02 -0.01,0 -0.02,0.01 -0.03,0.01 -0.01,-0 -0.02,-0 -0.03,-0.01 -0,-0 -0.01,-0.01 -0.01,-0.01 -0,-0 -0.01,-0.01 -0.01,-0.01 -0,-0 -0.01,-0.01 -0.01,-0.01 -0,-0 -0.01,-0 -0.01,-0.01 0,-0.01 0,-0.01 0,-0.02 -0,-0.01 -0,-0.01 -0,-0.02 -0,-0 -0,-0.01 -0.01,-0.01 -0,-0 -0,-0 -0.01,-0 -0,-0.01 -0,-0.03 -0.01,-0.04 -0,-0.02 -0.01,-0.03 -0.01,-0.05 -0,-0.02 -0.01,-0.03 -0.01,-0.04 -0,-0.01 -0,-0.03 -0,-0.04 0,-0.01 -0,-0.01 -0,-0.02 -0,-0 -0,-0.01 -0.01,-0.02zm-0.82 0.27c-0,-0 -0.01,-0.01 -0.01,-0.02 -0,-0.01 -0.01,-0.01 -0.01,-0.01 -0,-0.01 -0,-0.02 -0,-0.03 -0,-0.01 -0,-0.02 -0.01,-0.03 -0,-0.01 -0,-0.02 -0,-0.03 -0,-0.01 -0,-0.02 0,-0.03 0,-0 0,-0.01 0.01,-0.01 0,-0 0,-0.01 0.01,-0.01 0,-0 0,-0.01 0.01,-0.01 0,-0 0,-0.01 0,-0.01 0,-0 0.01,-0 0.01,-0.01 0,-0 0,-0 0.01,-0 0,-0.01 0.01,-0.02 0.01,-0.03 0,-0.01 0.01,-0.02 0.01,-0.03 0,-0.01 0.01,-0.02 0.01,-0.03 0,-0.01 0.01,-0.02 0.01,-0.03 -0.01,-0.01 -0.02,-0.02 -0.02,-0.03 -0,-0.01 -0.01,-0.02 -0.01,-0.03 -0,-0.01 -0,-0.02 -0,-0.03 -0,-0.01 -0,-0.02 -0.01,-0.03 0.01,-0.01 0.01,-0.02 0.02,-0.02 0.01,-0.01 0.02,-0.01 0.03,-0.01 0.01,-0 0.02,-0.01 0.04,-0.01 0.01,-0 0.03,-0.01 0.04,-0.01 0.03,-0.01 0.05,-0.01 0.07,-0.02 0.02,-0 0.04,-0.01 0.06,-0.01 0.02,-0 0.04,-0.01 0.06,-0.01 0.02,-0 0.04,-0.01 0.07,-0.01 0,0 0,0 0,0 0,0 0,0 0.01,0 0,0 0,0.01 0.01,0.01 0,-0 -0,-0 -0,-0 -0,-0 -0,-0 -0,-0 0,0 0,0 0,0 0,0 0,0 0,0 0,0 0,0 0,-0 0,-0 0,-0 0,-0.01 0.01,0.01 0.01,0.02 0.02,0.03 0.01,0.01 0.02,0.01 0.03,0.02 0,0 0,0.01 0,0.01 -0,0 -0,0 -0,0.01 -0,0 -0,0 -0,0.01 0,0 0,0.01 0,0.01 -0.01,0.01 -0.02,0.03 -0.03,0.03 -0.01,0.01 -0.02,0.01 -0.03,0.02 -0.01,0 -0.02,0.01 -0.04,0.01 -0.01,0 -0.03,0 -0.04,0.01 -0.01,0 -0.03,0.01 -0.04,0.01 -0.01,0 -0.03,0.01 -0.04,0.02 -0,-0 -0.01,-0 -0.01,-0 -0,0 -0.01,0 -0.01,0 -0,0 -0.01,0 -0.01,0 -0,0 -0.01,0 -0.02,0 -0,0 -0.01,0.01 -0.01,0.01 -0.01,0 -0.01,0 -0.02,0 0,0.01 0,0.01 0,0.02 -0,0.01 0,0.01 0,0.01 0.02,0 0.05,0 0.07,-0 0.03,-0 0.05,-0 0.08,-0.01 0,0 0,0 -0,0.01 -0,0 -0,0 -0,0.01 0,0 0.01,0.01 0.01,0.01 0,0 0.01,0.01 0.01,0.01 0,0 0.01,0.01 0.01,0.01 0,0 0.01,0 0.02,0 0,0.01 0,0.01 0.01,0.02 0,0.01 0,0.01 -0,0.02 -0.01,0.01 -0.02,0.01 -0.03,0.02 -0.01,0.01 -0.02,0.01 -0.03,0.02 -0.01,0.01 -0.02,0.01 -0.04,0.01 -0.01,0 -0.03,0.01 -0.04,0 -0,0 -0,0 -0.01,0 -0,0 -0,-0 -0.01,-0 -0.01,0 -0.01,0 -0.02,0 -0.01,-0 -0.02,0 -0.02,0 -0.01,-0 -0.02,-0 -0.03,-0 -0.01,0 -0.02,-0 -0.03,-0 -0.01,0.01 -0.02,0.03 -0.03,0.04 -0.01,0.01 -0.02,0.03 -0.02,0.05 0.02,0 0.04,0 0.05,0 0.01,-0 0.03,-0 0.04,-0 0.01,-0 0.03,-0 0.04,-0 0.01,-0 0.03,-0 0.05,-0 0.01,-0.01 0.03,-0.01 0.05,-0.01 0.02,-0 0.03,-0.01 0.05,-0.01 0.01,0 0.01,0 0.01,0.01 0,0 0.01,0.01 0.01,0.01 0,0 0.01,0.01 0.01,0.01 0,0 0.01,0 0.01,0 0,0 0,0.01 0.01,0.01 0,0 0,0.01 0,0.01 0,0 0,0.01 0,0.01 0,0 0,0 0.01,0 -0.01,0.02 -0.02,0.04 -0.03,0.05 -0.01,0.01 -0.03,0.02 -0.04,0.03 -0.02,0.01 -0.03,0.01 -0.05,0.01 -0.02,0 -0.04,0.01 -0.06,0.01 -0.01,0 -0.01,0 -0.01,-0 -0,-0 -0.01,-0 -0.01,-0 -0.01,0 -0.03,0.01 -0.05,0.01 -0.02,0 -0.04,0 -0.06,0 -0.02,-0 -0.04,-0 -0.06,-0.01 -0.02,-0 -0.03,-0.01 -0.05,-0.03zm2.33 1.15c-0,-0 -0.01,-0.01 -0.01,-0.02 -0,-0.01 -0.01,-0.01 -0.01,-0.01 -0,-0.01 -0,-0.02 -0,-0.03 -0,-0.01 -0,-0.02 -0.01,-0.03 -0,-0.01 -0,-0.02 -0,-0.03 -0,-0.01 -0,-0.02 0,-0.03 0,-0 0,-0.01 0.01,-0.01 0,-0 0,-0.01 0.01,-0.01 0,-0 0,-0.01 0.01,-0.01 0,-0 0,-0.01 0,-0.01 0,-0 0.01,-0 0.01,-0.01 0,-0 0,-0 0.01,-0 0,-0.01 0.01,-0.02 0.01,-0.03 0,-0.01 0.01,-0.02 0.01,-0.03 0,-0.01 0.01,-0.02 0.01,-0.03 0,-0.01 0.01,-0.02 0.01,-0.03 -0.01,-0.01 -0.02,-0.02 -0.02,-0.03 -0,-0.01 -0.01,-0.02 -0.01,-0.03 -0,-0.01 -0,-0.02 -0,-0.03 -0,-0.01 -0,-0.02 -0.01,-0.03 0.01,-0.01 0.01,-0.02 0.02,-0.02 0.01,-0.01 0.02,-0.01 0.03,-0.01 0.01,-0 0.02,-0.01 0.04,-0.01 0.01,-0 0.03,-0.01 0.04,-0.01 0.03,-0.01 0.05,-0.01 0.07,-0.02 0.02,-0 0.04,-0.01 0.06,-0.01 0.02,-0 0.04,-0.01 0.06,-0.01 0.02,-0 0.04,-0.01 0.07,-0.01 0,0 0,0 0,0 0,0 0,0 0.01,0 0,0 0,0.01 0.01,0.01 0,-0 -0,-0 -0,-0 -0,-0 -0,-0 -0,-0 0,0 0,0 0,0 0,0 0,0 0,0 0,0 0,0 0,-0 0,-0 0,-0 0,-0.01 0.01,0.01 0.01,0.02 0.02,0.03 0.01,0.01 0.02,0.01 0.03,0.02 0,0 0,0.01 0,0.01 -0,0 -0,0 -0,0.01 -0,0 -0,0 -0,0.01 0,0 0,0.01 0,0.01 -0.01,0.01 -0.02,0.03 -0.03,0.03 -0.01,0.01 -0.02,0.01 -0.03,0.02 -0.01,0 -0.02,0.01 -0.04,0.01 -0.01,0 -0.03,0 -0.04,0.01 -0.01,0 -0.03,0.01 -0.04,0.01 -0.01,0 -0.03,0.01 -0.04,0.02 -0,-0 -0.01,-0 -0.01,-0 -0,0 -0.01,0 -0.01,0 -0,0 -0.01,0 -0.01,0 -0,0 -0.01,0 -0.02,0 -0,0 -0.01,0.01 -0.01,0.01 -0.01,0 -0.01,0 -0.02,0 0,0.01 0,0.01 0,0.02 -0,0.01 0,0.01 0,0.01 0.02,0 0.05,0 0.07,-0 0.03,-0 0.05,-0 0.08,-0.01 0,0 0,0 -0,0.01 -0,0 -0,0 -0,0.01 0,0 0.01,0.01 0.01,0.01 0,0 0.01,0.01 0.01,0.01 0,0 0.01,0.01 0.01,0.01 0,0 0.01,0 0.02,0 0,0.01 0,0.01 0.01,0.02 0,0.01 0,0.01 -0,0.02 -0.01,0.01 -0.02,0.01 -0.03,0.02 -0.01,0.01 -0.02,0.01 -0.03,0.02 -0.01,0.01 -0.02,0.01 -0.04,0.01 -0.01,0 -0.03,0.01 -0.04,0 -0,0 -0,0 -0.01,0 -0,0 -0,-0 -0.01,-0 -0.01,0 -0.01,0 -0.02,0 -0.01,-0 -0.02,0 -0.02,0 -0.01,-0 -0.02,-0 -0.03,-0 -0.01,0 -0.02,-0 -0.03,-0 -0.01,0.01 -0.02,0.03 -0.03,0.04 -0.01,0.01 -0.02,0.03 -0.02,0.05 0.02,0 0.04,0 0.05,0 0.01,-0 0.03,-0 0.04,-0 0.01,-0 0.03,-0 0.04,-0 0.01,-0 0.03,-0 0.05,-0 0.01,-0.01 0.03,-0.01 0.05,-0.01 0.02,-0 0.03,-0.01 0.05,-0.01 0.01,0 0.01,0 0.01,0.01 0,0 0.01,0.01 0.01,0.01 0,0 0.01,0.01 0.01,0.01 0,0 0.01,0 0.01,0 0,0 0,0.01 0.01,0.01 0,0 0,0.01 0,0.01 0,0 0,0.01 0,0.01 0,0 0,0 0.01,0 -0.01,0.02 -0.02,0.04 -0.03,0.05 -0.01,0.01 -0.03,0.02 -0.04,0.03 -0.02,0.01 -0.03,0.01 -0.05,0.01 -0.02,0 -0.04,0.01 -0.06,0.01 -0.01,0 -0.01,0 -0.01,-0 -0,-0 -0.01,-0 -0.01,-0 -0.01,0 -0.03,0.01 -0.05,0.01 -0.02,0 -0.04,0 -0.06,0 -0.02,-0 -0.04,-0 -0.06,-0.01 -0.02,-0 -0.03,-0.01 -0.05,-0.03zm-0.62 -0.4c-0.01,0.01 -0.01,0.02 -0.02,0.03 -0.01,0.01 -0.02,0.02 -0.02,0.03 -0.01,0.01 -0.02,0.02 -0.02,0.03 -0.01,0.01 -0.01,0.02 -0.01,0.04 0.02,-0 0.05,-0.01 0.07,-0.02 0.02,-0.01 0.05,-0.02 0.07,-0.03 -0,-0.02 -0.01,-0.04 -0.02,-0.05 -0.01,-0.01 -0.02,-0.02 -0.03,-0.02zm-0.26 0.36c-0,0 -0,-0 -0.01,-0.01 -0,-0 -0,-0.01 -0.01,-0.01l0.01 0c-0,-0.01 -0,-0.02 -0,-0.03 0,-0.01 0,-0.02 0.01,-0.03 0,-0.01 0,-0.02 0.01,-0.03 0,-0.01 0,-0.02 -0,-0.03 0,0 0,0 0.01,-0 0,-0 0,-0.01 0,-0.01 0,-0 0,-0.01 0,-0.01 -0,-0 -0,-0.01 -0,-0.01 0.01,-0.02 0.01,-0.03 0.02,-0.05 0,-0.02 0.01,-0.03 0.01,-0.05 0,-0.02 0.01,-0.03 0.01,-0.05 0,-0.02 0.01,-0.03 0.02,-0.05 0.01,-0 0.02,-0 0.02,0 0.01,0 0.01,0.01 0.02,0.01 0.02,-0.01 0.03,-0.03 0.04,-0.05 0.01,-0.02 0.03,-0.04 0.04,-0.05 0.01,-0.02 0.03,-0.03 0.04,-0.05 0.02,-0.01 0.04,-0.02 0.06,-0.02 0.01,0.01 0.03,0.02 0.04,0.03 0.02,0.01 0.03,0.02 0.04,0.04 0,0 0.01,0.01 0.01,0.01 0,0 0.01,0.01 0.01,0.01l0 0.01c0.01,0.01 0.01,0.01 0.02,0.02 0,0.01 0.01,0.02 0.01,0.03 0,0.01 0.01,0.02 0.01,0.03 0,0.01 0.01,0.02 0.01,0.03 -0,0 -0,0.01 -0,0.01 0,0 0,0 0,0.01 0,0 0,0.01 0,0.01 0,0 0,0.01 0,0.01 -0,0.03 -0.01,0.05 -0.03,0.07 -0.02,0.02 -0.04,0.03 -0.06,0.04 -0.02,0.01 -0.05,0.02 -0.07,0.03 -0.03,0.01 -0.05,0.02 -0.07,0.02 0,0 0,0 0,0 0,0 0,0 0,0 0.02,0.01 0.03,0.02 0.04,0.02 0.01,0.01 0.02,0.01 0.02,0.01 0.01,0 0.02,0.01 0.03,0.01 0.01,0 0.02,0.01 0.04,0.01 0.02,0 0.03,0.01 0.04,0.01 0.01,0 0.02,0 0.02,0.01 0.01,0 0.02,0 0.02,0 0.01,0 0.02,0 0.03,0 0.01,0.01 0.01,0.01 0.01,0.02 0,0.01 0.01,0.02 0.01,0.02 0,0.01 0,0.02 0,0.02 -0,0.01 -0,0.01 -0.01,0.02 0,0 0,0 0,0 0,-0 0,-0 0.01,0 -0,0 -0.01,0.01 -0.01,0.01 -0,0 -0.01,0.01 -0.01,0.01 -0,0 -0.01,0.01 -0.01,0.01 -0,0 -0.01,0 -0.01,0.01 -0.02,0.01 -0.04,0.01 -0.07,0 -0.03,-0.01 -0.07,-0.02 -0.11,-0.04 -0.02,-0.01 -0.04,-0.02 -0.06,-0.02 -0.01,-0.01 -0.03,-0.01 -0.04,-0.02 -0.01,-0.01 -0.02,-0.01 -0.03,-0.02 -0.01,-0.01 -0.02,-0.02 -0.03,-0.03 -0,0 -0,0 -0,0 -0,0 -0,0 -0,0 -0,0.02 -0.01,0.04 -0.01,0.05 -0.01,0.01 -0.01,0.03 -0.02,0.04 -0.01,-0 -0.01,-0 -0.02,0 -0,0 -0.01,0.01 -0.01,0.01 -0.01,0 -0.01,0 -0.01,-0 -0,-0 -0,-0 -0.01,-0 -0,-0 -0,-0 -0.01,-0 -0,-0 -0.01,-0 -0.01,-0 -0,-0 -0,-0.01 -0,-0.01 -0,-0 -0.01,-0.01 -0.01,-0.01 0,-0 0,-0.01 0,-0.01 -0,-0 -0,-0.01 -0,-0.01 -0,-0 -0,-0.01 -0,-0.01 -0,-0 -0,-0.01 0,-0.01zm-2.54 -0.22c-0.01,0.01 -0.01,0.02 -0.02,0.03 -0.01,0.01 -0.01,0.02 -0.02,0.03 -0.01,0.01 -0.01,0.02 -0.02,0.03 -0.01,0.01 -0.01,0.02 -0.01,0.04 0.01,0.01 0.02,0.01 0.04,0.02 0.01,0 0.03,0 0.04,0 0.02,-0 0.03,-0 0.05,-0.01 0.02,-0 0.03,-0 0.04,-0 0,-0 0,-0.01 0.01,-0.01 0.02,-0 0.04,-0.01 0.06,-0.02 0.02,-0.01 0.04,-0.02 0.06,-0.03 0,-0.01 0.01,-0.01 0.01,-0.02 0,-0 0.01,-0.01 0.01,-0.02 -0,-0 -0,-0.01 -0.01,-0.01 -0,-0 -0,-0.01 -0,-0.01 -0.01,-0.02 -0.03,-0.04 -0.04,-0.06 -0.01,-0.02 -0.02,-0.04 -0.03,-0.06 -0,0 -0,0.01 -0.01,0.01 -0,0 -0.01,0 -0.01,-0 -0,0.01 -0,0.01 -0.01,0.01 -0,0 -0.01,0 -0.01,0 -0,0 -0.01,-0 -0.01,-0 -0,-0 -0.01,-0 -0.01,-0.01 -0.02,0.01 -0.04,0.03 -0.05,0.04 -0.02,0.01 -0.03,0.03 -0.05,0.05 -0,0 -0,0 -0,0 -0,-0 -0,-0 -0.01,0zm-0.01 0.29c-0.02,0 -0.04,0 -0.06,-0 -0.02,-0.01 -0.04,-0.01 -0.05,-0.02 -0.01,-0.01 -0.03,-0.02 -0.04,-0.04 -0.01,-0.02 -0.02,-0.03 -0.03,-0.05 -0,-0.04 -0,-0.07 0,-0.1 0.01,-0.03 0.02,-0.06 0.03,-0.08 0.01,-0.02 0.03,-0.05 0.05,-0.07 0.02,-0.02 0.04,-0.04 0.05,-0.06 0,0 0.01,0 0.01,0 0,-0 0,-0 0.01,-0.01 0,-0 0,-0.01 0.01,-0.01 0,-0 0.01,-0 0.01,-0.01 0,-0 0,-0.01 0.01,-0.01 0,-0 0.01,-0.01 0.01,-0.01 0,-0 0.01,-0.01 0.01,-0.01 0,-0 0.01,-0.01 0.01,-0.01 0.01,-0 0.01,-0 0.01,-0.01 0,-0 0.01,-0.01 0.01,-0.01 0,-0 0.01,-0.01 0.01,-0.01 0,-0 0.01,-0 0.01,-0.01l0 -0.01c0.01,-0.01 0.02,-0.01 0.03,-0.02 0.01,-0.01 0.01,-0.01 0.02,-0.02 0.01,-0 0.01,-0 0.01,-0 0,0 0.01,-0 0.02,-0 0,-0.01 0.01,-0.02 0.01,-0.02 0,-0 0.01,-0.01 0.02,-0.01 0.01,0 0.02,0.01 0.03,0.01 0.01,0 0.02,0 0.02,0.01 0,0.01 0,0.01 0.01,0.01 0,0 0.01,0.01 0.01,0.01 0,0 0.01,0.01 0.01,0.01 0,0 0.01,0.01 0.01,0.01 0,0 0,-0 0.01,-0 0,-0 0,-0 0.01,-0 0,0 0,0.01 0,0.01 0,0 0,0 0,0.01 0,0 0,0 0,0.01 0,0 0,0.01 0,0.01 -0,0.01 -0,0.01 -0.01,0.02 -0,0.01 -0.01,0.01 -0.01,0.01 0,0 0,0.01 0,0.01 0,0 0,0 0.01,0.01 0,0 -0,0.01 -0,0.01 0.01,0.02 0.03,0.05 0.04,0.08 0.01,0.03 0.03,0.05 0.04,0.08 -0,0.01 -0,0.01 0,0.02 0,0.01 0,0.01 0.01,0.02 0,0.01 0.01,0.01 0.01,0.02 0,0.01 0,0.01 0.01,0.02 0,0.01 0,0.02 0,0.03 -0,0.01 -0,0.02 -0.01,0.03 -0,0.01 -0.01,0.02 -0.01,0.03 -0.01,0.01 -0.01,0.01 -0.02,0.02 -0.01,0.01 -0.02,0.02 -0.03,0.03 -0.01,0.01 -0.02,0.01 -0.03,0.02 -0.01,0 -0.02,0.01 -0.02,0.01 -0.01,0 -0.02,0 -0.03,0.01 -0.01,0 -0.01,0.01 -0.02,0.01 -0.01,0 -0.02,0.01 -0.03,0.01 -0.01,0 -0.02,0.01 -0.03,0.01 -0.01,0 -0.02,0 -0.03,0 -0.02,0.01 -0.04,0.01 -0.06,0.01 -0.02,0 -0.04,0 -0.06,-0zm-0.89 -0.29c-0.01,0.01 -0.01,0.02 -0.02,0.03 -0.01,0.01 -0.01,0.02 -0.02,0.03 -0.01,0.01 -0.01,0.02 -0.02,0.03 -0.01,0.01 -0.01,0.02 -0.01,0.04 0.01,0.01 0.02,0.01 0.04,0.02 0.01,0 0.03,0 0.04,0 0.02,-0 0.03,-0 0.05,-0.01 0.02,-0 0.03,-0 0.04,-0 0,-0 0,-0.01 0.01,-0.01 0.02,-0 0.04,-0.01 0.06,-0.02 0.02,-0.01 0.04,-0.02 0.06,-0.03 0,-0.01 0.01,-0.01 0.01,-0.02 0,-0 0.01,-0.01 0.01,-0.02 -0,-0 -0,-0.01 -0.01,-0.01 -0,-0 -0,-0.01 -0,-0.01 -0.01,-0.02 -0.03,-0.04 -0.04,-0.06 -0.01,-0.02 -0.02,-0.04 -0.03,-0.06 -0,0 -0,0.01 -0.01,0.01 -0,0 -0.01,0 -0.01,-0 -0,0.01 -0,0.01 -0.01,0.01 -0,0 -0.01,0 -0.01,0 -0,0 -0.01,-0 -0.01,-0 -0,-0 -0.01,-0 -0.01,-0.01 -0.02,0.01 -0.04,0.03 -0.05,0.04 -0.02,0.01 -0.03,0.03 -0.05,0.05 -0,0 -0,0 -0,0 -0,-0 -0,-0 -0.01,0zm-0.01 0.29c-0.02,0 -0.04,0 -0.06,-0 -0.02,-0.01 -0.04,-0.01 -0.05,-0.02 -0.01,-0.01 -0.03,-0.02 -0.04,-0.04 -0.01,-0.02 -0.02,-0.03 -0.03,-0.05 -0,-0.04 -0,-0.07 0,-0.1 0.01,-0.03 0.02,-0.06 0.03,-0.08 0.01,-0.02 0.03,-0.05 0.05,-0.07 0.02,-0.02 0.04,-0.04 0.05,-0.06 0,0 0.01,0 0.01,0 0,-0 0,-0 0.01,-0.01 0,-0 0,-0.01 0.01,-0.01 0,-0 0.01,-0 0.01,-0.01 0,-0 0,-0.01 0.01,-0.01 0,-0 0.01,-0.01 0.01,-0.01 0,-0 0.01,-0.01 0.01,-0.01 0,-0 0.01,-0.01 0.01,-0.01 0.01,-0 0.01,-0 0.01,-0.01 0,-0 0.01,-0.01 0.01,-0.01 0,-0 0.01,-0.01 0.01,-0.01 0,-0 0.01,-0 0.01,-0.01l0 -0.01c0.01,-0.01 0.02,-0.01 0.03,-0.02 0.01,-0.01 0.01,-0.01 0.02,-0.02 0.01,-0 0.01,-0 0.01,-0 0,0 0.01,-0 0.02,-0 0,-0.01 0.01,-0.02 0.01,-0.02 0,-0 0.01,-0.01 0.02,-0.01 0.01,0 0.02,0.01 0.03,0.01 0.01,0 0.02,0 0.02,0.01 0,0.01 0,0.01 0.01,0.01 0,0 0.01,0.01 0.01,0.01 0,0 0.01,0.01 0.01,0.01 0,0 0.01,0.01 0.01,0.01 0,0 0,-0 0.01,-0 0,-0 0,-0 0.01,-0 0,0 0,0.01 0,0.01 0,0 0,0 0,0.01 0,0 0,0 0,0.01 0,0 0,0.01 0,0.01 -0,0.01 -0,0.01 -0.01,0.02 -0,0.01 -0.01,0.01 -0.01,0.01 0,0 0,0.01 0,0.01 0,0 0.01,0 0.01,0.01 0,0 -0,0.01 -0,0.01 0.01,0.02 0.03,0.05 0.04,0.08 0.01,0.03 0.03,0.05 0.04,0.08 -0,0.01 -0,0.01 0,0.02 0,0.01 0,0.01 0.01,0.02 0,0.01 0.01,0.01 0.01,0.02 0,0.01 0,0.01 0.01,0.02 0,0.01 0,0.02 0,0.03 -0,0.01 -0,0.02 -0.01,0.03 -0,0.01 -0.01,0.02 -0.01,0.03 -0.01,0.01 -0.01,0.01 -0.02,0.02 -0.01,0.01 -0.02,0.02 -0.03,0.03 -0.01,0.01 -0.02,0.01 -0.03,0.02 -0.01,0 -0.02,0.01 -0.02,0.01 -0.01,0 -0.02,0 -0.03,0.01 -0.01,0 -0.01,0.01 -0.02,0.01 -0.01,0 -0.02,0.01 -0.03,0.01 -0.01,0 -0.02,0.01 -0.03,0.01 -0.01,0 -0.02,0 -0.03,0 -0.02,0.01 -0.04,0.01 -0.06,0.01 -0.02,0 -0.04,0 -0.06,-0zm1.82 -0.29c-0.01,0.01 -0.01,0.02 -0.02,0.03 -0.01,0.01 -0.01,0.02 -0.02,0.03 -0.01,0.01 -0.01,0.02 -0.02,0.03 -0.01,0.01 -0.01,0.02 -0.01,0.04 0.01,0.01 0.02,0.01 0.04,0.02 0.01,0 0.03,0 0.04,0 0.02,-0 0.03,-0 0.05,-0.01 0.02,-0 0.03,-0 0.04,-0 0,-0 0,-0.01 0.01,-0.01 0.02,-0 0.04,-0.01 0.06,-0.02 0.02,-0.01 0.04,-0.02 0.06,-0.03 0,-0.01 0.01,-0.01 0.01,-0.02 0,-0 0.01,-0.01 0.01,-0.02 -0,-0 -0,-0.01 -0.01,-0.01 -0,-0 -0,-0.01 -0,-0.01 -0.01,-0.02 -0.03,-0.04 -0.04,-0.06 -0.01,-0.02 -0.02,-0.04 -0.03,-0.06 -0,0 -0,0.01 -0.01,0.01 -0,0 -0.01,0 -0.01,-0 -0,0.01 -0,0.01 -0.01,0.01 -0,0 -0.01,0 -0.01,0 -0,0 -0.01,-0 -0.01,-0 -0,-0 -0.01,-0 -0.01,-0.01 -0.02,0.01 -0.04,0.03 -0.05,0.04 -0.02,0.01 -0.03,0.03 -0.05,0.05 -0,0 -0,0 -0,0 -0,-0 -0,-0 -0.01,0zm-0.01 0.29c-0.02,0 -0.04,0 -0.06,-0 -0.02,-0.01 -0.04,-0.01 -0.05,-0.02 -0.01,-0.01 -0.03,-0.02 -0.04,-0.04 -0.01,-0.02 -0.02,-0.03 -0.03,-0.05 -0,-0.04 -0,-0.07 0,-0.1 0.01,-0.03 0.02,-0.06 0.03,-0.08 0.01,-0.02 0.03,-0.05 0.05,-0.07 0.02,-0.02 0.04,-0.04 0.05,-0.06 0,0 0.01,0 0.01,0 0,-0 0,-0 0.01,-0.01 0,-0 0,-0.01 0.01,-0.01 0,-0 0.01,-0 0.01,-0.01 0,-0 0,-0.01 0.01,-0.01 0,-0 0.01,-0.01 0.01,-0.01 0,-0 0.01,-0.01 0.01,-0.01 0,-0 0.01,-0.01 0.01,-0.01 0.01,-0 0.01,-0 0.01,-0.01 0,-0 0.01,-0.01 0.01,-0.01 0,-0 0.01,-0.01 0.01,-0.01 0,-0 0.01,-0 0.01,-0.01l0 -0.01c0.01,-0.01 0.02,-0.01 0.03,-0.02 0.01,-0.01 0.01,-0.01 0.02,-0.02 0.01,-0 0.01,-0 0.01,-0 0,0 0.01,-0 0.02,-0 0,-0.01 0.01,-0.02 0.01,-0.02 0,-0 0.01,-0.01 0.02,-0.01 0.01,0 0.02,0.01 0.03,0.01 0.01,0 0.02,0 0.02,0.01 0,0.01 0,0.01 0.01,0.01 0,0 0.01,0.01 0.01,0.01 0,0 0.01,0.01 0.01,0.01 0,0 0.01,0.01 0.01,0.01 0,0 0,-0 0.01,-0 0,-0 0,-0 0.01,-0 0,0 0,0.01 0,0.01 0,0 0,0 0,0.01 0,0 0,0 0,0.01 0,0 0,0.01 0,0.01 -0,0.01 -0.01,0.01 -0.01,0.02 -0,0.01 -0.01,0.01 -0.01,0.01 0,0 0,0.01 0,0.01 0,0 0,0 0.01,0.01 0,0 -0,0.01 -0,0.01 0.01,0.02 0.03,0.05 0.04,0.08 0.01,0.03 0.03,0.05 0.04,0.08 -0,0.01 -0,0.01 0,0.02 0,0.01 0,0.01 0.01,0.02 0,0.01 0.01,0.01 0.01,0.02 0,0.01 0,0.01 0.01,0.02 0,0.01 0,0.02 0,0.03 -0,0.01 -0,0.02 -0.01,0.03 -0,0.01 -0.01,0.02 -0.01,0.03 -0.01,0.01 -0.01,0.01 -0.02,0.02 -0.01,0.01 -0.02,0.02 -0.03,0.03 -0.01,0.01 -0.02,0.01 -0.03,0.02 -0.01,0 -0.02,0.01 -0.02,0.01 -0.01,0 -0.02,0 -0.03,0.01 -0.01,0 -0.01,0.01 -0.02,0.01 -0.01,0 -0.02,0.01 -0.03,0.01 -0.01,0 -0.02,0.01 -0.03,0.01 -0.01,0 -0.02,0 -0.03,0 -0.02,0.01 -0.04,0.01 -0.06,0.01 -0.02,0 -0.04,0 -0.06,-0zm0.92 -0.29c-0.01,0.01 -0.01,0.02 -0.02,0.03 -0.01,0.01 -0.01,0.02 -0.02,0.03 -0.01,0.01 -0.01,0.02 -0.02,0.03 -0.01,0.01 -0.01,0.02 -0.01,0.04 0.01,0.01 0.02,0.01 0.04,0.02 0.01,0 0.03,0 0.04,0 0.02,-0 0.03,-0 0.05,-0.01 0.02,-0 0.03,-0 0.04,-0 0,-0 0,-0.01 0.01,-0.01 0.02,-0 0.04,-0.01 0.06,-0.02 0.02,-0.01 0.04,-0.02 0.06,-0.03 0,-0.01 0.01,-0.01 0.01,-0.02 0,-0 0.01,-0.01 0.01,-0.02 -0,-0 -0,-0.01 -0.01,-0.01 -0,-0 -0,-0.01 -0,-0.01 -0.01,-0.02 -0.03,-0.04 -0.04,-0.06 -0.01,-0.02 -0.02,-0.04 -0.03,-0.06 -0,0 -0,0.01 -0.01,0.01 -0,0 -0.01,0 -0.01,-0 -0,0.01 -0,0.01 -0.01,0.01 -0,0 -0.01,0 -0.01,0 -0,0 -0.01,-0 -0.01,-0 -0,-0 -0.01,-0 -0.01,-0.01 -0.02,0.01 -0.04,0.03 -0.05,0.04 -0.02,0.01 -0.03,0.03 -0.05,0.05 -0,0 -0,0 -0,0 -0,-0 -0,-0 -0.01,0zm-0.01 0.29c-0.02,0 -0.04,0 -0.06,-0 -0.02,-0.01 -0.04,-0.01 -0.05,-0.02 -0.01,-0.01 -0.03,-0.02 -0.04,-0.04 -0.01,-0.02 -0.02,-0.03 -0.03,-0.05 -0,-0.04 -0,-0.07 0,-0.1 0.01,-0.03 0.02,-0.06 0.03,-0.08 0.01,-0.02 0.03,-0.05 0.05,-0.07 0.02,-0.02 0.04,-0.04 0.05,-0.06 0,0 0.01,0 0.01,0 0,-0 0,-0 0.01,-0.01 0,-0 0,-0.01 0.01,-0.01 0,-0 0.01,-0 0.01,-0.01 0,-0 0,-0.01 0.01,-0.01 0,-0 0.01,-0.01 0.01,-0.01 0,-0 0.01,-0.01 0.01,-0.01 0,-0 0.01,-0.01 0.01,-0.01 0.01,-0 0.01,-0 0.01,-0.01 0,-0 0.01,-0.01 0.01,-0.01 0,-0 0.01,-0.01 0.01,-0.01 0,-0 0.01,-0 0.01,-0.01l0 -0.01c0.01,-0.01 0.02,-0.01 0.03,-0.02 0.01,-0.01 0.01,-0.01 0.02,-0.02 0.01,-0 0.01,-0 0.01,-0 0,0 0.01,-0 0.02,-0 0,-0.01 0.01,-0.02 0.01,-0.02 0,-0 0.01,-0.01 0.02,-0.01 0.01,0 0.02,0.01 0.03,0.01 0.01,0 0.02,0 0.02,0.01 0,0.01 0,0.01 0.01,0.01 0,0 0.01,0.01 0.01,0.01 0,0 0.01,0.01 0.01,0.01 0,0 0.01,0.01 0.01,0.01 0,0 0,-0 0.01,-0 0,-0 0,-0 0.01,-0 0,0 0,0.01 0,0.01 0,0 0,0 0,0.01 0,0 0,0 0,0.01 0,0 0,0.01 0,0.01 -0,0.01 -0,0.01 -0.01,0.02 -0,0.01 -0.01,0.01 -0.01,0.01 0,0 0,0.01 0,0.01 0,0 0,0 0.01,0.01 0,0 -0,0.01 -0,0.01 0.01,0.02 0.03,0.05 0.04,0.08 0.01,0.03 0.03,0.05 0.04,0.08 -0,0.01 -0,0.01 0,0.02 0,0.01 0,0.01 0.01,0.02 0,0.01 0.01,0.01 0.01,0.02 0,0.01 0,0.01 0.01,0.02 0,0.01 0,0.02 0,0.03 -0,0.01 -0,0.02 -0.01,0.03 -0,0.01 -0.01,0.02 -0.01,0.03 -0.01,0.01 -0.01,0.01 -0.02,0.02 -0.01,0.01 -0.02,0.02 -0.03,0.03 -0.01,0.01 -0.02,0.01 -0.03,0.02 -0.01,0 -0.02,0.01 -0.02,0.01 -0.01,0 -0.02,0 -0.03,0.01 -0.01,0 -0.01,0.01 -0.02,0.01 -0.01,0 -0.02,0.01 -0.03,0.01 -0.01,0 -0.02,0.01 -0.03,0.01 -0.01,0 -0.02,0 -0.03,0 -0.02,0.01 -0.04,0.01 -0.06,0.01 -0.02,0 -0.04,0 -0.06,-0z"/>
   <g>
    <path class="fil1" d="M0.09 0.21c-0,-0 -0,-0.01 -0,-0.01 -0,-0.01 -0.01,-0.02 -0.01,-0.03 -0,-0.01 -0.01,-0.03 -0.01,-0.04 0,-0 0,-0.01 0,-0.01 0,-0.01 0.01,-0.02 0.01,-0.03l0 -0c0.01,-0.03 0.03,-0.05 0.06,-0.05l0.01 0c0,0 0,0 0.01,0 0,0 0,0 0.01,0 0,0 0.01,0 0.01,0 0.02,0 0.04,-0 0.06,-0 0.02,-0 0.04,-0 0.06,-0.01 0.02,-0 0.03,-0 0.05,-0.01 0,-0 0.01,-0.01 0.02,-0.01l0.01 -0c0.01,-0 0.02,-0.01 0.02,-0.01 0.02,-0 0.04,0 0.06,0.01 0.01,-0 0.01,-0 0.02,-0 0.01,-0 0.03,-0 0.04,-0.01 0.02,-0 0.04,-0.01 0.06,-0.01 0.02,-0 0.05,-0 0.07,-0 0.01,0 0.02,0 0.03,0 0.01,0 0.02,0 0.03,0 0.01,0 0.02,0 0.03,0.01l0.01 0.01c0.01,0 0.01,0.01 0.01,0.02 0,0 0,0 0,0 0,0 0,0 0,0 0,0 0,0 0,0 0.01,0.01 0.02,0.02 0.03,0.03 0.02,0.02 0.02,0.05 0.02,0.08 -0,0.01 -0,0.01 -0.01,0.02l-0 0.01c-0,0.01 -0.01,0.01 -0.01,0.02 -0,0 -0,0 -0.01,0.01l-0 0c-0.01,0.01 -0.03,0.02 -0.05,0.02l-0.01 0c-0,0 -0.01,0 -0.01,0 -0,0 -0,0 -0.01,0 -0.01,0 -0.02,0 -0.02,0 -0,-0 -0.01,-0 -0.01,-0 -0,0 -0.01,0 -0.01,0 -0.01,0 -0.03,0 -0.04,0 -0.02,0 -0.03,0 -0.05,0.01 -0,0 -0,0 -0,0 -0.01,0 -0.02,0 -0.03,0 -0,0 -0,0 -0,0 -0,0.01 -0.01,0.02 -0.01,0.03 -0,0.01 -0.01,0.02 -0.01,0.03 -0,0.01 -0.01,0.02 -0.01,0.03 -0,0.01 -0,0.01 -0.01,0.02 -0,0.01 -0.01,0.01 -0.01,0.02 -0,0.01 -0,0.01 -0.01,0.02 -0,0.01 -0.01,0.02 -0.01,0.02 -0,0 -0,0.01 -0.01,0.01 -0,0.01 -0.01,0.02 -0.01,0.03l-0 0.01c-0,0.01 -0.01,0.02 -0.01,0.02 -0,0 -0,0 -0,0 -0,0.01 -0,0.01 -0.01,0.02 -0,0 -0,0 -0,0 -0,0 -0,0 -0,0 -0,0.01 -0,0.01 -0,0.02 -0,0 -0,0 -0,0 0,0 0.01,0.01 0.01,0.01l0.01 0.01c0.01,0.01 0.01,0.02 0.01,0.03 0.01,0.03 0,0.06 -0.02,0.09 -0.02,0.03 -0.06,0.04 -0.09,0.04 -0,0 -0,-0 -0,-0l-0.01 -0c-0.01,-0 -0.03,-0.01 -0.04,-0.02 0,0 0,0 0,0 -0.01,-0 -0.01,-0.01 -0.02,-0.01 -0.01,-0 -0.01,-0 -0.02,-0.01l-0.01 -0c-0.02,-0.01 -0.03,-0.03 -0.03,-0.05 -0,-0 -0,-0.01 -0.01,-0.01 -0,-0.01 -0.01,-0.02 -0.01,-0.03 -0,-0 -0,-0.01 -0,-0.01 -0.01,-0.01 -0.01,-0.02 -0.01,-0.03 -0,-0.04 0,-0.08 0.01,-0.11 0.01,-0.03 0.02,-0.05 0.03,-0.08 0,-0.01 0.01,-0.02 0.01,-0.04 0,-0.01 0.01,-0.02 0.01,-0.03 -0,0 -0.01,0 -0.01,0 -0,0 -0.01,0 -0.01,0 -0,0 -0,0 -0.01,0l-0.02 0c-0.01,0 -0.02,-0 -0.02,-0 -0.01,-0 -0.02,-0.01 -0.04,-0.01 -0.01,-0 -0.01,-0.01 -0.02,-0.01l-0 -0c-0.02,-0.01 -0.03,-0.03 -0.03,-0.05l0 -0zm0.53 1.37c0.01,0.01 0.02,0.01 0.03,0.02 0,0 0.01,0.01 0.01,0.01 0.01,0 0.02,0.01 0.02,0.01 0.01,0.01 0.01,0.02 0.02,0.03 0,0 0.01,0.01 0.01,0.01 0.01,0.02 0.01,0.04 0,0.06 -0.01,0.02 -0.03,0.05 -0.05,0.06 -0.02,0.02 -0.04,0.03 -0.06,0.04 -0.02,0.01 -0.04,0.01 -0.06,0.02 -0.02,0 -0.04,0.01 -0.06,0.01 -0.01,0 -0.02,0 -0.04,-0 -0.02,0 -0.03,0 -0.05,0.01 -0.02,0 -0.05,0 -0.07,0 -0.02,-0 -0.05,-0 -0.07,-0.01 -0.03,-0.01 -0.05,-0.02 -0.07,-0.04 -0,-0 -0,-0 -0,-0 -0.01,-0.01 -0.01,-0.02 -0.02,-0.03 -0.01,-0.01 -0.02,-0.02 -0.02,-0.04 -0,-0.01 -0,-0.02 -0,-0.02 -0,-0.01 -0,-0.02 -0.01,-0.03 -0,-0.01 -0,-0.03 -0,-0.04 -0,-0.01 -0,-0.03 0,-0.04 0,-0 0,-0 0,-0 0,-0.01 0.01,-0.02 0.01,-0.03 0,-0 0,-0 0,-0 0,-0 0,-0.01 0.01,-0.01 -0,-0.01 0,-0.02 0.01,-0.03 0,-0 0.01,-0.01 0.01,-0.01 0,-0 0,-0 0,-0 0,-0 0,-0.01 0.01,-0.01 0,-0.01 0.01,-0.02 0.01,-0.03 0,-0.01 0.01,-0.02 0.01,-0.03 -0,-0 -0,-0.01 -0.01,-0.01 -0.01,-0.01 -0.01,-0.03 -0.01,-0.04 -0,-0.01 -0,-0.02 -0.01,-0.04 -0,-0.01 -0,-0.01 -0,-0.02 -0.01,-0.02 -0,-0.03 0.01,-0.05 0.01,-0.02 0.02,-0.03 0.04,-0.04 0.01,-0.01 0.03,-0.02 0.04,-0.02 0.01,-0.01 0.03,-0.01 0.04,-0.01 0.01,-0 0.02,-0 0.04,-0.01 0.02,-0.01 0.05,-0.01 0.07,-0.02 0.02,-0 0.04,-0.01 0.06,-0.01 0.02,-0 0.04,-0.01 0.06,-0.01 0.02,-0 0.05,-0.01 0.07,-0.01 0.01,-0 0.01,-0 0.02,-0 0,-0 0,-0 0,-0 0.03,-0.01 0.06,0 0.07,0.03 0,0 0,0.01 0.01,0.01 0.01,0.01 0.01,0.01 0.02,0.01 0.02,0.01 0.03,0.03 0.03,0.05 0,0.01 0,0.02 0,0.02 -0,0 -0,0 -0,0.01 0,0.01 0,0.03 -0.01,0.04 -0.01,0.02 -0.03,0.04 -0.04,0.05 -0.02,0.01 -0.03,0.02 -0.05,0.03 -0.02,0.01 -0.03,0.01 -0.05,0.01 -0,0 -0,0 -0,0 0,0 0,0.01 0,0.01 0,0 0,0.01 0.01,0.01 0.02,0 0.03,0.01 0.04,0.03 0.01,0.01 0.01,0.02 0.01,0.03 0,0.02 0,0.03 -0.01,0.05 -0,0.01 -0.01,0.02 -0.02,0.03 -0.01,0.01 -0.02,0.01 -0.02,0.02zm0.11 1.22c0,0.01 0,0.01 0,0.02 0,0.02 0,0.03 -0,0.05 -0,0 -0,0.01 -0,0.01 -0.01,0.02 -0.01,0.03 -0.02,0.05 -0.01,0.01 -0.02,0.03 -0.03,0.04 -0.01,0.01 -0.03,0.02 -0.05,0.03 -0.02,0.01 -0.04,0.01 -0.06,0.01 -0.01,0 -0.01,-0 -0.01,-0 -0.01,-0 -0.02,-0.01 -0.03,-0.01 -0,-0 -0,-0 -0,-0 -0,-0 -0.01,-0.01 -0.01,-0.01l-0.01 -0c-0.02,-0.01 -0.03,-0.03 -0.03,-0.06 -0,-0 -0,-0 -0,-0 -0,-0 -0,-0 -0,-0 -0,-0 -0,-0 -0,-0l-0.02 -0.02c-0.01,-0.01 -0.01,-0.01 -0.01,-0.02 -0,0 -0.01,0 -0.01,0 -0.01,0 -0.02,-0 -0.04,-0l-0.01 -0c-0.01,-0 -0.01,-0 -0.01,-0 -0,0.01 -0,0.01 -0.01,0.02 -0,0 -0,0 -0,0.01 0,0.01 -0,0.01 -0,0.02l-0 0.01c-0,0 -0,0.01 -0.01,0.01 -0.01,0.01 -0.02,0.02 -0.03,0.03 -0,0 -0,0 -0,0 -0.01,0.01 -0.02,0.02 -0.04,0.03l-0.01 0c-0,0 -0.01,0 -0.01,0 -0.01,0 -0.01,0 -0.02,0 -0,0 -0,-0 -0,-0l-0.01 -0c-0.01,-0 -0.03,-0.01 -0.04,-0.02 -0,-0 -0.01,-0.01 -0.01,-0.01 -0,-0 -0,-0 -0,-0 -0,-0 -0,-0 -0,-0 -0.01,-0 -0.02,-0.01 -0.02,-0.02l-0 -0.01c-0,-0 -0,-0.01 -0,-0.01 -0,-0.01 -0.01,-0.02 -0.01,-0.03 -0,-0 -0,-0 -0,-0l-0 -0c-0.01,-0.01 -0.02,-0.03 -0.02,-0.04 0,-0.01 0,-0.02 0.01,-0.03 0,-0 0,-0.01 0,-0.01 0.01,-0.03 0.03,-0.06 0.04,-0.1 0.01,-0.03 0.03,-0.06 0.04,-0.09 0,-0.01 0.01,-0.02 0.01,-0.03 0,-0.01 0.01,-0.01 0.01,-0.02 0,-0.01 0,-0.01 0,-0.02 0,-0.01 0,-0.01 0.01,-0.02 0,-0.01 0.01,-0.01 0.01,-0.02 0,-0.01 0.01,-0.02 0.01,-0.02 0.01,-0.01 0.01,-0.02 0.02,-0.03 0.01,-0.01 0.02,-0.03 0.03,-0.04l0 -0.01c0.01,-0.02 0.03,-0.02 0.05,-0.02 0.01,-0 0.02,-0 0.02,-0 0,0 0,0 0,0 0.01,-0 0.01,-0.01 0.01,-0.01 0.01,-0.01 0.02,-0.03 0.04,-0.05 0,-0 0,-0 0,-0l0.01 -0.01c0.02,-0.02 0.05,-0.03 0.08,-0.02l0.01 0.01c0,0 0,0 0,0 0.01,0 0.01,0 0.02,0.01 0.01,0 0.02,0.01 0.03,0.01 0.02,0.01 0.03,0.01 0.05,0.03 0,0 0.01,0.01 0.01,0.01l0 0.01c0,0.01 0,0.01 0.01,0.02 0,0.01 0,0.01 0,0.02 0,0 0,0.01 0,0.01 0,0 0,0 0,0 0,0.01 0,0.02 0.01,0.03 0,0.01 0,0.02 0,0.04 0,0.01 0,0.02 0.01,0.03 0,0.01 0,0.02 0.01,0.03 0,0 0,0 0,0 0,0.01 0,0.02 0.01,0.03 0.02,-0 0.04,0.01 0.05,0.03 0.01,0 0.01,0.01 0.02,0.01 0,0 0,0 0,0 0,0 0.01,0.01 0.01,0.01l0.01 0c0.02,0.01 0.03,0.02 0.03,0.03 0.01,0.02 0,0.03 -0,0.05l-0.01 0.01c-0.01,0.02 -0.02,0.03 -0.04,0.05 -0,0 -0.01,0.01 -0.01,0.01zm-0.72 1.1c0,-0.01 0.01,-0.01 0.01,-0.02 0.01,-0.02 0.01,-0.03 0.02,-0.05 0.01,-0.02 0.02,-0.04 0.03,-0.06 0.01,-0.02 0.02,-0.05 0.03,-0.07 0.01,-0.02 0.02,-0.04 0.03,-0.06 0.01,-0.02 0.02,-0.03 0.03,-0.05 0,-0.01 0.01,-0.01 0.01,-0.02 0,-0.01 0.01,-0.01 0.01,-0.02 0.01,-0.01 0.01,-0.02 0.02,-0.03 0.01,-0.01 0.01,-0.02 0.02,-0.03 0.01,-0.01 0.02,-0.02 0.03,-0.03 0.01,-0.01 0.03,-0.02 0.04,-0.02 0.01,-0 0.03,-0 0.04,0 0.01,0 0.02,0.01 0.02,0.01 0,0 0,0 0,0 0.01,0.01 0.02,0.01 0.02,0.02 0,0 0.01,0.01 0.01,0.01 0,0 0,0 0,0 0,0 0,0 0,0 0.02,0 0.03,0.01 0.04,0.03 0,0 0.01,0.01 0.01,0.01 0,0 0,0 0,0 0,0 0,0 0,0 0.01,0.02 0.02,0.03 0.03,0.05 0.01,0.02 0.01,0.05 0.01,0.07 0,0 0,0 0,0 0,-0 0.01,-0.01 0.02,-0.01 0,-0 0,-0 0,-0 0,-0 0.01,-0 0.01,-0 0.01,-0.01 0.01,-0.01 0.02,-0.02 0.01,-0.01 0.02,-0.02 0.03,-0.03 0,-0 0,-0 0,-0 0.02,-0.01 0.03,-0.03 0.05,-0.05 0.01,-0.01 0.02,-0.03 0.03,-0.05 0,-0.01 0.01,-0.02 0.02,-0.03 0.02,-0.01 0.03,-0.01 0.05,-0.01 0.01,0 0.03,0 0.04,0.01 0.01,0 0.02,0.01 0.03,0.01 0,0 0,0 0,0 0,0 0.01,0 0.01,0.01 0.01,0.01 0.02,0.01 0.02,0.02 0,0 0,0 0.01,0.01 0.01,0.01 0.02,0.02 0.03,0.03 0,0 0,0 0,0.01 0,0 0,0 0,0 0.02,0.01 0.03,0.03 0.02,0.05 0,0 0,0 0,0.01 0,0 0,0.01 0,0.01 0,0 0,0 0,0 0.01,0.02 0.01,0.04 -0.01,0.06 -0,0 -0,0 -0,0 -0,0.01 -0,0.01 -0,0.02 -0,0.01 -0,0.02 -0.01,0.02 0,0.01 0,0.02 0,0.03 0,0.01 -0,0.02 -0,0.03 -0,0.01 -0,0.02 -0.01,0.03 -0,0.01 -0,0.01 -0.01,0.02 0,0.04 -0,0.08 -0.02,0.12 -0.01,0.03 -0.02,0.07 -0.04,0.1 -0,0 -0,0.01 -0.01,0.01 -0,0 -0,0 -0,0 -0,0 -0,0 -0,0 -0.01,0.02 -0.02,0.03 -0.04,0.04 -0,0 -0.01,0 -0.01,0 -0,0 -0,0 -0.01,0 -0.01,0.01 -0.02,0.01 -0.03,0.01 -0.01,0.01 -0.03,0.01 -0.04,0.01 -0.01,0 -0.02,-0 -0.03,-0.01 -0.05,-0.03 -0.06,-0.09 -0.06,-0.14 -0,-0.02 0,-0.05 0.01,-0.08 -0.01,0 -0.02,0.01 -0.02,0.01 -0.02,0.01 -0.05,0.02 -0.07,0.03 -0.03,0.01 -0.05,0.01 -0.08,0.01 -0.04,0 -0.08,-0.01 -0.11,-0.04 -0,0.02 -0.01,0.03 -0.02,0.04 -0,0 -0.01,0.01 -0.01,0.01 0,0 0,0.01 -0,0.01 -0,0.01 -0.01,0.03 -0.02,0.04 -0,0 -0,0 -0,0 -0,0 -0.01,0 -0.01,0.01 -0,0 -0,0 -0,0 -0,0 -0,0 -0,0 -0,0.01 -0,0.02 -0.01,0.03 -0,0.01 -0.01,0.02 -0.01,0.03 -0.01,0.01 -0.01,0.02 -0.02,0.03 -0,0 -0,0 -0,0 -0.01,0.01 -0.02,0.02 -0.03,0.02 -0.01,0 -0.02,0.01 -0.03,0.01 -0.01,0 -0.02,-0 -0.03,-0 -0.01,-0 -0.02,-0.01 -0.03,-0.02 -0.01,-0.02 -0.03,-0.03 -0.03,-0.05 -0.01,-0.02 -0.01,-0.04 -0.02,-0.06 -0,-0.02 -0.01,-0.04 -0.01,-0.06 0,-0.02 0,-0.04 0.01,-0.07zm0.11 -3.7c-0,-0 -0,-0 -0,-0 -0,-0 -0,-0.01 -0,-0.01 -0,-0.01 -0.01,-0.02 -0.01,-0.02 -0,-0.01 -0,-0.02 -0,-0.03 0,-0 0,-0 0,-0.01 0,-0.01 0,-0.02 0.01,-0.02 0,-0 0,-0 0,-0l0 -0.01c0,-0.01 0.01,-0.02 0.03,-0.02l0.01 0c0,0 0,0 0,0 0,0 0.01,0 0.01,0 0,0 0.01,0 0.01,0 0.02,0 0.04,-0 0.06,-0 0.02,-0 0.04,-0 0.06,-0.01 0.02,-0 0.04,-0 0.06,-0.01 0,-0 0,-0 0,-0 0,-0.01 0.01,-0.01 0.01,-0.01l0.01 -0c0,-0 0.01,-0 0.01,-0 0.01,-0 0.03,0 0.04,0.01 0,0 0,0 0,0 0.01,-0 0.02,-0 0.03,-0 0.01,-0 0.03,-0 0.04,-0.01 0.02,-0 0.04,-0.01 0.06,-0.01 0.02,-0 0.04,-0 0.07,-0 0.01,0 0.02,0 0.03,0 0.01,0 0.02,0 0.02,0 0.01,0 0.01,0 0.01,0.01l0.01 0.01c0,0 0.01,0.01 0.01,0.01 0,0 0,0 0,0 0,0 0,0 0,0 0,0 0,0 0.01,0.01 0,0 0,0 0,0 0.01,0.01 0.02,0.02 0.03,0.03 0.01,0.02 0.02,0.04 0.01,0.06 -0,0 -0,0.01 -0,0.01l-0 0.01c-0,0 -0,0.01 -0.01,0.01 -0,0 -0,0 -0.01,0.01l-0.01 0.01c-0.01,0.01 -0.01,0.01 -0.02,0.01l-0.01 0c-0,0 -0,0 -0,0 -0,0 -0,0 -0,0 -0,0 -0.01,0 -0.01,0 -0,0 -0.01,0 -0.01,0 -0,0 -0.01,0 -0.01,0 -0,-0 -0.01,-0 -0.01,-0 -0,0 -0.01,0 -0.01,0 -0.02,0 -0.03,0 -0.05,0 -0.02,0 -0.04,0 -0.05,0.01 -0.01,0 -0.02,0 -0.04,0 -0,0 -0.01,0 -0.01,0 -0,0.01 -0.01,0.01 -0.01,0.02 -0,0.01 -0.01,0.02 -0.01,0.03 -0,0.01 -0.01,0.02 -0.01,0.03 -0,0.01 -0.01,0.02 -0.01,0.03 -0,0 -0,0.01 -0,0.01 -0.01,0.01 -0.01,0.02 -0.01,0.02 -0,0.01 -0.01,0.02 -0.01,0.02 -0,0 -0,0.01 -0.01,0.01 -0,0.01 -0.01,0.01 -0.01,0.02 -0,0.01 -0.01,0.02 -0.01,0.03l-0 0.01c-0,0 -0,0.01 -0.01,0.01 -0,0 -0,0 -0,0 -0,0 -0,0 -0,0.01 -0,0.01 -0,0.01 -0.01,0.02 -0,0 -0,0 -0,0 -0,0 -0,0 -0,0 -0,0.01 -0,0.01 -0,0.02 -0,0 -0,0 -0,0.01 -0,0 -0,0.01 -0,0.01 -0,0 -0,0 -0,0 -0,0 -0,0 -0,0 0,0 0,0 0,0 0,0 0,0 0.01,0 0.01,0 0.01,0 0.01,0.01l0.01 0.01c0,0 0.01,0.01 0.01,0.01 0,0.02 0,0.05 -0.01,0.07 -0.02,0.02 -0.04,0.03 -0.07,0.03 -0,0 -0,-0 -0,-0l-0.01 -0c-0.01,-0 -0.01,-0 -0.02,-0.01 -0,-0 -0,-0 -0,-0 -0,-0 -0,-0 -0,-0 -0.01,-0 -0.01,-0.01 -0.02,-0.01 -0,-0 -0,-0 -0,-0 -0.01,-0 -0.01,-0 -0.01,-0.01l-0.01 -0c-0.01,-0.01 -0.02,-0.02 -0.01,-0.03 0,-0 0,-0 0,-0 -0,-0.01 -0.01,-0.01 -0.01,-0.02 -0,-0.01 -0.01,-0.02 -0.01,-0.02 -0,-0 -0,-0.01 -0,-0.02 -0,-0 -0,-0 -0,-0 -0,-0 -0.01,-0.01 -0.01,-0.02 -0,-0.03 0,-0.07 0.01,-0.1 0.01,-0.03 0.02,-0.05 0.03,-0.08 0.01,-0.01 0.01,-0.02 0.01,-0.04 0,-0.01 0.01,-0.03 0.01,-0.04 0,-0.01 0,-0.01 0.01,-0.01l0.01 -0.01c0,-0.01 0,-0.01 0,-0.02 0,-0 0,-0 0,-0 -0,0 -0,0 -0,-0 -0,0 -0.01,0 -0.01,0 -0,0 -0.01,0 -0.01,0l-0.02 0c-0,0 -0,-0 -0,0 -0,0 -0.01,0 -0.01,0 -0,0 -0.01,0 -0.01,0 -0,0 -0,0 -0.01,0l-0.02 0c-0.01,0 -0.01,-0 -0.02,-0 -0.01,-0 -0.02,-0 -0.03,-0.01 -0,-0 -0.01,-0 -0.01,-0.01l-0.01 -0.01c-0,-0 -0,-0 -0,-0l-0 -0c-0.01,-0 -0.02,-0.01 -0.02,-0.03l0 -0.01zm0.35 1.4c-0,0 -0,0 -0.01,0 -0,0 -0.01,-0 -0.01,-0 -0.01,0 -0.01,0 -0.02,0 -0,-0 -0.01,-0 -0.01,0 -0.01,0 -0.01,0 -0.02,0 -0,-0 -0.01,-0 -0.02,-0 -0,0 -0.01,-0 -0.01,-0 -0.01,0.01 -0.01,0.02 -0.01,0.03 -0,0 -0,0.01 -0,0.01 0,0 0.01,0 0.01,-0 0.01,-0 0.03,-0 0.04,-0 0.01,-0 0.03,-0 0.04,-0 0.02,-0 0.03,-0 0.05,-0 0.02,-0.01 0.03,-0.01 0.05,-0.01 0.01,-0 0.03,-0.01 0.04,-0.01 0.01,-0 0.01,-0 0.02,-0 0.01,0 0.02,0.01 0.03,0.02 0,0 0.01,0.01 0.01,0.01 0,0 0,0 0,0 0.01,0 0.01,0 0.02,0.01 0.01,0.01 0.01,0.01 0.01,0.02 0,0 0,0 0,0 0,0 0.01,0 0.01,0.01 0.01,0.01 0.01,0.02 0,0.03 -0.01,0.02 -0.02,0.04 -0.04,0.06 -0.01,0.01 -0.03,0.02 -0.05,0.03 -0.02,0.01 -0.04,0.01 -0.06,0.01 -0.02,0 -0.04,0.01 -0.06,0.01 -0.01,0 -0.02,0 -0.03,-0 -0,-0 -0,-0 -0,-0 -0.02,0 -0.03,0.01 -0.05,0.01 -0.02,0 -0.04,0 -0.07,0 -0.02,-0 -0.04,-0 -0.07,-0.01 -0.02,-0.01 -0.04,-0.02 -0.06,-0.03 -0.01,-0.01 -0.01,-0.02 -0.02,-0.02 -0.01,-0 -0.01,-0.01 -0.01,-0.02 -0,-0.01 -0,-0.02 -0,-0.03 -0,-0.01 -0,-0.02 -0.01,-0.03 -0,-0.01 -0,-0.02 -0,-0.04 -0,-0.01 -0,-0.02 0,-0.04 0,-0 0,-0 0,-0 0,-0.01 0,-0.01 0.01,-0.02 0,-0 0,-0.01 0.01,-0.01 0,-0 0,-0 0,-0 -0,-0.01 0,-0.01 0,-0.02 0,-0 0,-0.01 0.01,-0.01 0,-0 0,-0.01 0.01,-0.01 0,-0.01 0.01,-0.01 0.01,-0.02 0,-0.01 0.01,-0.02 0.01,-0.03 0,-0.01 0.01,-0.02 0.01,-0.03 0,-0 0,-0.01 0.01,-0.01 -0.01,-0.01 -0.01,-0.01 -0.01,-0.02 -0,-0.01 -0.01,-0.02 -0.01,-0.03 -0,-0.01 -0,-0.02 -0.01,-0.03 -0,-0.01 -0,-0.02 -0.01,-0.03 -0,-0.01 -0,-0.02 0,-0.02 0.01,-0.01 0.02,-0.02 0.03,-0.03 0.01,-0.01 0.02,-0.01 0.04,-0.02 0.01,-0 0.03,-0.01 0.04,-0.01 0.01,-0 0.03,-0.01 0.04,-0.01 0.02,-0.01 0.05,-0.01 0.07,-0.02 0.02,-0 0.04,-0.01 0.06,-0.01 0.02,-0 0.04,-0.01 0.06,-0.01 0.02,-0 0.05,-0.01 0.07,-0.01 0,-0 0.01,-0 0.01,0 0,-0 0.01,-0 0.01,-0 0,0 0,0 0,0 0,-0 0,-0 0,-0 0.01,-0 0.03,0 0.03,0.01 0,0.01 0.01,0.01 0.02,0.02 0.01,0.01 0.02,0.01 0.03,0.02 0.01,0 0.02,0.01 0.02,0.02 0,0.01 0,0.01 0,0.02 -0,0 -0,0.01 -0,0.01 0,0 0,0 0,0 0,0.01 0,0.01 -0,0.02 -0.01,0.02 -0.02,0.03 -0.04,0.04 -0.01,0.01 -0.03,0.02 -0.04,0.02 -0.01,0 -0.03,0.01 -0.04,0.01 -0.01,0 -0.03,0 -0.04,0.01 -0.01,0 -0.03,0.01 -0.04,0.01 -0.01,0 -0.01,0 -0.02,0.01 0.02,-0 0.03,-0 0.05,-0 0.01,-0 0.03,0.01 0.03,0.02 0,0 0,0 0,0.01 0,0 0,0 0,0 0,0 0.01,0.01 0.01,0.01 0,0 0.01,0.01 0.01,0.01 0.01,-0 0.02,0 0.03,0.02 0,0.01 0.01,0.02 0.01,0.02 0,0.01 0,0.02 -0,0.03 -0,0.01 -0.01,0.01 -0.01,0.01 -0.01,0.01 -0.02,0.01 -0.03,0.02 -0.01,0.01 -0.02,0.01 -0.03,0.02 -0.01,0.01 -0.03,0.01 -0.04,0.02 -0.02,0 -0.03,0.01 -0.05,0.01zm0.23 1.18c0,0 0,0 0,0 0,0.01 0,0.02 0.01,0.03 0,0.01 0,0.03 -0,0.04 -0,0 -0,0 -0,0.01 -0.01,0.01 -0.01,0.03 -0.02,0.04 -0.01,0.01 -0.02,0.02 -0.03,0.03 -0.01,0.01 -0.03,0.02 -0.04,0.03 -0.02,0.01 -0.03,0.01 -0.05,0.01 -0,0 -0,-0 -0.01,-0 -0.01,-0 -0.02,-0 -0.02,-0.01 -0,-0 -0,-0 -0,-0 -0,-0 -0.01,-0.01 -0.01,-0.01 -0,-0 -0,-0 -0,-0l-0.01 -0c-0.01,-0.01 -0.02,-0.02 -0.02,-0.03l0 -0.01c-0,-0 -0,-0 -0,-0 -0,-0 -0.01,-0.01 -0.01,-0.01 -0,-0 -0,-0 -0,-0 -0,-0 -0,-0 -0,-0l-0.02 -0.02c-0.01,-0.01 -0.01,-0.02 -0.01,-0.03 0,-0 0,-0.01 0,-0.01 -0,0 -0,0 -0,0 -0.01,0 -0.03,0 -0.04,0 -0.01,0 -0.02,-0 -0.03,-0l-0.01 -0c-0.01,-0 -0.02,-0.01 -0.02,-0.02 -0,0 -0,0 -0,0l-0.01 0.01c-0,0 -0,0 -0,0 -0,0 -0,0.01 -0,0.01 -0,0.01 -0,0.01 -0.01,0.02 -0,0.01 -0,0.02 -0.01,0.02 -0,0.01 -0,0.01 -0,0.02 0,0 -0,0.01 -0,0.01l-0 0.01c-0,0 -0,0 -0,0.01 -0.01,0.01 -0.01,0.02 -0.02,0.02 -0,0 -0.01,0 -0.01,0.01 -0,0.01 -0.01,0.02 -0.02,0.02l-0.01 0c-0,0 -0.01,0 -0.01,0 -0,0 -0.01,0 -0.02,0 -0,0 -0,-0 -0,-0l-0.01 -0c-0.01,-0 -0.01,-0 -0.02,-0.01 -0,-0 -0.01,-0.01 -0.01,-0.01 -0,-0 -0,-0 -0.01,-0 -0,-0 -0.01,-0 -0.01,-0.01l-0 -0.01c-0,-0 -0,-0 -0,-0 -0,-0.01 -0.01,-0.01 -0.01,-0.02 -0,-0 -0,-0 -0,-0.01 -0,-0 -0,-0 -0,-0 -0,-0 -0,-0 -0,-0l-0.01 -0.01c-0.01,-0.01 -0.01,-0.01 -0.01,-0.02 0,-0.01 0,-0.02 0.01,-0.02l0 -0c0,-0 0,-0.01 0,-0.01 0.01,-0.03 0.03,-0.06 0.04,-0.09 0.01,-0.03 0.03,-0.06 0.04,-0.09 0,-0.01 0.01,-0.02 0.01,-0.03 0,-0.01 0.01,-0.02 0.01,-0.02 -0,-0 -0,-0 -0,-0 0,-0.01 0,-0.01 0,-0.02 0,-0 0,-0.01 0,-0.01 0.01,-0.01 0.01,-0.02 0.02,-0.03 0,-0.01 0.01,-0.02 0.01,-0.02 0.01,-0.01 0.01,-0.02 0.02,-0.03 0.01,-0.01 0.01,-0.02 0.02,-0.03l0 -0.01c0.01,-0.01 0.02,-0.01 0.03,-0.01l0 0c0,-0 0,-0 0,-0 0.01,-0 0.01,-0 0.02,-0 0,0 0,0 0,0l0.01 0c0.01,-0.01 0.02,-0.01 0.03,-0.02 0.01,-0.02 0.03,-0.03 0.04,-0.05l0.01 -0.01c0.01,-0.01 0.03,-0.02 0.04,-0.01l0.01 0.01c0,0 0,0 0.01,0 0.01,0 0.01,0 0.02,0.01 0.01,0 0.02,0.01 0.03,0.01 0.01,0 0.03,0.01 0.04,0.02 0,0 0,0 0,0.01l0 0.01c0,0 0,0.01 0,0.01 0,0.01 0,0.01 0,0.02 0,0 0,0.01 0,0.01 0,0 0,0 0,0 0,0.01 0,0.02 0.01,0.03 0,0.01 0,0.02 0,0.04 0,0.01 0,0.02 0.01,0.03 0,0.01 0,0.02 0.01,0.03 0,0 0,0 0,0 0,0.01 0.01,0.03 0.01,0.04 0,0 0,0.01 0,0.01 0,-0 0.01,-0 0.01,-0l0.01 -0c0.01,-0 0.02,0.01 0.03,0.02l0 0c0.01,0 0.01,0 0.02,0.01 0,0 0.01,0.01 0.01,0.01 0,0 0,0 0,0l0.01 0c0.01,0 0.01,0.01 0.02,0.02 0,0.01 0,0.02 -0,0.02l-0.01 0.01c-0.01,0.02 -0.02,0.03 -0.03,0.04 -0.01,0.01 -0.02,0.01 -0.03,0.02zm-0.66 1.13c0,-0.01 0.01,-0.01 0.01,-0.02 0.01,-0.02 0.01,-0.03 0.02,-0.05 0.01,-0.02 0.02,-0.04 0.03,-0.06 0.01,-0.02 0.02,-0.05 0.03,-0.07 0.01,-0.02 0.02,-0.04 0.03,-0.06 0.01,-0.02 0.02,-0.03 0.03,-0.04 0,-0.01 0.01,-0.01 0.01,-0.02 0,-0.01 0.01,-0.01 0.01,-0.02 0.01,-0.01 0.01,-0.02 0.02,-0.03 0.01,-0.01 0.01,-0.02 0.02,-0.03 0.01,-0.01 0.02,-0.02 0.02,-0.02 0.01,-0.01 0.02,-0.01 0.03,-0.02 0.01,-0 0.01,-0 0.02,0 0.01,0 0.01,0.01 0.02,0.01 0.01,0 0.01,0.01 0.02,0.02 0,0 0.01,0.01 0.01,0.01l0 0c0,0 0.01,0 0.01,0 0,0 0.01,0 0.01,0 0.01,0 0.02,0.01 0.02,0.01 0,0 0,0.01 0.01,0.01 0,0 0,0 0,0 0,0 0,0 0,0 0.01,0.02 0.02,0.03 0.03,0.05 0.01,0.02 0.01,0.04 0,0.06 0,0.01 0,0.01 0,0.02 0,0.01 -0,0.01 -0,0.02 -0,0 -0,0.01 -0,0.01 0,0 0,0 0,0 0.01,0 0.01,-0 0.01,-0 0.01,-0 0.01,-0.01 0.02,-0.01 0.01,-0 0.01,-0.01 0.02,-0.01 0,-0 0.01,-0 0.01,-0.01 0.01,-0.01 0.02,-0.02 0.03,-0.02 0.01,-0.01 0.02,-0.02 0.03,-0.03 0.02,-0.01 0.04,-0.03 0.05,-0.05 0.02,-0.02 0.03,-0.04 0.04,-0.06 0,-0.01 0.01,-0.01 0.01,-0.01 0.01,-0.01 0.02,-0.01 0.03,-0.01 0.01,0 0.02,0 0.03,0.01 0.01,0 0.02,0.01 0.02,0.01 0,0 0,0 0,0 0,0 0,0 0,0 0,0 0.01,0 0.01,0 0.01,0 0.01,0.01 0.01,0.02 0,0 0,0 0,0 0,0 0,0 0,0 0,0 0.01,0.01 0.01,0.01 0.01,0.01 0.01,0.01 0.02,0.02 0,0 0,0 0,0 0,0.01 0.01,0.01 0.01,0.02 0.01,0.01 0.01,0.02 0.01,0.03 -0,0 -0,0 0,0 0,0 0,0.01 0,0.01 0,0 0,0.01 0,0.01 0,0 0,0 0,0 0,0.01 0,0.02 -0,0.03 -0,0 -0.01,0.01 -0.01,0.01 0,0.01 -0,0.02 -0,0.03 -0,0.01 -0,0.02 -0.01,0.02 0,0.01 0,0.02 0,0.03 0,0.01 -0,0.02 -0,0.03 -0,0.01 -0,0.02 -0.01,0.03 -0,0.01 -0,0.01 -0.01,0.02 0,0.04 -0,0.08 -0.02,0.11 -0.01,0.03 -0.02,0.06 -0.04,0.1 -0,0 -0,0.01 -0,0.01 -0,0 -0,0 -0,0 -0,0 -0,0 -0,0.01 -0,0.01 -0.01,0.02 -0.02,0.02 -0,0 -0.01,0 -0.01,0 -0,0 -0.01,0 -0.01,0.01 -0.01,0 -0.01,0.01 -0.02,0.01 -0.01,0 -0.02,0.01 -0.03,0.01 -0.01,0 -0.01,-0 -0.02,-0.01 -0.04,-0.03 -0.05,-0.07 -0.05,-0.12 -0,-0.04 0.01,-0.09 0.02,-0.13 -0,0 -0.01,0.01 -0.01,0.01 -0.02,0.01 -0.04,0.03 -0.06,0.04 -0.02,0.01 -0.04,0.02 -0.07,0.03 -0.02,0.01 -0.05,0.01 -0.07,0.01 -0.05,0 -0.1,-0.02 -0.13,-0.06 -0,0 -0,0 -0,0.01 -0,0.01 -0.01,0.02 -0.01,0.03 -0,0 -0,0.01 -0,0.02 0,0.01 -0,0.02 -0.01,0.02 -0.01,0.01 -0.01,0.01 -0.02,0.02 -0,0 -0.01,0.01 -0.01,0.01 0,0 0,0.01 0,0.01 -0,0.01 -0,0.02 -0.01,0.02 -0,0 -0,0 -0,0 -0,0 -0,0 -0.01,0.01 -0,0 -0,0 -0.01,0.01 -0,0 -0,0 -0,0 -0,0 -0,0 -0,0 -0,0 -0,0 -0,0 -0,0 -0,0.01 -0,0.01 -0,0.01 -0,0.02 -0.01,0.02 -0,0.01 -0.01,0.02 -0.01,0.03 -0,0.01 -0.01,0.02 -0.02,0.02 -0.01,0.01 -0.01,0.01 -0.02,0.01 -0.01,0 -0.02,0 -0.02,0 -0.01,0 -0.02,-0 -0.03,-0 -0.01,-0 -0.01,-0 -0.02,-0.01 -0.01,-0.01 -0.02,-0.03 -0.03,-0.05 -0.01,-0.02 -0.01,-0.04 -0.02,-0.06 -0,-0.02 -0.01,-0.04 -0.01,-0.06 0,-0.02 0,-0.04 0.01,-0.06zm0.4 -1.24c0.01,-0 0.01,-0 0.02,-0 0.01,-0 0.01,-0 0.02,-0 -0,-0.01 -0,-0.02 -0.01,-0.03 -0,-0 -0,-0 -0,-0.01 -0,0 -0,0.01 -0.01,0.01 -0.01,0.01 -0.01,0.02 -0.02,0.03z"/>
    <path class="fil2" d="M0.15 0.2c-0,-0 -0,-0.01 -0,-0.01 -0,-0 -0,-0.01 -0,-0.01 -0,-0.01 -0.01,-0.01 -0.01,-0.02 -0,-0.01 -0,-0.02 -0,-0.03 0,-0.01 0,-0.01 0,-0.01 0,-0 0,-0 0,-0.01l0 -0.01 0.01 0c0,0 0.01,0 0.01,0 0,0 0.01,0 0.01,0 0.02,0 0.04,-0 0.06,-0 0.02,-0 0.04,-0 0.06,-0.01 0.02,-0 0.05,-0.01 0.08,-0.01 0,-0.01 0,-0.01 0.01,-0.01 0,-0 0,-0 0,-0.01l0.01 -0c0.01,-0 0.02,0 0.03,0 0,0 0.01,0.01 0.01,0.01 0.01,-0 0.03,-0 0.04,-0 0.01,-0 0.03,-0 0.04,-0.01 0.02,-0 0.04,-0.01 0.06,-0.01 0.02,-0 0.04,-0 0.06,-0 0.01,0 0.02,0 0.03,0 0.01,0 0.02,0 0.02,0l0.01 0.01c0,0 0,0.01 0.01,0.01 0,0 0.01,0.01 0.01,0.01 0.01,0.01 0.02,0.01 0.02,0.02 0.01,0.01 0.01,0.02 0.01,0.04l-0 0.01c-0,0 -0,0 -0.01,0.01l-0.01 0.01 -0.01 0c-0.01,0 -0.01,0 -0.01,0 -0,0 -0.01,0 -0.01,0 -0,0 -0,0 -0.01,0 -0,0 -0.01,0 -0.01,0 -0.01,-0 -0.01,-0 -0.01,-0 -0,0 -0.01,0 -0.01,0 -0.02,0 -0.03,0 -0.05,0 -0.02,0 -0.04,0 -0.05,0.01 -0.01,0 -0.02,0 -0.04,0 -0.01,0 -0.02,0 -0.03,0 -0.01,0.01 -0.01,0.03 -0.01,0.04 -0,0.01 -0.01,0.02 -0.01,0.03 -0,0.01 -0.01,0.02 -0.01,0.03 -0,0.01 -0.01,0.02 -0.01,0.04 -0.01,0.01 -0.01,0.02 -0.02,0.03 -0,0.01 -0.01,0.02 -0.01,0.03 -0.01,0.01 -0.01,0.02 -0.02,0.03 -0,0.01 -0.01,0.02 -0.01,0.03l-0 0.01c-0,0 -0.01,0.01 -0.01,0.01 -0,0 -0,0 -0,0.01 -0,0.01 -0,0.01 -0.01,0.02 -0,0 -0,0.01 -0,0.01 -0,0 -0,0.01 -0,0.01 -0,0.01 -0,0.01 -0,0.01 0,0 -0,0.01 -0,0.01 -0,0 -0,0.01 -0,0.01 -0,0 -0,0.01 -0,0.01 -0,0 -0,0.01 0,0.01 0,0 0,0 0,0.01 0,0 0,0 0,0.01 0,0 0,0 0,0 0,0 0,0 0,0 0,0 0.01,0.01 0.01,0.01l0.01 0.01c0,0.02 0,0.03 -0.01,0.04 -0.01,0.01 -0.03,0.02 -0.05,0.02l-0.01 -0c-0,-0 -0.01,-0.01 -0.01,-0.01 -0,-0 -0.01,-0 -0.01,-0.01 -0,-0 -0.01,-0 -0.01,-0.01 -0,-0 -0,-0 -0,-0 -0,-0 -0,-0 -0,-0 -0.01,-0 -0.01,-0 -0.01,-0.01l-0.01 -0c0,-0.01 0,-0.01 0,-0.01 -0,-0.01 -0.01,-0.01 -0.01,-0.02 -0,-0.01 -0,-0.01 -0.01,-0.02 -0,-0.01 -0,-0.01 -0,-0.02 -0,-0 -0,-0.01 -0.01,-0.01 -0,-0.04 0,-0.07 0.01,-0.09 0.01,-0.03 0.02,-0.05 0.03,-0.07 0.01,-0.01 0.01,-0.03 0.01,-0.04 0,-0.01 0.01,-0.03 0.01,-0.04l0.01 -0.01c0,-0 0.01,-0.01 0.01,-0.01 0,-0.01 0,-0.01 0,-0.02 0,-0.01 0.01,-0.01 0.01,-0.02 0,-0 0,-0.01 0.01,-0.01 0,-0 0,-0.01 0,-0.01 -0,0 -0.01,0 -0.01,0 -0,0 -0.01,0 -0.01,0 -0.01,0 -0.01,0 -0.02,0 -0,0 -0.01,-0 -0.01,-0 -0,0 -0.01,0 -0.01,0 -0,0 -0.01,0 -0.01,0l-0.01 0 -0.01 0c-0.01,0 -0.01,0 -0.02,0 -0.01,0 -0.01,0 -0.01,0 -0,0 -0,0 -0.01,0l-0.01 0 -0.01 0c-0,0 -0.01,-0 -0.01,-0 -0.01,-0 -0.01,-0 -0.02,-0.01l-0.01 -0.01c-0,-0.01 -0.01,-0.01 -0.01,-0.01l-0.01 -0 0 -0.01zm0.07 1.57c-0,-0 -0.01,-0.01 -0.01,-0.02 -0,-0.01 -0.01,-0.01 -0.01,-0.01 -0,-0.01 -0,-0.02 -0,-0.03 -0,-0.01 -0,-0.02 -0.01,-0.03 -0,-0.01 -0,-0.02 -0,-0.03 -0,-0.01 -0,-0.02 0,-0.03 0,-0 0,-0.01 0.01,-0.01 0,-0 0,-0.01 0.01,-0.01 0,-0 0,-0.01 0.01,-0.01 0,-0 0,-0.01 0,-0.01 0,-0 0.01,-0 0.01,-0.01 0,-0 0,-0 0.01,-0 0,-0.01 0.01,-0.02 0.01,-0.03 0,-0.01 0.01,-0.02 0.01,-0.03 0,-0.01 0.01,-0.02 0.01,-0.03 0.01,-0.01 0.01,-0.02 0.01,-0.03 -0.01,-0.01 -0.02,-0.02 -0.02,-0.03 -0,-0.01 -0.01,-0.02 -0.01,-0.03 -0,-0.01 -0,-0.02 -0,-0.03 -0,-0.01 -0,-0.02 -0.01,-0.03 0.01,-0.01 0.01,-0.02 0.02,-0.02 0.01,-0.01 0.02,-0.01 0.03,-0.01 0.01,-0 0.02,-0.01 0.04,-0.01 0.01,-0 0.03,-0.01 0.04,-0.01 0.03,-0.01 0.05,-0.01 0.07,-0.02 0.02,-0 0.04,-0.01 0.06,-0.01 0.02,-0 0.04,-0.01 0.06,-0.01 0.02,-0 0.04,-0.01 0.07,-0.01 0,0 0,0 0,0 0,0 0,0 0.01,0 0,0 0,0.01 0.01,0.01 0,-0 -0,-0 -0,-0 -0,-0 -0,-0 -0,-0 0,0 0,0 0,0 0,0 0,0 0,0 0,0 0,0 0,-0 0,-0 0,-0 0,-0.01 0.01,0.01 0.01,0.02 0.02,0.03 0.01,0.01 0.02,0.01 0.03,0.02 0,0 0,0.01 0,0.01 -0,0 -0,0 -0,0.01 -0,0 -0,0 -0,0.01 0,0 0,0.01 0,0.01 -0.01,0.01 -0.02,0.03 -0.03,0.03 -0.01,0.01 -0.02,0.01 -0.03,0.02 -0.01,0 -0.02,0.01 -0.04,0.01 -0.01,0 -0.03,0 -0.04,0.01 -0.01,0 -0.03,0.01 -0.04,0.01 -0.01,0 -0.03,0.01 -0.04,0.02 -0,-0 -0.01,-0 -0.01,-0 -0,0 -0.01,0 -0.01,0 -0,0 -0.01,0 -0.01,0 -0,0 -0.01,0 -0.02,0 -0,0 -0.01,0.01 -0.01,0.01 -0.01,0 -0.01,0 -0.02,0 0,0.01 0,0.01 0,0.02 -0,0.01 0,0.01 0,0.01 0.02,0 0.05,0 0.07,-0 0.03,-0 0.05,-0 0.08,-0.01 0,0 0,0 -0,0.01 -0,0 -0,0 -0,0.01 0,0 0.01,0.01 0.01,0.01 0,0 0.01,0.01 0.01,0.01 0,0 0.01,0.01 0.01,0.01 0,0 0.01,0 0.02,0 0,0.01 0,0.01 0.01,0.02 0,0.01 0,0.01 -0,0.02 -0.01,0.01 -0.02,0.01 -0.03,0.02 -0.01,0.01 -0.02,0.01 -0.03,0.02 -0.01,0.01 -0.02,0.01 -0.04,0.01 -0.01,0 -0.03,0.01 -0.04,0 -0,0 -0,0 -0.01,0 -0,0 -0,-0 -0.01,-0 -0.01,0 -0.01,0 -0.02,0 -0.01,-0 -0.02,0 -0.02,0 -0.01,-0 -0.02,-0 -0.03,-0 -0.01,0 -0.02,-0 -0.03,-0 -0.01,0.01 -0.02,0.03 -0.03,0.04 -0.01,0.01 -0.02,0.03 -0.02,0.05 0.02,0 0.04,0 0.05,0 0.01,-0 0.03,-0 0.04,-0 0.01,-0 0.03,-0 0.04,-0 0.01,-0 0.03,-0 0.05,-0 0.01,-0.01 0.03,-0.01 0.05,-0.01 0.02,-0 0.03,-0.01 0.05,-0.01 0.01,0 0.01,0 0.01,0.01 0,0 0.01,0.01 0.01,0.01 0,0 0.01,0.01 0.01,0.01 0,0 0.01,0 0.01,0 0,0 0,0.01 0.01,0.01 0,0 0,0.01 0,0.01 0,0 0,0.01 0,0.01 0,0 0,0 0.01,0 -0.01,0.02 -0.02,0.04 -0.03,0.05 -0.01,0.01 -0.03,0.02 -0.04,0.03 -0.02,0.01 -0.03,0.01 -0.05,0.01 -0.02,0 -0.04,0.01 -0.06,0.01 -0.01,0 -0.01,0 -0.01,-0 -0,-0 -0.01,-0 -0.01,-0 -0.01,0 -0.03,0.01 -0.05,0.01 -0.02,0 -0.04,0 -0.06,0 -0.02,-0 -0.04,-0 -0.06,-0.01 -0.02,-0 -0.03,-0.01 -0.05,-0.03zm0.18 0.9c-0.01,0.01 -0.01,0.02 -0.02,0.03 0,-0 0.01,-0 0.01,-0 0,0 0.01,-0 0.01,-0 0.02,-0 0.04,-0 0.05,-0 0.02,-0 0.03,-0 0.05,-0.01 -0,-0.02 -0.01,-0.04 -0.01,-0.06 -0,-0.02 -0.01,-0.04 -0.02,-0.06l-0 0.01c-0.01,0.01 -0.03,0.03 -0.04,0.05 -0.01,0.02 -0.02,0.03 -0.03,0.05l-0 0zm-0.25 0.2l0.01 -0.01 0 -0.02c0.01,-0.03 0.03,-0.06 0.04,-0.09 0.01,-0.03 0.03,-0.06 0.04,-0.09 0,-0.01 0.01,-0.02 0.01,-0.03 0,-0.01 0.01,-0.02 0.01,-0.03 -0,-0 -0,-0 -0,-0.01 0,-0 0,-0.01 0,-0.01 0.01,-0.01 0.01,-0.02 0.02,-0.03 0,-0.01 0.01,-0.02 0.01,-0.03 0,-0.01 0.01,-0.02 0.02,-0.03 0.01,-0.01 0.01,-0.02 0.02,-0.03l0.01 -0.01 0.01 0c0,-0 0,-0 0.01,-0 0,-0 0.01,-0 0.01,-0l0.01 0c0.02,-0.01 0.03,-0.02 0.05,-0.03 0.01,-0.01 0.03,-0.03 0.04,-0.05l0.01 -0.01 0.01 0.01c0,0 0.01,0 0.01,0 0.01,0 0.01,0 0.02,0.01 0.01,0 0.02,0.01 0.03,0.01 0.01,0 0.02,0.01 0.02,0.01l0 0.01c0,0.01 0,0.01 0,0.02 0,0 0,0.01 0,0.01 0,0.01 0,0.02 0.01,0.03 0,0.01 0,0.02 0,0.04 0,0.01 0.01,0.02 0.01,0.03 0,0.01 0,0.02 0.01,0.03 0,0.02 0.01,0.03 0.01,0.04 0,0.01 0.01,0.03 0.01,0.04 0.01,0 0.01,0 0.01,0 0.01,-0 0.01,-0 0.02,-0l0.01 -0 0 0.01c0,0 0,0 0,0 0,0 0,0 0.01,0 0.01,0 0.01,0 0.02,0.01 0,0 0.01,0.01 0.01,0.01 0,0 0,0 0,0 0,0 0,0 0,0l0.01 0.01 -0.01 0.01c-0.01,0.01 -0.01,0.02 -0.03,0.03 -0.01,0.01 -0.03,0.02 -0.04,0.03 0,0 0,0.01 0,0.01 0,0 0,0.01 0,0.01 0,0.01 0,0.02 0.01,0.03 0,0.01 0,0.02 -0,0.04 -0.01,0.01 -0.01,0.03 -0.02,0.04 -0.01,0.01 -0.02,0.02 -0.03,0.03 -0.01,0.01 -0.02,0.02 -0.03,0.02 -0.01,0.01 -0.02,0.01 -0.04,0.01 -0.01,-0 -0.01,-0 -0.02,-0.01 -0,-0 -0.01,-0 -0.01,-0.01 -0,-0 -0.01,-0.01 -0.01,-0.01l-0.01 -0 0 -0.01c0,-0 0,-0.01 -0,-0.01 -0,-0 -0.01,-0.01 -0.01,-0.01 -0,-0 -0,-0 -0.01,-0.01 -0,-0 -0,-0 -0.01,-0.01l-0.02 -0.02 0.03 -0.01c0.02,-0 0.03,-0.01 0.03,-0.02 0.01,-0.01 0.01,-0.02 0.01,-0.03 -0.01,-0 -0.02,-0 -0.03,-0 -0.01,0 -0.02,0 -0.03,0.01 -0.01,0 -0.02,0.01 -0.04,0.01 -0.01,0 -0.02,0 -0.04,0 -0.01,0 -0.02,-0 -0.03,-0l-0.01 -0 -0 -0.01c0,-0 -0,-0 -0,-0 -0,-0 -0,-0 -0,-0 -0,-0 -0.01,-0.01 -0.01,-0.01 -0,-0.01 -0,-0.01 -0,-0.02 -0,-0.01 -0.01,-0.01 -0.01,-0.02 -0,0 -0,0.01 -0.01,0.01 -0,0 -0,0.01 -0,0.01l-0 0.01 -0.01 0c-0,0 -0,0 -0,0 -0,0 -0,0 -0,0l0 0.01 -0.01 0.01c-0,0 -0,0 -0,0 -0,0 -0,0 -0,0 -0,0.01 -0,0.01 -0,0.02 -0,0.01 -0,0.01 -0.01,0.02 -0,0.01 -0.01,0.02 -0.01,0.02 -0,0.01 -0,0.02 -0,0.02l-0 0.01c-0,0 -0.01,0.01 -0.01,0.01 -0,0 -0.01,0 -0.01,0.01 -0.01,0 -0.01,0 -0.01,0.01l-0 0.01 -0.01 0c-0.01,0 -0.01,0 -0.01,0 -0,0 -0.01,0 -0.01,0l-0.01 -0c-0.01,-0.01 -0.01,-0.01 -0.02,-0.01 -0,-0 -0.01,-0.01 -0.01,-0.01l-0 -0.01c-0,-0 -0,-0.01 -0,-0.01 -0,-0 -0,-0.01 -0,-0.01 -0,-0.01 -0,-0.01 -0,-0.01l-0.01 -0.01zm-0.03 1.24c-0.01,0 -0.01,-0 -0.02,-0 -0.01,-0.01 -0.02,-0.02 -0.02,-0.04 -0.01,-0.02 -0.01,-0.03 -0.02,-0.05 -0,-0.02 -0.01,-0.04 -0,-0.05 0,-0.02 0,-0.03 0.01,-0.05 0,-0 0,-0.01 0.01,-0.02 0.01,-0.01 0.01,-0.03 0.02,-0.05 0.01,-0.02 0.02,-0.04 0.03,-0.06 0.01,-0.02 0.02,-0.05 0.03,-0.07 0.01,-0.02 0.02,-0.04 0.03,-0.06 0.01,-0.02 0.02,-0.03 0.02,-0.04 0,-0.01 0.01,-0.01 0.01,-0.02 0,-0.01 0.01,-0.01 0.01,-0.02 0.01,-0.01 0.01,-0.02 0.02,-0.03 0,-0.01 0.01,-0.02 0.02,-0.02 0.01,-0.01 0.01,-0.01 0.02,-0.02 0.01,-0.01 0.02,-0.01 0.03,-0.01 0.01,0 0.01,0.01 0.02,0.01 0,0 0.01,0.01 0.01,0.01l0 0.01c0,0 0,0.01 0.01,0.01 0,0 0,0 0.01,0 0.01,0 0.01,0 0.02,0.01 0,0 0.01,0 0.02,0 0,0 0,0.01 0.01,0.01 0,0 0,0.01 0.01,0.01 0.01,0.02 0.02,0.03 0.03,0.04 0.01,0.01 0.01,0.03 0,0.05l0 0.01c0,0 0,0.01 0,0.01 0,0 -0,0.01 -0,0.01 -0,0 -0,0.01 -0,0.01 -0,0 0,0.01 0,0.02l0.01 0.01c0.01,0 0.02,0.01 0.02,0.01 0.01,0 0.02,-0 0.03,-0.01 0.01,-0 0.02,-0.01 0.02,-0.01 0.01,-0 0.01,-0.01 0.02,-0.01 0,-0 0.01,-0 0.01,-0.01 0.01,-0.01 0.02,-0.02 0.03,-0.03 0.01,-0.01 0.02,-0.02 0.03,-0.02 0.02,-0.02 0.04,-0.03 0.06,-0.05 0.02,-0.02 0.03,-0.04 0.04,-0.07 0.01,-0 0.01,-0.01 0.02,-0.01 0.01,0 0.01,0 0.02,0 0.01,0 0.01,0.01 0.02,0.01 0,0 0,0 0,0 0,0 0,0 0,0 0,0.01 0,0.01 0.01,0.02 0,0 0,0 0.01,0 0,0 0,0 0,0 0,0 0.01,0 0.01,0.01 0,0 0.01,0 0.01,0.01 0,0.01 0.01,0.03 0.02,0.03 -0,0.01 -0,0.01 0,0.02 0,0.01 0,0.01 0.01,0.02 0,0 0,0 0,0.01 0,0 0,0 0,0.01l-0.02 -0 0 0.02c0,0.01 0,0.02 -0,0.03 -0,0.01 -0.01,0.02 -0.01,0.03 0,0.02 0,0.03 0,0.04 0,0.01 -0,0.02 -0,0.03 -0,0.01 -0,0.02 -0.01,0.02 -0,0.01 -0.01,0.01 -0.01,0.02 0,0.04 -0,0.08 -0.01,0.11 -0.01,0.03 -0.02,0.06 -0.04,0.09 -0,0 -0,0.01 -0,0.01 -0,0 -0,0.01 -0,0.01 -0.01,0 -0.01,0 -0.02,0.01 -0,0 -0.01,0 -0.01,0.01 -0.01,0 -0.01,0.01 -0.02,0.01 -0.01,0 -0.01,0 -0.02,0 -0.03,-0.02 -0.04,-0.05 -0.04,-0.1 -0,-0.05 0.01,-0.1 0.03,-0.17 0,-0 0.01,-0.01 0,-0.01l0 -0.01 -0.01 -0c-0,0 -0.01,0 -0.01,0 -0,0 -0,0 -0,0.01 -0.02,0.01 -0.03,0.02 -0.05,0.04 -0.02,0.01 -0.04,0.02 -0.06,0.04 -0.02,0.01 -0.04,0.02 -0.06,0.03 -0.02,0.01 -0.04,0.01 -0.06,0.01 -0.05,0 -0.09,-0.03 -0.12,-0.08l-0.01 -0.01 -0.01 0.01c-0,0 -0,0.01 -0.01,0.02 -0,0.01 -0.01,0.02 -0.01,0.03 -0,0.01 -0.01,0.02 -0.01,0.03 -0,0.01 -0,0.02 -0,0.03 -0.01,0.01 -0.01,0.01 -0.02,0.02 -0.01,0.01 -0.01,0.02 -0.01,0.03 -0,0 -0,0.01 -0,0.01 0,0 0,0 0,0.01 -0,0 -0,0.01 -0,0.01 -0,0 -0,0 -0.01,0 -0,0 -0.01,0.01 -0.01,0.01 -0,0 -0,0.01 -0.01,0.01 -0,0 -0,0.01 -0,0.01 -0,0 -0,0.01 -0,0.01 0,0.01 -0,0.01 -0,0.01 -0.01,0.01 -0.01,0.02 -0.01,0.03 -0,0.01 -0.01,0.01 -0.01,0.02 -0,0 -0.01,0.01 -0.01,0.01 -0,0 -0.01,0 -0.01,0z"/>
   </g>
  </g>
 </g>
</svg>
