<?xml version="1.0" encoding="UTF-8"?> <svg xmlns="http://www.w3.org/2000/svg" width="64" height="64" viewBox="0 0 64 64" fill="none"><path fill-rule="evenodd" clip-rule="evenodd" d="M1 23H13.8222C14.4727 23 15 22.4189 15 21.702V12.298C15 11.5811 14.4727 11 13.8222 11H1V13H13V21H1V23Z" fill="#15548F"></path><path fill-rule="evenodd" clip-rule="evenodd" d="M1 56H13.8222C14.4727 56 15 55.4189 15 54.702V45.298C15 44.5811 14.4727 44 13.8222 44H1V46H13V54H1V56Z" fill="#15548F"></path><path fill-rule="evenodd" clip-rule="evenodd" d="M1 40H13.8222C14.4727 40 15 39.4189 15 38.702V29.298C15 28.5811 14.4727 28 13.8222 28H1V30H13V38H1V40Z" fill="#15548F"></path><path fill-rule="evenodd" clip-rule="evenodd" d="M63 11L50.1778 11C49.5273 11 49 11.5811 49 12.298L49 21.702C49 22.4189 49.5273 23 50.1778 23L63 23L63 21L51 21L51 13L63 13L63 11Z" fill="#15548F"></path><path fill-rule="evenodd" clip-rule="evenodd" d="M6 2.0066C3.5 2.0066 2 3.5 2 6V58C2 61 3 61.9934 6 61.9934H58C61 61.9934 62.0559 60.5 62.0559 58V6C62.0559 3 61 2.0066 58 2.0066H6ZM0 6C0 2.0066 2 0 6 0H58C62.0559 0 64 2.0066 64 6V58C64 61.9934 62.0559 64 58 64H6C1 64 0 61.9934 0 58V6Z" fill="#15548F"></path><path fill-rule="evenodd" clip-rule="evenodd" d="M19 0C19.5523 0 20 0.463852 20 1.03604V62.964C20 63.5361 19.5523 64 19 64C18.4477 64 18 63.5361 18 62.964V1.03604C18 0.463852 18.4477 0 19 0Z" fill="#15548F"></path><path fill-rule="evenodd" clip-rule="evenodd" d="M45 0C45.5523 0 46 0.463852 46 1.03604V62.964C46 63.5361 45.5523 64 45 64C44.4477 64 44 63.5361 44 62.964V1.03604C44 0.463852 44.4477 0 45 0Z" fill="#15548F"></path><path d="M39 30H25V38H39V30Z" fill="#B3E2FC"></path><path d="M13 13H2V21H13V13Z" fill="#B3E2FC"></path><path d="M13 46H2V54H13V46Z" fill="#B3E2FC"></path><path fill-rule="evenodd" clip-rule="evenodd" d="M23 29.298C23 28.5811 23.5273 28 24.1778 28H39.8222C40.4727 28 41 28.5811 41 29.298V38.702C41 39.4189 40.4727 40 39.8222 40H24.1778C23.5273 40 23 39.4189 23 38.702V29.298ZM25 30V38H39V30H25Z" fill="#15548F"></path><path fill-rule="evenodd" clip-rule="evenodd" d="M23 12.298C23 11.5811 23.5273 11 24.1778 11H39.8222C40.4727 11 41 11.5811 41 12.298V21.702C41 22.4189 40.4727 23 39.8222 23H24.1778C23.5273 23 23 22.4189 23 21.702V12.298ZM25 13V21H39V13H25Z" fill="#15548F"></path></svg> 