<?xml version="1.0" encoding="UTF-8"?> <svg xmlns="http://www.w3.org/2000/svg" width="64" height="64" viewBox="0 0 64 64" fill="none"><path fill-rule="evenodd" clip-rule="evenodd" d="M6.67213 0.83354C7.6994 0.0777878 8.99187 0 10 0L25.6896 2.76566e-05C26.2418 2.86102e-05 26.6896 0.447745 26.6896 1.00003C26.6896 1.55231 26.2418 2.00003 25.6896 2.00003L10 2C9.00813 2 8.31533 2.10759 7.85733 2.44454C7.47039 2.7292 7.02946 3.35536 7.02946 5.00003V58.9675C7.02946 59.7185 7.09939 60.493 7.42416 61.0641C7.57432 61.3282 7.77841 61.5465 8.07317 61.7063C8.37375 61.8692 8.82244 62 9.50001 62H54C55.0887 62 55.7287 61.9662 56.1622 61.6702C56.491 61.4456 56.9523 60.8628 56.9523 58.9675V57.5C56.9523 56.9477 57.4 56.5 57.9523 56.5C58.5046 56.5 58.9523 56.9477 58.9523 57.5V58.9675C58.9523 61.1048 58.4374 62.5382 57.2901 63.3218C56.2918 64.0035 55.0246 64.0016 54.1188 64.0002L54 64H9.50001C8.56445 64 7.77275 63.8183 7.12014 63.4646C6.46171 63.1077 5.9998 62.6053 5.68561 62.0528C5.08167 60.9908 5.02946 59.749 5.02946 58.9675V5.00003C5.02946 3.01543 5.57381 1.64157 6.67213 0.83354ZM31.5 1C31.5 0.447715 31.9477 0 32.5 0H47C47.6593 0 48.2804 0.295691 48.7793 0.610761C49.3002 0.939723 49.8177 1.3745 50.2941 1.81828C50.8926 2.3758 51.5287 3.05163 52.0388 3.59367C52.3029 3.87425 52.5332 4.11898 52.7071 4.29289C52.7183 4.30411 52.7293 4.31559 52.7399 4.32733L57.7249 9.81078C59.0037 11.1034 59.0022 12.6122 59.0002 14.738L59 15V22.5C59 23.0523 58.5523 23.5 58 23.5C57.4477 23.5 57 23.0523 57 22.5V15C57 14.1357 56.9934 13.495 56.9587 13H49C47.8653 13 46.8984 12.7128 46.3818 11.8086C46.1577 11.4166 46.0742 10.993 46.0365 10.6255C45.9999 10.2693 46 9.88191 46 9.52857V9.52853V9.5V2H32.5C31.9477 2 31.5 1.55228 31.5 1ZM48 2.49878V9.5C48 9.88905 48.001 10.1778 48.026 10.4214C48.0508 10.6632 48.0923 10.7709 48.1182 10.8164L48.1192 10.8181C48.1295 10.8362 48.1443 10.8622 48.2284 10.8972C48.342 10.9446 48.5713 11 49 11H56.1031L51.2758 5.68998C51.0197 5.43309 50.7545 5.15018 50.4753 4.85237C50.0074 4.35317 49.5003 3.81214 48.9309 3.28172C48.6051 2.97825 48.2918 2.71161 48 2.49878ZM14 10C13.4477 10 13 10.4477 13 11C13 11.5523 13.4477 12 14 12H23C23.5523 12 24 11.5523 24 11C24 10.4477 23.5523 10 23 10H14ZM13 18C13 17.4477 13.4477 17 14 17H26C26.5523 17 27 17.4477 27 18C27 18.5523 26.5523 19 26 19H14C13.4477 19 13 18.5523 13 18Z" fill="#15548F"></path><path d="M45.4313 34.2296C50.6891 33.6975 55 37.7195 55 42.3078C55 46.712 51.0669 50.4344 46.4109 50.4344H21.1799C16.6703 50.4344 13 46.7884 13 42.3078C13 39.714 14.6336 37.0553 17.1345 35.4822C18.613 26.3192 28.7953 22.3252 35.6188 28.1892C40.6706 27.5481 44.2821 30.4143 45.4313 34.2296Z" fill="#B3E2FC"></path><path d="M43.0948 34.9053C42.191 31.9047 39.4802 30.1062 35.9317 30.5564L34.84 30.695L34.0124 29.9838C28.6626 25.3863 20.7257 28.5113 19.5408 35.855L19.3701 36.9126L18.4505 37.491C16.6075 38.6502 15.4362 40.5762 15.4362 42.3078C15.4362 45.4773 18.0232 48.0473 21.1799 48.0473H46.4109C49.7397 48.0473 52.5638 45.375 52.5638 42.3078C52.5638 39.0106 49.3747 36.2303 45.6816 36.6041L43.6678 36.8079L43.0948 34.9053ZM45.4313 34.2296C50.6891 33.6975 55 37.7195 55 42.3078C55 46.712 51.0669 50.4344 46.4109 50.4344H21.1799C16.6703 50.4344 13 46.7884 13 42.3078C13 39.714 14.6336 37.0553 17.1345 35.4822C18.613 26.3192 28.7953 22.3252 35.6188 28.1892C40.6706 27.5481 44.2821 30.4143 45.4313 34.2296Z" fill="#15548F"></path></svg> 