<?xml version="1.0" encoding="UTF-8"?> <svg xmlns="http://www.w3.org/2000/svg" width="64" height="64" viewBox="0 0 64 64" fill="none"><path fill-rule="evenodd" clip-rule="evenodd" d="M15 1C15.5523 1 16 1.44936 16 2.00367V61.9963C16 62.5506 15.5523 63 15 63C14.4477 63 14 62.5506 14 61.9963V2.00367C14 1.44936 14.4477 1 15 1Z" fill="#15548F"></path><path fill-rule="evenodd" clip-rule="evenodd" d="M0 63C0 62.4477 0.397969 62 0.888889 62H63.1111C63.602 62 64 62.4477 64 63C64 63.5523 63.602 64 63.1111 64H0.888889C0.397969 64 0 63.5523 0 63Z" fill="#15548F"></path><path fill-rule="evenodd" clip-rule="evenodd" d="M0 1C0 0.447715 0.397969 0 0.888889 0H63.1111C63.602 0 64 0.447715 64 1C64 1.55228 63.602 2 63.1111 2H0.888889C0.397969 2 0 1.55228 0 1Z" fill="#15548F"></path><path d="M47 23H22V28H47V23Z" fill="#B3E2FC"></path><path fill-rule="evenodd" clip-rule="evenodd" d="M20 21.9735C20 21.4358 20.4191 21 20.9361 21H48.0639C48.5809 21 49 21.4358 49 21.9735V29.0265C49 29.5642 48.5809 30 48.0639 30H20.9361C20.4191 30 20 29.5642 20 29.0265V21.9735ZM22 23L22.0312 28H47.0156V23H22Z" fill="#15548F"></path><path fill-rule="evenodd" clip-rule="evenodd" d="M20 8.97347C20 8.43584 20.4101 8 20.916 8H33.084C33.5899 8 34 8.43584 34 8.97347V16.0265C34 16.5642 33.5899 17 33.084 17H20.916C20.4101 17 20 16.5642 20 16.0265V8.97347ZM22 10V15H32V10H22Z" fill="#15548F"></path><path fill-rule="evenodd" clip-rule="evenodd" d="M25 34.9735C25 34.4358 25.4109 34 25.9177 34H48.0823C48.5891 34 49 34.4358 49 34.9735V42.0265C49 42.5642 48.5891 43 48.0823 43H25.9177C25.4109 43 25 42.5642 25 42.0265V34.9735ZM27 36V41.0531H47V36H27Z" fill="#15548F"></path><path d="M62 49H29V54H62V49Z" fill="#B3E2FC"></path><path fill-rule="evenodd" clip-rule="evenodd" d="M27 47.9735C27 47.4358 27.4201 47 27.9383 47H63.0617C63.5799 47 64 47.4358 64 47.9735V55.0265C64 55.5642 63.5799 56 63.0617 56H27.9383C27.4201 56 27 55.5642 27 55.0265V47.9735ZM29.0312 49V54H62V49H29.0312Z" fill="#15548F"></path><path fill-rule="evenodd" clip-rule="evenodd" d="M3 53C3 52.4477 3.44561 52 3.99531 52H10.0047C10.5544 52 11 52.4477 11 53C11 53.5523 10.5544 54 10.0047 54H3.99531C3.44561 54 3 53.5523 3 53Z" fill="#15548F"></path><path fill-rule="evenodd" clip-rule="evenodd" d="M3 39C3 38.4477 3.44561 38 3.99531 38H10.0047C10.5544 38 11 38.4477 11 39C11 39.5523 10.5544 40 10.0047 40H3.99531C3.44561 40 3 39.5523 3 39Z" fill="#15548F"></path><path fill-rule="evenodd" clip-rule="evenodd" d="M3 25C3 24.4477 3.44561 24 3.99531 24H10.0047C10.5544 24 11 24.4477 11 25C11 25.5523 10.5544 26 10.0047 26H3.99531C3.44561 26 3 25.5523 3 25Z" fill="#15548F"></path><path fill-rule="evenodd" clip-rule="evenodd" d="M3 11C3 10.4477 3.44561 10 3.99531 10H10.0047C10.5544 10 11 10.4477 11 11C11 11.5523 10.5544 12 10.0047 12H3.99531C3.44561 12 3 11.5523 3 11Z" fill="#15548F"></path></svg> 