<?xml version="1.0" encoding="UTF-8"?> <svg xmlns="http://www.w3.org/2000/svg" width="64" height="64" viewBox="0 0 64 64" fill="none"><path fill-rule="evenodd" clip-rule="evenodd" d="M41 28C41 27.4477 41.4802 27 42.0726 27H58.9274C59.5198 27 60 27.4477 60 28C60 28.5523 59.5198 29 58.9274 29H42.0726C41.4802 29 41 28.5523 41 28Z" fill="#15548F"></path><path fill-rule="evenodd" clip-rule="evenodd" d="M41 45C41 44.4477 41.4802 44 42.0726 44H58.9274C59.5198 44 60 44.4477 60 45C60 45.5523 59.5198 46 58.9274 46H42.0726C41.4802 46 41 45.5523 41 45Z" fill="#15548F"></path><path fill-rule="evenodd" clip-rule="evenodd" d="M13.679 16.335C14.114 16.7745 14.1059 17.4792 13.6609 17.9088L10.7877 20.6829C10.3498 21.1057 9.6502 21.1057 9.21231 20.6829L6.33914 17.9088C5.89412 17.4792 5.88601 16.7745 6.32104 16.335C6.75607 15.8954 7.4695 15.8874 7.91453 16.3171L10 18.3306L12.0855 16.3171C12.5305 15.8874 13.2439 15.8954 13.679 16.335Z" fill="#15548F"></path><g style="mix-blend-mode:multiply"><path d="M58 54C58 57.3137 55.3137 60 52 60C48.6863 60 46 57.3137 46 54C46 50.6863 48.6863 48 52 48C55.3137 48 58 50.6863 58 54Z" fill="#009EF5" fill-opacity="0.3"></path></g><rect x="2" y="27" width="40" height="2" fill="#15548F"></rect><rect x="41" y="8" width="22" height="2" fill="#15548F"></rect><rect x="10" y="44" width="32" height="2" fill="#15548F"></rect><rect x="12" y="27" width="19" height="2" transform="rotate(90 12 27)" fill="#15548F"></rect><rect x="42" y="2" width="60" height="2" transform="rotate(90 42 2)" fill="#15548F"></rect><g style="mix-blend-mode:multiply"><path d="M58 22C58 23.1046 57.1046 24 56 24H48C46.8954 24 46 23.1046 46 22V15C46 13.8954 46.8954 13 48 13H56C57.1046 13 58 13.8954 58 15V22Z" fill="#009EF5" fill-opacity="0.3"></path></g><path d="M2 9C1.44772 9 1 9.44772 1 10V62C1 62.5523 1.44772 63 2 63H62C62.5523 63 63 62.5523 63 62V2C63 1.44772 62.5523 1 62 1H41.6774C41.1251 1 40.6774 1.44772 40.6774 2V9H2Z" stroke="#15548F" stroke-width="2" stroke-linecap="round" stroke-linejoin="round"></path></svg> 